<svg id="Discount-pana" xmlns="http://www.w3.org/2000/svg" width="300.998" height="176.366" viewBox="0 0 300.998 176.366">
  <g id="freepik--background-complete--inject-4" transform="translate(0.368 0)">
    <path id="Path_35960" data-name="Path 35960" d="M567.9,118.66l.435,1.535-1.383,9.778-2.579.718,1.366-9.343-3.41.94.465,1.67-2.1.592-1-3.606Z" transform="translate(-328.723 -88.796)" fill="#efeaf1"/>
    <path id="Path_35961" data-name="Path 35961" d="M591.255,120.456c.5,1.818-.387,3.771-3.314,4.584a7.355,7.355,0,0,1-4.219,0l.435-2.079a5.146,5.146,0,0,0,3.175.113c1.183-.331,1.779-1.031,1.548-1.866s-.9-1.187-2.762-.67l-2.61.731-1.079-5.92,6.255-1.74.518,1.909-4.28,1.187.383,2,.835-.235C589.172,117.612,590.751,118.642,591.255,120.456Z" transform="translate(-341.572 -85.942)" fill="#efeaf1"/>
    <path id="Path_35962" data-name="Path 35962" d="M602.085,111.859c-.461-1.67.165-3.045,1.544-3.427s2.61.435,3.088,2.14-.178,3.045-1.544,3.427S602.551,113.53,602.085,111.859ZM606,110.776c-.37-1.331-1.218-1.949-2.175-1.683s-1.361,1.244-.992,2.566,1.2,1.953,2.175,1.683,1.344-1.231.974-2.566Zm3.875-4,.87-.239-4.149,12.2-.87.239Zm-.143,8.168c-.461-1.67.178-3.045,1.54-3.427s2.61.47,3.093,2.14-.165,3.045-1.544,3.427-2.64-.47-3.106-2.14Zm3.915-1.083c-.365-1.3-1.2-1.953-2.175-1.683s-1.366,1.231-.992,2.562,1.218,1.949,2.175,1.683,1.322-1.244.957-2.562Z" transform="translate(-352.593 -81.948)" fill="#efeaf1"/>
    <rect id="Rectangle_27260" data-name="Rectangle 27260" width="30.625" height="38.659" transform="translate(292.14 172.883) rotate(-179.55)" fill="#ebebeb"/>
    <path id="Path_35963" data-name="Path 35963" d="M666.49,361.185l-.544,37.428-4.837-.035,1.035-37.428Z" transform="translate(-386.03 -225.813)" fill="#fafafa"/>
    <path id="Path_35964" data-name="Path 35964" d="M589.817,360.58l17.568.139,30.625.239-30.656,4.032-.261,33.157-17.563-.135Z" transform="translate(-345.584 -225.491)" fill="#e0e0e0"/>
    <path id="Path_35965" data-name="Path 35965" d="M604.5,360.7l-.7,37.428-5.211-.039.853-37.428Z" transform="translate(-350.703 -225.537)" fill="#fafafa"/>
    <path id="Path_35966" data-name="Path 35966" d="M626.662,320.249c0,.078-.518.174-1.461.265a38.187,38.187,0,0,1-4.015.178,22.484,22.484,0,0,1-5.994-.787,4.3,4.3,0,0,1-.87-.391,2.354,2.354,0,0,1-.8-.757,2.112,2.112,0,0,1-.322-1.118,4.186,4.186,0,0,1,.13-1.026,22.781,22.781,0,0,1,1.135-3.68,9.386,9.386,0,0,1,.992-1.766,5.534,5.534,0,0,1,1.457-1.44,2.965,2.965,0,0,1,1.009-.435,2.608,2.608,0,0,1,1.113,0,4.411,4.411,0,0,1,1.692.922,17.571,17.571,0,0,1,3.984,4.571,14.658,14.658,0,0,1,1.614,3.728,3.26,3.26,0,0,1,.2,1.479c-.191.057-.622-2.036-2.488-4.784a18.46,18.46,0,0,0-3.962-4.163,3.544,3.544,0,0,0-1.3-.692,1.653,1.653,0,0,0-1.283.278,4.554,4.554,0,0,0-1.14,1.166,8.7,8.7,0,0,0-.87,1.557,23.929,23.929,0,0,0-1.092,3.48,1.739,1.739,0,0,0,.031,1.3,2.082,2.082,0,0,0,1.1.739,14.238,14.238,0,0,0,1.509.4c.5.113,1,.2,1.479.274.961.152,1.866.239,2.7.3,1.666.113,3.045.135,3.971.183A3.672,3.672,0,0,1,626.662,320.249Z" transform="translate(-358.958 -196.477)" fill="#e0e0e0"/>
    <path id="Path_35967" data-name="Path 35967" d="M642.69,318.55a4.9,4.9,0,0,1,1.588-.478c1.031-.235,2.536-.544,4.35-.983a41.483,41.483,0,0,0,6.255-1.975,7,7,0,0,0,1.57-.835,1.742,1.742,0,0,0,.5-.557.971.971,0,0,0,.087-.635,3.505,3.505,0,0,0-.3-.826c-.144-.309-.291-.622-.435-.935a15.091,15.091,0,0,0-1-1.8,7.79,7.79,0,0,0-1.3-1.518,4.98,4.98,0,0,0-1.557-1,2.487,2.487,0,0,0-1.614-.07,4.21,4.21,0,0,0-1.448.87,21.959,21.959,0,0,0-4.189,4.937,19.037,19.037,0,0,0-1.862,3.976,6.563,6.563,0,0,1-.544,1.553c-.087-.013-.083-.6.117-1.661a15.251,15.251,0,0,1,1.592-4.271,20.937,20.937,0,0,1,4.2-5.315,5.087,5.087,0,0,1,1.805-1.126,3.558,3.558,0,0,1,2.318.057,4.895,4.895,0,0,1,1.035.518,8.1,8.1,0,0,1,.9.692,8.64,8.64,0,0,1,1.474,1.74,16.475,16.475,0,0,1,1.074,1.935l.435.961a4.287,4.287,0,0,1,.374,1.113,2.039,2.039,0,0,1-.213,1.331,2.79,2.79,0,0,1-.818.9,7.837,7.837,0,0,1-1.827.94,35.917,35.917,0,0,1-6.485,1.792c-1.875.348-3.4.526-4.454.635A4.427,4.427,0,0,1,642.69,318.55Z" transform="translate(-375.621 -194.497)" fill="#fafafa"/>
    <rect id="Rectangle_27261" data-name="Rectangle 27261" width="45.018" height="12.796" transform="translate(283.675 135.387) rotate(-179.55)" fill="#e0e0e0"/>
    <rect id="Rectangle_27262" data-name="Rectangle 27262" width="40.69" height="12.796" transform="translate(295.907 135.479) rotate(-179.55)" fill="#ebebeb"/>
    <path id="Path_35968" data-name="Path 35968" d="M673.968,331.819l-.283,12.853-4.745-.1.331-12.792Z" transform="translate(-390.454 -209.218)" fill="#fafafa"/>
    <path id="Path_35969" data-name="Path 35969" d="M595.616,331.274l-.461,12.74-5.215-.044.278-12.8Z" transform="translate(-345.815 -208.873)" fill="#fafafa"/>
    <rect id="Rectangle_27263" data-name="Rectangle 27263" width="13.988" height="17.659" transform="translate(298.864 173.206) rotate(-179.55)" fill="#ebebeb"/>
    <path id="Path_35970" data-name="Path 35970" d="M700.322,408.817l-.248,17.094-2.214-.013.474-17.1Z" transform="translate(-406.795 -252.738)" fill="#fafafa"/>
    <path id="Path_35971" data-name="Path 35971" d="M665.3,408.54l8.025.061,13.988.113-14,1.84L673.19,425.7l-8.02-.061Z" transform="translate(-388.324 -252.591)" fill="#e0e0e0"/>
    <path id="Path_35972" data-name="Path 35972" d="M672,408.6l-.317,17.1-2.384-.022.391-17.094Z" transform="translate(-390.657 -252.613)" fill="#fafafa"/>
    <path id="Path_35973" data-name="Path 35973" d="M681.74,389.742c0,.144-.935.361-2.51.435a9.759,9.759,0,0,1-2.823-.309,1.649,1.649,0,0,1-.922-.635,1.254,1.254,0,0,1-.2-.666,2.462,2.462,0,0,1,.061-.544,10.392,10.392,0,0,1,.531-1.74,4.555,4.555,0,0,1,.487-.87,2.758,2.758,0,0,1,.752-.744,1.539,1.539,0,0,1,1.2-.213,2.28,2.28,0,0,1,.87.487,7.859,7.859,0,0,1,1.831,2.175c.787,1.44.779,2.479.644,2.5s-.435-.87-1.305-2.062a8.663,8.663,0,0,0-1.8-1.792,1.279,1.279,0,0,0-.483-.257.461.461,0,0,0-.357.1,1.837,1.837,0,0,0-.435.457,3.654,3.654,0,0,0-.361.657,10.538,10.538,0,0,0-.487,1.535c-.065.244-.052.352-.031.378a.666.666,0,0,0,.344.222,9.083,9.083,0,0,0,1.3.326c.435.078.835.13,1.209.17C680.766,389.5,681.736,389.573,681.74,389.742Z" transform="translate(-394.042 -238.961)" fill="#e0e0e0"/>
    <path id="Path_35974" data-name="Path 35974" d="M689.389,389.022c-.026-.165,1.022-.435,2.671-.87a21.566,21.566,0,0,0,2.8-.953,3.07,3.07,0,0,0,.648-.352.521.521,0,0,0,.144-.161v-.1a4.815,4.815,0,0,0-.313-.722,7.508,7.508,0,0,0-.435-.787,3.478,3.478,0,0,0-.535-.635,2.062,2.062,0,0,0-.609-.4.83.83,0,0,0-.548-.035,1.6,1.6,0,0,0-.561.331,10.47,10.47,0,0,0-1.914,2.153c-.918,1.383-1.109,2.445-1.3,2.418-.07,0-.118-.291-.061-.792a6.224,6.224,0,0,1,.657-2.027,9.252,9.252,0,0,1,1.918-2.536,2.54,2.54,0,0,1,.922-.579,1.888,1.888,0,0,1,1.248.022,2.3,2.3,0,0,1,.539.265,3.767,3.767,0,0,1,.435.339,4.349,4.349,0,0,1,.726.87,7.749,7.749,0,0,1,.509.918c.07.152.135.3.2.435a2.321,2.321,0,0,1,.191.587,1.259,1.259,0,0,1-.13.8,1.59,1.59,0,0,1-.461.5,3.6,3.6,0,0,1-.9.435,15.265,15.265,0,0,1-3.023.77A7.122,7.122,0,0,1,689.389,389.022Z" transform="translate(-401.982 -238.092)" fill="#fafafa"/>
    <rect id="Rectangle_27264" data-name="Rectangle 27264" width="20.56" height="5.846" transform="translate(294.998 156.077) rotate(-179.55)" fill="#e0e0e0"/>
    <rect id="Rectangle_27265" data-name="Rectangle 27265" width="18.586" height="5.846" transform="translate(300.584 156.122) rotate(-179.55)" fill="#ebebeb"/>
    <path id="Path_35975" data-name="Path 35975" d="M703.737,395.407l-.131,5.868-2.166-.044.152-5.841Z" transform="translate(-408.818 -245.161)" fill="#fafafa"/>
    <path id="Path_35976" data-name="Path 35976" d="M667.942,395.148l-.209,5.82-2.383-.017.13-5.85Z" transform="translate(-388.425 -244.997)" fill="#fafafa"/>
    <rect id="Rectangle_27266" data-name="Rectangle 27266" width="25.088" height="31.669" transform="translate(43.809 173.233) rotate(-179.55)" fill="#ebebeb"/>
    <path id="Path_35977" data-name="Path 35977" d="M101.66,377.566l-.444,30.664-3.967-.03.853-30.66Z" transform="translate(-67.423 -235.074)" fill="#fafafa"/>
    <path id="Path_35978" data-name="Path 35978" d="M38.855,377.07l14.393.113,25.088.2-25.114,3.306-.213,27.163-14.388-.113Z" transform="translate(-34.295 -234.809)" fill="#e0e0e0"/>
    <path id="Path_35979" data-name="Path 35979" d="M50.881,377.17l-.57,30.66-4.271-.03.7-30.66Z" transform="translate(-38.487 -234.848)" fill="#fafafa"/>
    <path id="Path_35980" data-name="Path 35980" d="M68.2,343.209c0,.157-.435.317-1.187.474a21.432,21.432,0,0,1-5.654.3c-.435-.039-.87-.087-1.3-.165a11.214,11.214,0,0,1-1.435-.313,4.088,4.088,0,0,1-.848-.37,2.574,2.574,0,0,1-.87-.813,2.4,2.4,0,0,1-.37-1.248,4.071,4.071,0,0,1,.117-1,18.549,18.549,0,0,1,.953-3.132,8.468,8.468,0,0,1,.87-1.566,7.522,7.522,0,0,1,.6-.7,3.98,3.98,0,0,1,.787-.639A3.136,3.136,0,0,1,60.9,333.6a2.728,2.728,0,0,1,1.187.026,4.153,4.153,0,0,1,1.622.9A14.053,14.053,0,0,1,67,338.477a10.37,10.37,0,0,1,1.17,3.227c.126.8.061,1.261-.083,1.3-.335.083-.87-1.561-2.436-3.654a15.884,15.884,0,0,0-3.227-3.175,2.2,2.2,0,0,0-.822-.435.722.722,0,0,0-.557.157,2.375,2.375,0,0,0-.37.322c-.122.135-.257.3-.378.47a6.626,6.626,0,0,0-.635,1.153,20.088,20.088,0,0,0-.87,2.736,1.944,1.944,0,0,0-.083.461v.13a1.1,1.1,0,0,0,.561.357,11.4,11.4,0,0,0,1.153.339c.4.1.787.178,1.166.252.761.139,1.488.239,2.175.318,1.34.152,2.453.244,3.223.361S68.2,343.053,68.2,343.209Z" transform="translate(-44.415 -210.217)" fill="#e0e0e0"/>
    <path id="Path_35981" data-name="Path 35981" d="M82.071,341.779c-.057-.322,1.822-.844,4.785-1.657a38.171,38.171,0,0,0,4.989-1.74,5.014,5.014,0,0,0,1.131-.622.744.744,0,0,0,.231-.252V337.4a2.582,2.582,0,0,0-.2-.5l-.361-.753a12.916,12.916,0,0,0-.779-1.4,5.859,5.859,0,0,0-.939-1.118,4.461,4.461,0,0,0-.539-.435,2.366,2.366,0,0,0-.513-.274,1.387,1.387,0,0,0-.909-.065,2.767,2.767,0,0,0-.97.574,18.934,18.934,0,0,0-3.432,3.815c-1.657,2.453-2.031,4.349-2.375,4.3-.148,0-.252-.526-.157-1.431a11.087,11.087,0,0,1,1.148-3.667,16.528,16.528,0,0,1,3.436-4.584,4.75,4.75,0,0,1,1.692-1.066,3.554,3.554,0,0,1,2.318.039,4.535,4.535,0,0,1,.987.487,6.64,6.64,0,0,1,.818.622,7.676,7.676,0,0,1,1.3,1.544,14.224,14.224,0,0,1,.922,1.666l.365.8a4.212,4.212,0,0,1,.352,1.083,2.327,2.327,0,0,1-.252,1.5,2.9,2.9,0,0,1-.87.944,6.828,6.828,0,0,1-1.653.831,26.686,26.686,0,0,1-5.441,1.357,27.915,27.915,0,0,1-3.71.318C82.593,342.01,82.093,341.936,82.071,341.779Z" transform="translate(-58.804 -208.561)" fill="#fafafa"/>
    <rect id="Rectangle_27267" data-name="Rectangle 27267" width="36.876" height="10.482" transform="translate(36.874 142.516) rotate(-179.55)" fill="#e0e0e0"/>
    <rect id="Rectangle_27268" data-name="Rectangle 27268" width="33.335" height="10.482" transform="translate(46.888 142.592) rotate(-179.55)" fill="#ebebeb"/>
    <path id="Path_35982" data-name="Path 35982" d="M107.789,353.51l-.231,10.53-3.889-.083.27-10.478Z" transform="translate(-71.051 -221.48)" fill="#fafafa"/>
    <path id="Path_35983" data-name="Path 35983" d="M43.6,353.063,43.226,363.5l-4.276-.035.231-10.487Z" transform="translate(-34.481 -221.197)" fill="#fafafa"/>
    <g id="Group_15154" data-name="Group 15154" transform="translate(38.978)">
      <path id="Path_35984" data-name="Path 35984" d="M126.776,68.218l.435,1.657-6.633,1.705-.339-1.3,2.566-4.067a2.237,2.237,0,0,0,.5-1.853c-.178-.692-.757-.97-1.683-.731a2.205,2.205,0,0,0-1.592,1.344l-1.74-.574a4.242,4.242,0,0,1,3.045-2.527c1.957-.5,3.519.17,3.915,1.74a3.591,3.591,0,0,1-.757,3.149l-1.527,2.423Z" transform="translate(-118.29 -56.614)" fill="#efeaf1"/>
      <path id="Path_35985" data-name="Path 35985" d="M137.77,62.6c-.744-2.9.435-4.954,2.61-5.507s4.184.674,4.928,3.571-.435,4.95-2.61,5.507S138.514,65.5,137.77,62.6Zm5.48-1.409c-.513-2-1.427-2.64-2.444-2.379s-1.492,1.266-.979,3.258,1.427,2.64,2.431,2.384S143.764,63.182,143.251,61.19Z" transform="translate(-129.171 -53.935)" fill="#efeaf1"/>
      <path id="Path_35986" data-name="Path 35986" d="M156.364,54.4c-.37-1.431.191-2.61,1.37-2.892s2.223.435,2.61,1.875-.2,2.61-1.37,2.892A2.195,2.195,0,0,1,156.364,54.4Zm3.336-.87c-.3-1.144-1.009-1.683-1.822-1.47s-1.179,1.035-.87,2.175.992,1.683,1.822,1.47,1.161-1.022.87-2.162Zm3.367-3.34.739-.187-3.749,10.33-.739.191Zm-.261,6.959c-.365-1.431.2-2.61,1.37-2.892a2.193,2.193,0,0,1,2.61,1.875c.383,1.44-.191,2.61-1.37,2.888a2.185,2.185,0,0,1-2.61-1.862Zm3.336-.87c-.291-1.131-.992-1.683-1.822-1.47s-1.179,1.022-.87,2.175,1.009,1.679,1.822,1.47,1.161-1.026.874-2.153Z" transform="translate(-139.739 -50)" fill="#efeaf1"/>
    </g>
    <path id="Path_35987" data-name="Path 35987" d="M316.285,130.3c.035,1.8-1.3,3.48-4.35,3.514a7.29,7.29,0,0,1-4.076-1.07l.922-1.9a5.22,5.22,0,0,0,3.045.9c1.231-.022,1.983-.535,1.97-1.4,0-.8-.618-1.3-2.014-1.27h-1.127l-.026-1.627,2.144-2.514-4.532.078-.03-1.979,7.446-.126.031,1.6-2.344,2.792A3.022,3.022,0,0,1,316.285,130.3Z" transform="translate(-186.427 -91.197)" fill="#efeaf1"/>
    <path id="Path_35988" data-name="Path 35988" d="M329.768,127.864c-.061-3.532,1.84-5.537,4.45-5.585s4.593,1.914,4.654,5.424-1.836,5.541-4.463,5.585S329.829,131.374,329.768,127.864Zm6.646-.117c-.044-2.414-.913-3.406-2.144-3.384s-2.049,1.04-2.005,3.48.909,3.406,2.123,3.384S336.453,130.165,336.414,127.746Z" transform="translate(-198.806 -90.84)" fill="#efeaf1"/>
    <path id="Path_35989" data-name="Path 35989" d="M353.509,125.086c-.03-1.74.922-2.906,2.353-2.932s2.423,1.1,2.453,2.849-.939,2.906-2.353,2.927S353.539,126.818,353.509,125.086Zm4.045-.07c-.026-1.383-.692-2.175-1.679-2.175s-1.631.87-1.605,2.236.674,2.175,1.679,2.175S357.576,126.417,357.554,125.017Zm4.754-2.9h.9l-7.081,10.765h-.9Zm-2.175,7.868c-.026-1.74.94-2.905,2.353-2.927s2.423,1.113,2.453,2.845-.922,2.906-2.353,2.932-2.44-1.113-2.471-2.849Zm4.045-.07c-.022-1.366-.674-2.175-1.679-2.175s-1.627.848-1.605,2.231.692,2.175,1.679,2.175,1.614-.861,1.588-2.231Z" transform="translate(-212.221 -90.751)" fill="#efeaf1"/>
    <g id="Group_15152" data-name="Group 15152" transform="translate(174.954 0.183)">
      <path id="Path_35990" data-name="Path 35990" d="M437.291,56.47c-.209,1.357-1.388,2.388-3.58,2.053a5.363,5.363,0,0,1-2.8-1.266L431.819,56a3.732,3.732,0,0,0,2.075,1.022c.892.135,1.5-.152,1.592-.779s-.244-1.057-1.635-1.27l-1.962-.3,1.053-4.258,4.68.713L437.4,52.56l-3.2-.487-.344,1.435.626.1C436.756,53.952,437.5,55.109,437.291,56.47Z" transform="translate(-430.91 -50.42)" fill="#efeaf1"/>
      <path id="Path_35991" data-name="Path 35991" d="M447.645,56.739c.387-2.536,2.009-3.758,3.915-3.48s3.071,1.936,2.684,4.471-2,3.754-3.915,3.48S447.262,59.271,447.645,56.739Zm4.785.731c.265-1.74-.239-2.562-1.127-2.7s-1.6.5-1.866,2.24.235,2.558,1.114,2.692,1.622-.492,1.888-2.231Z" transform="translate(-440.325 -52.003)" fill="#efeaf1"/>
      <path id="Path_35992" data-name="Path 35992" d="M465.523,57.381c.191-1.248,1.022-1.975,2.053-1.818a1.845,1.845,0,0,1,1.414,2.349c-.191,1.261-1.031,1.975-2.053,1.818A1.854,1.854,0,0,1,465.523,57.381Zm6.711-1.053.648.1L466.449,63.3l-.648-.1Zm-3.771,1.5c.152-1-.23-1.662-.944-1.77s-1.274.435-1.427,1.409.217,1.657.944,1.77,1.253-.413,1.4-1.409Zm1.231,3.889c.191-1.248,1.031-1.975,2.053-1.818a1.856,1.856,0,0,1,1.414,2.349c-.191,1.248-1.022,1.975-2.053,1.818a1.86,1.86,0,0,1-1.435-2.349Zm2.918.435c.148-.987-.217-1.662-.944-1.77s-1.274.409-1.427,1.4.231,1.666.944,1.775,1.253-.426,1.4-1.4Z" transform="translate(-450.447 -53.314)" fill="#efeaf1"/>
    </g>
    <g id="Group_15153" data-name="Group 15153" transform="translate(3.564 42.465)">
      <path id="Path_35993" data-name="Path 35993" d="M40.076,148.309l-1.592,6.8-1.557-.357,1.3-5.537L36.87,148.9l.3-1.266Z" transform="translate(-36.87 -147.63)" fill="#efeaf1"/>
      <path id="Path_35994" data-name="Path 35994" d="M44.949,153.857c.522-2.244,2.066-3.227,3.736-2.836s2.61,1.957,2.088,4.2-2.053,3.227-3.736,2.836S44.423,156.1,44.949,153.857Zm4.245.992c.361-1.544-.035-2.314-.822-2.5s-1.47.331-1.831,1.875.03,2.314.809,2.5S48.829,156.393,49.194,154.849Z" transform="translate(-41.352 -149.499)" fill="#efeaf1"/>
      <path id="Path_35995" data-name="Path 35995" d="M67.093,155.068l.574.135-6.237,5.711-.57-.135ZM61,155.542c.261-1.109,1.057-1.7,1.97-1.488a1.657,1.657,0,0,1,1.1,2.205c-.261,1.118-1.061,1.7-1.966,1.488a1.666,1.666,0,0,1-1.092-2.205Zm2.584.6c.209-.87-.087-1.5-.718-1.653s-1.174.287-1.379,1.161.078,1.5.722,1.653,1.183-.257,1.388-1.161Zm.835,3.575a1.374,1.374,0,1,0,.013,0Zm2.588.6c.2-.87-.078-1.5-.718-1.653s-1.174.278-1.379,1.161.087,1.5.718,1.653S66.815,161.2,67.01,160.326Z" transform="translate(-50.426 -151.236)" fill="#efeaf1"/>
    </g>
  </g>
  <g id="freepik--Plant--inject-4" transform="translate(8.251 52.43)">
    <path id="Path_35996" data-name="Path 35996" d="M100.059,298.925a31.346,31.346,0,0,0-29.9-8.2,54.478,54.478,0,0,0,30.251,9.452" transform="translate(-59.999 -237.888)" fill="#00ae9f"/>
    <path id="Path_35997" data-name="Path 35997" d="M104.171,195.667A30.346,30.346,0,0,0,95.4,170.54c-.217,8.734,3.48,18.56,8.773,25.127" transform="translate(-74.255 -170.54)" fill="#00ae9f"/>
    <path id="Path_35998" data-name="Path 35998" d="M99.622,239.747A47.045,47.045,0,0,0,78,219.1a29.694,29.694,0,0,0,21.687,20.743" transform="translate(-64.429 -197.979)" fill="#00ae9f"/>
    <path id="Path_35999" data-name="Path 35999" d="M92.108,261.716a55.882,55.882,0,0,1-15.854-1.4A26.14,26.14,0,0,1,62.77,252.26a53,53,0,0,1,29.242,8.921" transform="translate(-55.824 -216.715)" fill="#00ae9f"/>
    <path id="Path_36000" data-name="Path 36000" d="M124,220.02c2.7-10.126,7.159-17.129,15.115-22.8A21.052,21.052,0,0,1,124,220.02" transform="translate(-90.421 -185.615)" fill="#00ae9f"/>
    <path id="Path_36001" data-name="Path 36001" d="M158.364,271.749a14.98,14.98,0,0,0-9.1-13.879c.435,5.219,4.55,11.274,9.1,13.879" transform="translate(-104.694 -219.885)" fill="#00ae9f"/>
    <path id="Path_36002" data-name="Path 36002" d="M176,245.407a22.328,22.328,0,0,1,14.628-19.047c-1.822,8.46-6.711,15.5-14.628,19.047" transform="translate(-119.804 -202.081)" fill="#00ae9f"/>
    <path id="Path_36003" data-name="Path 36003" d="M167.23,297a14.108,14.108,0,0,1,8.108-5.185,41.644,41.644,0,0,1,9.756-.97,22.8,22.8,0,0,1-17.616,7.338" transform="translate(-114.848 -238.52)" fill="#00ae9f"/>
    <path id="Path_36004" data-name="Path 36004" d="M158.48,353.141A24.993,24.993,0,0,1,188.992,367.6a65.2,65.2,0,0,1-30.512-14.454" transform="translate(-109.904 -273.088)" fill="#00ae9f"/>
    <path id="Path_36005" data-name="Path 36005" d="M126.1,337.35c1.84,5.441,1.488,12.022-2.61,16.711a19.956,19.956,0,0,1,2.61-16.711" transform="translate(-89.686 -264.795)" fill="#00ae9f"/>
    <path id="Path_36006" data-name="Path 36006" d="M97.354,330.4a20.486,20.486,0,0,1-11.309,16.615,1.27,1.27,0,0,1-1,.161c-.5-.2-.544-.87-.483-1.418.8-6.959,5.968-13.714,12.792-15.358" transform="translate(-68.125 -260.868)" fill="#00ae9f"/>
    <path id="Path_36007" data-name="Path 36007" d="M71.327,327.772A16.793,16.793,0,0,1,46.8,327.9c7.794-.87,16.794-1.422,24.527-.126" transform="translate(-46.8 -258.949)" fill="#00ae9f"/>
    <path id="Path_36008" data-name="Path 36008" d="M100.51,185.47a1.42,1.42,0,0,0,.07.231c.061.161.139.378.239.657.222.592.535,1.44.939,2.527s.9,2.436,1.466,4l.9,2.5c.309.87.635,1.835.974,2.823,1.383,3.949,2.914,8.7,4.571,13.962s3.336,11.122,5.015,17.276,3.127,12.066,4.376,17.455,2.262,10.265,3.014,14.38q.291,1.54.552,2.932c.161.926.309,1.805.435,2.61.283,1.635.522,3.045.687,4.206s.313,2.04.409,2.662c.048.291.087.522.113.692a1.463,1.463,0,0,0,.048.235,1.41,1.41,0,0,0,0-.239c-.022-.17-.048-.4-.087-.7-.083-.626-.2-1.522-.352-2.671s-.37-2.575-.635-4.215c-.135-.822-.274-1.7-.435-2.632s-.344-1.905-.531-2.936c-.731-4.123-1.74-9-2.953-14.4s-2.7-11.309-4.35-17.472-3.4-12-5.041-17.281-3.223-10-4.632-13.949q-.522-1.479-1-2.814l-.922-2.5c-.578-1.561-1.079-2.9-1.514-3.989s-.761-1.918-.992-2.505l-.265-.648A1.706,1.706,0,0,0,100.51,185.47Z" transform="translate(-77.149 -178.976)" fill="#263238"/>
    <path id="Path_36009" data-name="Path 36009" d="M171.262,236.75a.839.839,0,0,0-.135.126l-.374.391c-.326.348-.8.87-1.383,1.548a54.434,54.434,0,0,0-4.593,6.124,40.935,40.935,0,0,0-4.785,10.269,97.2,97.2,0,0,0-2.879,13.588c-1.588,9.721-3.532,18.429-4.941,24.727-.709,3.136-1.3,5.676-1.688,7.459-.191.87-.344,1.544-.435,2.027-.048.222-.083.4-.113.531a.945.945,0,0,0-.026.183.867.867,0,0,0,.057-.178c.035-.131.083-.3.139-.522.122-.478.287-1.153.5-2.014.435-1.775,1.031-4.31,1.779-7.438,1.461-6.285,3.44-14.993,5.028-24.727a103.046,103.046,0,0,1,2.849-13.558,41.575,41.575,0,0,1,4.715-10.235,58.226,58.226,0,0,1,4.5-6.159c.574-.7,1.031-1.227,1.344-1.588.144-.17.261-.3.348-.413A.993.993,0,0,0,171.262,236.75Z" transform="translate(-105.062 -207.952)" fill="#263238"/>
    <path id="Path_36010" data-name="Path 36010" d="M97.84,327.988a.939.939,0,0,0,.278.052l.809.087.583.061.687.1c.5.074,1.061.148,1.675.283l.97.2,1.035.261c.722.161,1.466.435,2.262.665a33.2,33.2,0,0,1,4.937,2.175,27.69,27.69,0,0,1,4.428,3.079,21.89,21.89,0,0,1,1.7,1.631,17.12,17.12,0,0,1,1.344,1.553,15.6,15.6,0,0,1,1,1.37,10.923,10.923,0,0,1,.683,1.1l.413.7a1.09,1.09,0,0,0,.161.235.961.961,0,0,0-.109-.265l-.365-.726a8.717,8.717,0,0,0-.644-1.118,15,15,0,0,0-.966-1.409,17.682,17.682,0,0,0-1.331-1.592,21.407,21.407,0,0,0-1.7-1.666,26.587,26.587,0,0,0-4.463-3.127,31.8,31.8,0,0,0-4.993-2.175c-.8-.235-1.557-.491-2.288-.644l-1.048-.248-.979-.174c-.622-.126-1.192-.183-1.692-.244l-.7-.078-.587-.03-.813-.052A1.085,1.085,0,0,0,97.84,327.988Z" transform="translate(-75.64 -259.5)" fill="#263238"/>
    <path id="Path_36011" data-name="Path 36011" d="M92.73,237.17a3.8,3.8,0,0,0,.552.544l1.6,1.392c1.366,1.166,3.262,2.758,5.367,4.506s4.028,3.319,5.424,4.441l1.666,1.3a3.581,3.581,0,0,0,.635.435,3.8,3.8,0,0,0-.561-.544l-1.6-1.392c-1.366-1.166-3.262-2.758-5.367-4.506s-4.023-3.314-5.42-4.437l-1.666-1.3a4.306,4.306,0,0,0-.631-.439Z" transform="translate(-72.753 -208.189)" fill="#263238"/>
    <path id="Path_36012" data-name="Path 36012" d="M88.32,260.885c0,.078,4.071,1.357,9.134,2.858s9.208,2.649,9.23,2.571-4.071-1.361-9.134-2.858S88.346,260.807,88.32,260.885Z" transform="translate(-70.261 -221.587)" fill="#263238"/>
    <path id="Path_36013" data-name="Path 36013" d="M123.08,232.515a3.675,3.675,0,0,0,.435-.587l1.079-1.644c.913-1.388,2.214-3.275,3.754-5.289s3.019-3.762,4.11-5.011c.513-.592.948-1.087,1.3-1.479a3.751,3.751,0,0,0,.435-.565,2.868,2.868,0,0,0-.539.483c-.331.326-.8.809-1.37,1.418-1.131,1.218-2.645,2.958-4.189,4.976s-2.819,3.936-3.693,5.35c-.435.709-.779,1.3-1,1.7A3.078,3.078,0,0,0,123.08,232.515Z" transform="translate(-89.902 -197.323)" fill="#263238"/>
    <path id="Path_36014" data-name="Path 36014" d="M155.76,264.61a14.145,14.145,0,0,0,.961,1.579c.613.961,1.444,2.3,2.3,3.806s1.583,2.91,2.1,3.915a13.928,13.928,0,0,0,.87,1.631,9.666,9.666,0,0,0-.679-1.74c-.465-1.044-1.166-2.462-2.027-3.984s-1.74-2.84-2.384-3.775A9.57,9.57,0,0,0,155.76,264.61Z" transform="translate(-108.367 -223.694)" fill="#263238"/>
    <path id="Path_36015" data-name="Path 36015" d="M167,298.99c.022.039.8-.344,2.079-.918s3.045-1.3,5.08-2.036,3.884-1.231,5.241-1.575a18.967,18.967,0,0,0,2.175-.583,2.342,2.342,0,0,0-.609.065c-.391.057-.948.161-1.635.309a44.816,44.816,0,0,0-5.293,1.5,45.515,45.515,0,0,0-5.072,2.123c-.631.313-1.131.579-1.475.779A2.5,2.5,0,0,0,167,298.99Z" transform="translate(-114.718 -240.232)" fill="#263238"/>
    <path id="Path_36016" data-name="Path 36016" d="M158.14,354.67a1,1,0,0,0,.252.083l.739.187,2.723.631a89.585,89.585,0,0,1,8.891,2.349,39.369,39.369,0,0,1,8.3,3.915c.992.631,1.766,1.187,2.288,1.592a8.489,8.489,0,0,0,.822.609,1.99,1.99,0,0,0-.183-.2c-.126-.122-.313-.3-.57-.5a23.955,23.955,0,0,0-2.244-1.679,36.372,36.372,0,0,0-8.312-4,73.517,73.517,0,0,0-8.947-2.27l-2.745-.57A6.876,6.876,0,0,0,158.14,354.67Z" transform="translate(-109.712 -274.582)" fill="#263238"/>
    <path id="Path_36017" data-name="Path 36017" d="M126.294,350.03c.078,0,.565-2.858,1.087-6.411s.87-6.446.792-6.459-.565,2.862-1.087,6.416S126.212,350.022,126.294,350.03Z" transform="translate(-91.711 -264.688)" fill="#263238"/>
    <path id="Path_36018" data-name="Path 36018" d="M93.16,341.04a15.418,15.418,0,0,0,1.3-1.544c.779-.97,1.857-2.305,3.079-3.758s2.349-2.749,3.171-3.684a14.433,14.433,0,0,0,1.3-1.544,2.078,2.078,0,0,0-.435.352c-.252.244-.6.6-1.04,1.053-.87.9-2.018,2.175-3.245,3.632s-2.279,2.814-3.019,3.819c-.37.5-.661.918-.87,1.2a1.861,1.861,0,0,0-.252.47Z" transform="translate(-72.995 -260.93)" fill="#263238"/>
    <path id="Path_36019" data-name="Path 36019" d="M141.044,385.46v7.125h-1.783l-6.329,19.986H118.888l-6.133-19.791-2.375-.2V385.46Z" transform="translate(-82.726 -291.979)" fill="#455a64"/>
    <path id="Path_36020" data-name="Path 36020" d="M113.11,402.1c0,.083,6.2.152,13.845.152s13.849-.07,13.849-.152-6.2-.148-13.849-.148S113.11,402.015,113.11,402.1Z" transform="translate(-84.268 -301.297)" fill="#263238"/>
    <path id="Path_36021" data-name="Path 36021" d="M89.89,296.94a5.6,5.6,0,0,0,.9.244l2.462.6c2.079.513,4.932,1.3,8.025,2.331s5.841,2.144,7.829,2.992l2.323,1.013a5.953,5.953,0,0,0,.87.352,5.251,5.251,0,0,0-.813-.457c-.531-.278-1.3-.657-2.288-1.1a80.943,80.943,0,0,0-15.867-5.337c-1.044-.23-1.9-.4-2.488-.5A5.808,5.808,0,0,0,89.89,296.94Z" transform="translate(-71.148 -241.962)" fill="#263238"/>
    <path id="Path_36022" data-name="Path 36022" d="M123.83,427.618c0,.083,4.35.148,9.713.148s9.717-.065,9.717-.148-4.35-.148-9.717-.148S123.83,427.535,123.83,427.618Z" transform="translate(-90.325 -315.717)" fill="#fafafa"/>
    <path id="Path_36023" data-name="Path 36023" d="M122.57,423.808c0,.083,4.611.148,10.3.148s10.3-.065,10.3-.148-4.611-.148-10.3-.148S122.57,423.73,122.57,423.808Z" transform="translate(-89.613 -313.564)" fill="#fafafa"/>
  </g>
  <g id="freepik--Label--inject-4" transform="translate(132.092 24.253)">
    <path id="Path_36024" data-name="Path 36024" d="M446.595,273.2l-29-32.578a12.283,12.283,0,0,0-9.082-4.115l-95.468-.692a12.274,12.274,0,0,0-12.366,12.3l.161,67.6a12.274,12.274,0,0,0,12.327,12.248l95.138-.4a12.27,12.27,0,0,0,9.256-4.249L446.734,289.4A12.283,12.283,0,0,0,446.595,273.2Zm-16.137,11.744a18.547,18.547,0,1,1,0-.017Z" transform="translate(-300.68 -179.249)" fill="#ed278d"/>
    <g id="Group_12358" data-name="Group 12358" transform="translate(0 56.57)" opacity="0.4">
      <path id="Path_36025" data-name="Path 36025" d="M446.595,273.2l-29-32.578a12.283,12.283,0,0,0-9.082-4.115l-95.468-.692a12.274,12.274,0,0,0-12.366,12.3l.161,67.6a12.274,12.274,0,0,0,12.327,12.248l95.138-.4a12.27,12.27,0,0,0,9.256-4.249L446.734,289.4A12.283,12.283,0,0,0,446.595,273.2Zm-16.137,11.744a18.547,18.547,0,1,1,0-.017Z" transform="translate(-300.68 -235.819)"/>
    </g>
    <path id="Path_36026" data-name="Path 36026" d="M458.128,273.2l-29.012-32.578a12.292,12.292,0,0,0-9.082-4.115l-95.468-.692a12.27,12.27,0,0,0-12.366,12.3l.157,67.6a12.279,12.279,0,0,0,12.37,12.248l95.134-.4a12.278,12.278,0,0,0,9.256-4.249L458.284,289.4A12.279,12.279,0,0,0,458.128,273.2ZM442,284.948a18.393,18.393,0,1,1,0-.017Z" transform="translate(-307.189 -179.249)" fill="#ed278d"/>
    <path id="Path_36027" data-name="Path 36027" d="M385.239,299.3c.074-8.195,5.124-13.357,12.2-13.288s11.966,5.25,11.892,13.51-5.063,13.357-12.14,13.292S385.161,307.492,385.239,299.3Zm17.15.161c.048-5.219-1.94-7.729-5-7.755-2.984-.03-5.093,2.518-5.141,7.66s2.014,7.725,5,7.755C400.306,307.144,402.341,304.664,402.389,299.458Zm24.005-12.614,8.264.078L401.015,335.2l-8.264-.078Zm-8.316,35.7c.078-8.195,5.124-13.357,12.14-13.292,7.081.07,12.031,5.324,11.957,13.514s-5.124,13.336-12.209,13.262C422.976,335.968,418,330.714,418.078,322.541Zm17.081.157c.048-5.137-1.94-7.725-5-7.751-2.984-.03-5.089,2.449-5.137,7.66s2.01,7.725,4.993,7.755c3.058.009,5.093-2.544,5.137-7.686Z" transform="translate(-348.459 -207.608)" fill="#fff"/>
    <path id="Path_36028" data-name="Path 36028" d="M609,355.511a4.43,4.43,0,0,1,.953.683c.6.474,1.466,1.187,2.566,2.131s2.44,2.11,3.945,3.514,3.192,3.045,4.937,4.989a50.559,50.559,0,0,1,5.189,6.772l.618.987.583,1.031a22.6,22.6,0,0,1,1.1,2.175,13.611,13.611,0,0,1,1.244,5.019,7.928,7.928,0,0,1-.4,2.736,7.052,7.052,0,0,1-1.435,2.466,9.256,9.256,0,0,1-4.976,2.845,13.535,13.535,0,0,1-5.876-.139,25.7,25.7,0,0,1-5.581-2.057,34.873,34.873,0,0,1-9.356-6.959,45,45,0,0,1-3.615-4.2q-1.635-2.144-3.114-4.267a81.33,81.33,0,0,1-8.873-15.954c-.478-1.214-.892-2.379-1.248-3.5-.174-.561-.339-1.109-.474-1.653a10.267,10.267,0,0,1-.318-1.6,3.98,3.98,0,0,1,.718-2.919,4.244,4.244,0,0,1,2.062-1.435,5.779,5.779,0,0,1,1.035-.239,5.655,5.655,0,0,1,.931-.022,4.377,4.377,0,0,1,1.418.309,2.88,2.88,0,0,1,.757.465c.148.135.213.209.2.226s-.1-.03-.27-.131a3.353,3.353,0,0,0-.766-.344,4.48,4.48,0,0,0-1.348-.191,6.26,6.26,0,0,0-.87.07,5.66,5.66,0,0,0-.944.27,3.831,3.831,0,0,0-1.774,1.34,3.405,3.405,0,0,0-.522,2.523,9.534,9.534,0,0,0,.339,1.509c.144.522.322,1.053.5,1.6q.57,1.644,1.3,3.427a83.864,83.864,0,0,0,8.982,15.658q1.479,2.088,3.119,4.206a44.469,44.469,0,0,0,3.554,4.089,34.231,34.231,0,0,0,9.065,6.733,24.906,24.906,0,0,0,5.35,1.975,12.513,12.513,0,0,0,5.393.152,8.234,8.234,0,0,0,4.4-2.479,6.394,6.394,0,0,0,1.6-4.463,12.671,12.671,0,0,0-1.148-4.658,22.015,22.015,0,0,0-1.04-2.105l-.544-1-.591-.983a51.237,51.237,0,0,0-5-6.737c-1.679-1.949-3.31-3.619-4.784-5.063s-2.749-2.653-3.806-3.641l-2.4-2.279A4.785,4.785,0,0,1,609,355.511Z" transform="translate(-461.239 -241.448)" fill="#263238"/>
    <path id="Path_36029" data-name="Path 36029" d="M529.446,163.354c-.061,0-1.279-8.5-2.723-19.012s-2.562-19.034-2.5-19.042,1.279,8.5,2.723,19.012S529.511,163.346,529.446,163.354Z" transform="translate(-426.992 -116.801)" fill="#263238"/>
    <path id="Path_36030" data-name="Path 36030" d="M594.909,105.76a.547.547,0,0,1-.039.13l-.139.378-.552,1.448-2.07,5.315c-1.74,4.489-4.123,10.7-6.655,17.6s-4.728,13.179-6.294,17.733c-.779,2.266-1.409,4.106-1.849,5.4-.217.622-.387,1.113-.509,1.466-.057.157-.1.278-.139.378a.645.645,0,0,1-.052.126.455.455,0,0,1,.03-.135l.118-.387c.109-.352.265-.87.465-1.479.409-1.283,1.018-3.136,1.783-5.42,1.531-4.567,3.706-10.874,6.237-17.759s4.928-13.11,6.711-17.585c.87-2.236,1.627-4.045,2.144-5.289l.6-1.431c.065-.152.122-.274.161-.37Z" transform="translate(-456.593 -105.76)" fill="#263238"/>
    <path id="Path_36031" data-name="Path 36031" d="M641.433,182.719c.039.048-6.185,4.924-13.919,10.874S613.509,204.354,613.47,204.3s6.189-4.924,13.919-10.874S641.4,182.667,641.433,182.719Z" transform="translate(-477.42 -149.245)" fill="#263238"/>
    <path id="Path_36032" data-name="Path 36032" d="M487.755,198.454c-.052.039-2.457-3.045-5.376-6.855s-5.25-6.959-5.219-6.99,2.457,3.045,5.376,6.855S487.8,198.415,487.755,198.454Z" transform="translate(-400.399 -150.313)" fill="#263238"/>
    <path id="Path_36033" data-name="Path 36033" d="M648.946,265.127c0,.061-3.832-1-8.521-2.366s-8.473-2.523-8.456-2.584,3.832,1,8.521,2.366S648.968,265.066,648.946,265.127Z" transform="translate(-487.873 -193.011)" fill="#263238"/>
    <path id="Path_36034" data-name="Path 36034" d="M544.99,265.364l2.827-1.627,1.5-2.9,1.631,2.827,2.9,1.5-2.827,1.627-1.505,2.9-1.627-2.827Z" transform="translate(-438.726 -193.387)" fill="#fff"/>
    <path id="Path_36035" data-name="Path 36035" d="M509.85,258.863l.992-.57.526-1.013.57.987,1.013.526-.992.57-.526,1.013-.57-.987Z" transform="translate(-418.87 -191.375)" fill="#fff"/>
    <path id="Path_36036" data-name="Path 36036" d="M532.29,302.872l1.914-1.1,1.018-1.962,1.1,1.914,1.962,1.018-1.914,1.1-1.018,1.962-1.1-1.914Z" transform="translate(-431.55 -215.407)" fill="#fff"/>
  </g>
  <g id="freepik--Floor--inject-4" transform="translate(0 172.908)">
    <path id="Path_36037" data-name="Path 36037" d="M327.506,447.643c0,.061-67.092.113-149.833.113S27.83,447.7,27.83,447.643s67.074-.113,149.842-.113S327.506,447.578,327.506,447.643Z" transform="translate(-27.83 -447.53)" fill="#263238"/>
  </g>
  <g id="freepik--Character--inject-4" transform="translate(48.612 55.184)">
    <path id="Path_36038" data-name="Path 36038" d="M203.277,430.06s-18.142,5.028-18.894,5.285c-1.092.383-.909,4.393.8,4.35.8-.03,13.949.487,15.611.383s6.133-1.866,6.133-1.866Z" transform="translate(-164.516 -319.934)" fill="#455a64"/>
    <path id="Path_36039" data-name="Path 36039" d="M208.6,441.291a15.9,15.9,0,0,0-.8-1.949c-.587-1-1.34-1.6-1.283-1.67a3.1,3.1,0,0,1,1.548,1.518A3.3,3.3,0,0,1,208.6,441.291Z" transform="translate(-177.406 -324.232)" fill="#263238"/>
    <path id="Path_36040" data-name="Path 36040" d="M213.392,439.491c-.091,0-.274-.844-.757-1.792s-1.057-1.614-.992-1.674a3.316,3.316,0,0,1,1.261,1.54A3.527,3.527,0,0,1,213.392,439.491Z" transform="translate(-180.302 -323.302)" fill="#263238"/>
    <path id="Path_36041" data-name="Path 36041" d="M217.891,438.222a11.928,11.928,0,0,0-.435-1.922,17.048,17.048,0,0,0-.992-1.7,2.6,2.6,0,0,1,1.274,1.588A2.984,2.984,0,0,1,217.891,438.222Z" transform="translate(-183.026 -322.499)" fill="#263238"/>
    <path id="Path_36042" data-name="Path 36042" d="M218.737,432.05a3.279,3.279,0,0,1-.2-1.348,6.524,6.524,0,0,1,.2-1.492,5.724,5.724,0,0,1,.27-.844,1,1,0,0,1,.291-.435.483.483,0,0,1,.622.03.818.818,0,0,1,.244.513,3.576,3.576,0,0,1,0,.478,3.911,3.911,0,0,1-.113.87,5.448,5.448,0,0,1-.557,1.387,3.685,3.685,0,0,1-.818,1.092c-.039-.026.265-.435.626-1.192a5.862,5.862,0,0,0,.474-1.348,3.986,3.986,0,0,0,.091-.831c0-.278,0-.626-.17-.761a.174.174,0,0,0-.239-.022.753.753,0,0,0-.2.318,6.238,6.238,0,0,0-.274.8,7.094,7.094,0,0,0-.239,1.418C218.706,431.528,218.789,432.046,218.737,432.05Z" transform="translate(-184.199 -318.676)" fill="#263238"/>
    <path id="Path_36043" data-name="Path 36043" d="M219.06,436.853a2.562,2.562,0,0,1,1.174-.191,5.243,5.243,0,0,1,1.3.161,2.685,2.685,0,0,1,.744.274.761.761,0,0,1,.409.826.909.909,0,0,1-.657.648,1.657,1.657,0,0,1-.813,0,3.875,3.875,0,0,1-2.023-1.414,8.192,8.192,0,0,1,.966.657,3.231,3.231,0,0,0,1.113.483,1.413,1.413,0,0,0,.674,0,.622.622,0,0,0,.435-.435.465.465,0,0,0-.27-.5,2.643,2.643,0,0,0-.661-.257,5.931,5.931,0,0,0-1.222-.213C219.512,436.826,219.069,436.9,219.06,436.853Z" transform="translate(-184.496 -323.661)" fill="#263238"/>
    <path id="Path_36044" data-name="Path 36044" d="M203.293,442.458a9.806,9.806,0,0,0-.361-1.635c-.361-.848-.944-1.353-.87-1.422s.787.357,1.17,1.3A2.1,2.1,0,0,1,203.293,442.458Z" transform="translate(-174.887 -325.208)" fill="#263238"/>
    <path id="Path_36045" data-name="Path 36045" d="M208.675,448.364a4.309,4.309,0,0,1-.7.331,15.97,15.97,0,0,1-2.023.626,28.648,28.648,0,0,1-6.933.657c-2.723-.03-5.176-.152-6.959-.226l-2.105-.109a3.867,3.867,0,0,1-.77-.083,3.522,3.522,0,0,1,.792-.052h2.11l6.959.135a32.393,32.393,0,0,0,6.885-.561C207.657,448.755,208.675,448.307,208.675,448.364Z" transform="translate(-167.612 -330.274)" fill="#263238"/>
    <path id="Path_36046" data-name="Path 36046" d="M223.817,447.331a14.653,14.653,0,0,1-1.361-.618,6.368,6.368,0,0,0-3.436-.57,5.448,5.448,0,0,0-2.971,1.766A10.162,10.162,0,0,1,215,448.98a5.692,5.692,0,0,1,.892-1.214,7.132,7.132,0,0,1,1.2-1.127,4.314,4.314,0,0,1,1.875-.8,6.011,6.011,0,0,1,3.575.679A4.809,4.809,0,0,1,223.817,447.331Z" transform="translate(-182.202 -328.829)" fill="#263238"/>
    <path id="Path_36047" data-name="Path 36047" d="M192.3,445.292a6.525,6.525,0,0,1,.265-.687,3.345,3.345,0,0,0-.6-3.253c-.287-.348-.518-.513-.5-.548s.287.1.622.435a3.1,3.1,0,0,1,.635,3.436C192.529,445.1,192.321,445.309,192.3,445.292Z" transform="translate(-168.904 -326.002)" fill="#263238"/>
    <path id="Path_36048" data-name="Path 36048" d="M268.1,431.3s18.634,2.832,19.386,3c1.135.252,1.427,4.254-.27,4.393-.8.065-13.8,2.144-15.458,2.24s-6.872-1.27-6.872-1.27Z" transform="translate(-210.392 -320.635)" fill="#455a64"/>
    <path id="Path_36049" data-name="Path 36049" d="M291.355,440.047a17.107,17.107,0,0,1,.561-2.031c.461-1.066,1.144-1.74,1.079-1.814a3.12,3.12,0,0,0-1.357,1.7A3.281,3.281,0,0,0,291.355,440.047Z" transform="translate(-225.304 -323.402)" fill="#263238"/>
    <path id="Path_36050" data-name="Path 36050" d="M286.819,438.867c.091,0,.17-.87.539-1.87s.87-1.74.783-1.779a3.275,3.275,0,0,0-1.07,1.675A3.505,3.505,0,0,0,286.819,438.867Z" transform="translate(-222.752 -322.848)" fill="#263238"/>
    <path id="Path_36051" data-name="Path 36051" d="M282.427,438.107a12.214,12.214,0,0,1,.191-1.957,19.417,19.417,0,0,1,.783-1.8,2.585,2.585,0,0,0-1.074,1.74A2.791,2.791,0,0,0,282.427,438.107Z" transform="translate(-220.178 -322.353)" fill="#263238"/>
    <path id="Path_36052" data-name="Path 36052" d="M280.42,432.246a3.139,3.139,0,0,0,.035-1.361,6.275,6.275,0,0,0-.361-1.448,6.021,6.021,0,0,0-.37-.809,1,1,0,0,0-.339-.4.487.487,0,0,0-.618.1.813.813,0,0,0-.178.539,3.43,3.43,0,0,0,.035.478,3.91,3.91,0,0,0,.217.87,5.456,5.456,0,0,0,.718,1.3,3.762,3.762,0,0,0,.94.992,12.115,12.115,0,0,0-.761-1.109,6.019,6.019,0,0,1-.635-1.3,3.969,3.969,0,0,1-.183-.813c-.026-.278-.07-.622.074-.774a.174.174,0,0,1,.235-.048.758.758,0,0,1,.239.292,6.1,6.1,0,0,1,.365.761,7.339,7.339,0,0,1,.409,1.379C280.39,431.729,280.373,432.246,280.42,432.246Z" transform="translate(-218.132 -318.858)" fill="#263238"/>
    <path id="Path_36053" data-name="Path 36053" d="M278.173,437.013a2.545,2.545,0,0,0-1.174-.065,5.392,5.392,0,0,0-1.261.309,2.851,2.851,0,0,0-.7.361.765.765,0,0,0-.309.87.922.922,0,0,0,.731.57,1.7,1.7,0,0,0,.809-.1,3.915,3.915,0,0,0,1.84-1.644,8.2,8.2,0,0,0-.87.766,3.212,3.212,0,0,1-1.048.613,1.462,1.462,0,0,1-.67.07.631.631,0,0,1-.491-.374.478.478,0,0,1,.209-.539,2.836,2.836,0,0,1,.622-.331,5.8,5.8,0,0,1,1.192-.357C277.721,437.044,278.173,437.061,278.173,437.013Z" transform="translate(-215.928 -323.804)" fill="#263238"/>
    <path id="Path_36054" data-name="Path 36054" d="M297.568,440.587a10.336,10.336,0,0,1,.161-1.67,11.435,11.435,0,0,1,.718-1.514c-.065-.061-.744.435-1.009,1.435A2.151,2.151,0,0,0,297.568,440.587Z" transform="translate(-228.726 -324.081)" fill="#263238"/>
    <path id="Path_36055" data-name="Path 36055" d="M269.17,448.638a3.815,3.815,0,0,0,.739.244,15.464,15.464,0,0,0,2.079.383,28.685,28.685,0,0,0,6.959-.17c2.7-.357,5.119-.77,6.877-1.053l2.079-.361a3.576,3.576,0,0,0,.752-.174,3.636,3.636,0,0,0-.77.057l-2.092.265-6.885.961a32.425,32.425,0,0,1-6.9.261C270.244,448.9,269.183,448.59,269.17,448.638Z" transform="translate(-212.81 -329.792)" fill="#263238"/>
    <path id="Path_36056" data-name="Path 36056" d="M268.06,448.533c.03.039.487-.309,1.279-.774a6.3,6.3,0,0,1,3.345-.974,5.443,5.443,0,0,1,3.158,1.4,11.264,11.264,0,0,0,1.166.94,5.461,5.461,0,0,0-1.027-1.1,7.141,7.141,0,0,0-1.331-.979,4.35,4.35,0,0,0-1.957-.565,6.016,6.016,0,0,0-3.48,1.1,4.81,4.81,0,0,0-1.153.957Z" transform="translate(-212.183 -329.212)" fill="#263238"/>
    <path id="Path_36057" data-name="Path 36057" d="M350.362,243.207a1.144,1.144,0,0,0-.544-.535l.435-.87a2.546,2.546,0,0,0-.257-.9c-.217-.374-.979-.344-.979-.344l.117-.248a1.122,1.122,0,0,0-.1-1.1c-.035-.048-.07-.1-.113-.148a1.814,1.814,0,0,0-.961-.487s.435-.835.239-1.187a1.81,1.81,0,0,0-1.853-.731,26.279,26.279,0,0,0-3.371,1.609.8.8,0,0,1-1.131-.435,11.44,11.44,0,0,0-1.649-3.1,1.709,1.709,0,0,0-2.031-.731.37.37,0,0,0-.183.535,19.836,19.836,0,0,1,1.183,2.175,48.749,48.749,0,0,1,.435,4.858l-1.174,2.236-11.844,18.707s-17.9-12.061-17.833-12.361l-.844,13.832,13.484,8.96a9.5,9.5,0,0,0,13.958-4.106l9.077-19.7,1.1-1.609,4.276-2.74S350.514,243.568,350.362,243.207Z" transform="translate(-234.7 -209.099)" fill="#ffbe9d"/>
    <path id="Path_36058" data-name="Path 36058" d="M394.154,242.969a.8.8,0,0,1-.083.078l-.257.209c-.239.183-.565.435-.957.744l-1.431,1.087a8.972,8.972,0,0,1-.87.626,1.257,1.257,0,0,1-1.135.152.87.87,0,0,1-.435-.435,1.249,1.249,0,0,1-.1-.57,1.644,1.644,0,0,1,.435-.974,6.088,6.088,0,0,1,.713-.652l.644-.535.94-.77.257-.2c.061-.044.091-.07.1-.065l-.083.083-.244.222-.913.792-.635.544a6.05,6.05,0,0,0-.7.652,1.527,1.527,0,0,0-.435.913.9.9,0,0,0,.457.9.935.935,0,0,0,.535.052,1.521,1.521,0,0,0,.5-.2c.3-.187.583-.435.87-.613l1.44-1.074.979-.713.27-.191Z" transform="translate(-280.454 -213.48)" fill="#eb996e"/>
    <path id="Path_36059" data-name="Path 36059" d="M396.987,249.3a1.138,1.138,0,0,1-.2.165c-.13.1-.326.244-.57.413-.483.335-1.166.787-1.944,1.244-.2.113-.383.231-.583.322a1.262,1.262,0,0,1-.622.117.974.974,0,0,1-.8-.648.957.957,0,0,1,.052-.7.906.906,0,0,1,.109-.161c.03-.035.048-.048.052-.048a1.906,1.906,0,0,0-.122.226.953.953,0,0,0,0,.661.87.87,0,0,0,.739.574,1.179,1.179,0,0,0,.57-.117,6.257,6.257,0,0,0,.57-.313c.779-.457,1.466-.9,1.962-1.218l.583-.383A1.515,1.515,0,0,1,396.987,249.3Z" transform="translate(-282.339 -217.797)" fill="#eb996e"/>
    <path id="Path_36060" data-name="Path 36060" d="M398.763,253.82a1.107,1.107,0,0,1-.2.117l-.578.291c-.492.244-1.174.57-1.927.926a5.286,5.286,0,0,1-.565.244,1.091,1.091,0,0,1-.587.048.631.631,0,0,1-.435-.313.735.735,0,0,1-.07-.461,1,1,0,0,1,.344-.561c.117-.1.2-.139.2-.13a2.247,2.247,0,0,1-.174.161,1.018,1.018,0,0,0-.291.544.644.644,0,0,0,.07.4.552.552,0,0,0,.378.261.983.983,0,0,0,.531-.052,4.982,4.982,0,0,0,.552-.244c.757-.352,1.44-.67,1.94-.9l.6-.257A.8.8,0,0,1,398.763,253.82Z" transform="translate(-283.562 -220.351)" fill="#eb996e"/>
    <path id="Path_36061" data-name="Path 36061" d="M400.188,257.554a4.541,4.541,0,0,1-.679.178c-.435.1-1.009.222-1.657.352l-.474.1a1.818,1.818,0,0,1-.457.052.644.644,0,0,1-.4-.144.435.435,0,0,1-.157-.344.622.622,0,0,1,.261-.457.327.327,0,0,1,.174-.078.962.962,0,0,0-.148.113.592.592,0,0,0-.209.435.348.348,0,0,0,.135.274.557.557,0,0,0,.348.113,1.957,1.957,0,0,0,.435-.057l.474-.1c.648-.131,1.235-.244,1.662-.322A5,5,0,0,1,400.188,257.554Z" transform="translate(-284.678 -222.267)" fill="#eb996e"/>
    <path id="Path_36062" data-name="Path 36062" d="M391.354,255.689a6.258,6.258,0,0,0-1.218-.122,5.855,5.855,0,0,0-1.2.239,2.231,2.231,0,0,1,1.192-.348A2.288,2.288,0,0,1,391.354,255.689Z" transform="translate(-280.486 -221.272)" fill="#eb996e"/>
    <path id="Path_36063" data-name="Path 36063" d="M241.277,207.192s-6.02-5.076-4.628-8.573,5.259-5.219,7.159-11.592c1.518-5.08,10.561-14.884,21.278-7.49,0,0,3.628-.57,5.689,1.083s2.562,4.95,3.436,8.756c1.348,5.868,2.088,10.378-.522,13.249s-3.567,3.641-3.427,6.9c.183,4.258,2.062,3.688.435,6.794l-8.986-2.932-.1-2.475-.909,2.327-5.219-1.879Z" transform="translate(-194.316 -176.872)" fill="#263238"/>
    <path id="Path_36064" data-name="Path 36064" d="M296.757,197.36c-.583,1.34-.1,2.888.435,4.245s1.2,2.788.918,4.223c-.5,2.545-3.658,3.962-4.006,6.524-.187,1.374.5,2.775.235,4.141a4.654,4.654,0,0,1-2.531,2.975c-1.17.661-2.462,1.1-3.562,1.879,0,0-2.418,1.983-6.585-1.283" transform="translate(-219.868 -188.449)" fill="#263238"/>
    <path id="Path_36065" data-name="Path 36065" d="M262.276,189.635a2.218,2.218,0,0,0-2.61,1.474h0l-8.634,28.664c-1.118,3.354,3.1,6.933,6.7,8.1h0c3.636,1.179,4.371-.548,5.524-3.706,1.931-5.272,2.61-7.264,2.61-7.233s4.819.826,7.829-4.785a66.765,66.765,0,0,0,4.163-11.744c1.018-3.645.174-8.847-3.51-9.7Z" transform="translate(-202.458 -184.051)" fill="#ffbe9d"/>
    <path id="Path_36066" data-name="Path 36066" d="M303.884,220.054a.8.8,0,0,1-1,.513.774.774,0,0,1-.548-.961.809.809,0,0,1,1-.513.774.774,0,0,1,.548.961Z" transform="translate(-231.531 -200.708)" fill="#263238"/>
    <path id="Path_36067" data-name="Path 36067" d="M304.782,217.121c-.126.065-.557-.561-1.379-.844s-1.566-.083-1.618-.213c-.03-.061.13-.209.435-.309a2.231,2.231,0,0,1,1.34.048,2.148,2.148,0,0,1,1.057.8C304.821,216.865,304.847,217.078,304.782,217.121Z" transform="translate(-231.237 -198.797)" fill="#263238"/>
    <path id="Path_36068" data-name="Path 36068" d="M285.17,214.076a.809.809,0,0,1-1,.518.774.774,0,0,1-.548-.961.809.809,0,0,1,1-.518.774.774,0,0,1,.548.961Z" transform="translate(-220.959 -197.332)" fill="#263238"/>
    <path id="Path_36069" data-name="Path 36069" d="M285.956,211.435c-.131.07-.561-.561-1.383-.844s-1.566-.083-1.618-.213c-.03-.061.13-.2.457-.3a2.2,2.2,0,0,1,1.34.048,2.118,2.118,0,0,1,1.057.8C285.991,211.2,286.017,211.409,285.956,211.435Z" transform="translate(-220.598 -195.586)" fill="#263238"/>
    <path id="Path_36070" data-name="Path 36070" d="M291.84,220.632a5.656,5.656,0,0,1,1.418.222c.218.052.435.078.513-.052a1.144,1.144,0,0,0,.074-.67c0-.574-.039-1.179-.061-1.809a28.747,28.747,0,0,1,.057-4.663,28.737,28.737,0,0,1,.318,4.654c0,.631.022,1.235.035,1.814a1.27,1.27,0,0,1-.178.87.543.543,0,0,1-.435.187,1.386,1.386,0,0,1-.37-.074A5.679,5.679,0,0,1,291.84,220.632Z" transform="translate(-225.62 -197.659)" fill="#263238"/>
    <path id="Path_36071" data-name="Path 36071" d="M275.995,246.113a15.976,15.976,0,0,1-7.225-4.893s.587,4.784,6.733,6.3Z" transform="translate(-212.584 -213.232)" fill="#eb996e"/>
    <path id="Path_36072" data-name="Path 36072" d="M286,232.633a1.553,1.553,0,0,0-1.135-1.009,1.426,1.426,0,0,0-1.1.174.9.9,0,0,0-.4.957,1.044,1.044,0,0,0,.979.644,3.219,3.219,0,0,0,1.266-.261.974.974,0,0,0,.322-.161.3.3,0,0,0,.1-.3" transform="translate(-220.812 -207.785)" fill="#ed278d"/>
    <path id="Path_36073" data-name="Path 36073" d="M286.106,206.587c-.126.217-.957-.057-1.983-.126s-1.883.048-1.979-.183c-.039-.113.144-.3.513-.465a3.258,3.258,0,0,1,1.535-.231,3.3,3.3,0,0,1,1.483.465C286.014,206.265,286.167,206.483,286.106,206.587Z" transform="translate(-220.138 -193.087)" fill="#263238"/>
    <path id="Path_36074" data-name="Path 36074" d="M307.012,210.79c-.226.139-.87-.252-1.692-.5s-1.57-.3-1.679-.548c-.044-.117.122-.278.478-.37a3,3,0,0,1,2.719.839C307.077,210.485,307.116,210.716,307.012,210.79Z" transform="translate(-232.284 -195.206)" fill="#263238"/>
    <path id="Path_36075" data-name="Path 36075" d="M254,206.963q2.427-8.129,4.858-16.267a5.541,5.541,0,0,1,1.64-3,5.121,5.121,0,0,1,3.145-.761,59.525,59.525,0,0,1,14.093,1.392,2.432,2.432,0,0,1-1.805,2.51,10.778,10.778,0,0,1-3.349.244,4.206,4.206,0,0,0-3.114,1.044c-.761.831-.892,2.244-1.657,3.166-1.3,1.583-4.076,1.248-5.385,2.84-.987,1.2-.722,2.966-1.048,4.489-.37,1.74-.37,1.74-1.74,4.271-.831,1.557,1.257,4.532-.822,8.39l-4.036-1.148,1.77-5.959-2.4,5.589Z" transform="translate(-204.239 -182.55)" fill="#263238"/>
    <path id="Path_36076" data-name="Path 36076" d="M285.509,229.449c.083.048.039.265.035.578a2.1,2.1,0,0,0,1.022,1.949c.257.174.461.261.435.357s-.248.178-.635.087a1.909,1.909,0,0,1-1.3-2.5C285.222,229.549,285.435,229.4,285.509,229.449Z" transform="translate(-221.725 -206.575)" fill="#263238"/>
    <path id="Path_36077" data-name="Path 36077" d="M274.694,199.4a.871.871,0,0,1-.226.126,6.622,6.622,0,0,0-.639.357,7.734,7.734,0,0,0-3.562,5.372,8.769,8.769,0,0,0,0,2.336,14.019,14.019,0,0,1,.152,2.558,4.623,4.623,0,0,1-.274,1.3,8.171,8.171,0,0,1-.578,1.135,5.653,5.653,0,0,0-.913,2.127,7.2,7.2,0,0,0,.057,2.105c.091.665.209,1.3.252,1.857a4.911,4.911,0,0,1-.4,2.679,2.81,2.81,0,0,1-.435.6c-.126.117-.2.174-.2.165a3.917,3.917,0,0,0,.552-.809,5.037,5.037,0,0,0,.318-2.61c-.057-.565-.183-1.179-.283-1.844a7.289,7.289,0,0,1-.074-2.175c.17-1.6,1.714-2.775,1.74-4.532a14.18,14.18,0,0,0-.144-2.518,8.813,8.813,0,0,1,0-2.392,7.664,7.664,0,0,1,1.648-3.662,7.26,7.26,0,0,1,2.075-1.74,4.678,4.678,0,0,1,.666-.318A.926.926,0,0,1,274.694,199.4Z" transform="translate(-212.11 -189.601)" fill="#263238"/>
    <path id="Path_36078" data-name="Path 36078" d="M320.223,218.546l-.074.061c-.052.035-.126.1-.231.157a3.644,3.644,0,0,1-.987.4,4.106,4.106,0,0,1-1.692.061,3.728,3.728,0,0,1-2-1,4.071,4.071,0,0,1-1.2-2.423,3.732,3.732,0,0,1,.1-1.527,4.708,4.708,0,0,1,.713-1.453,19.358,19.358,0,0,1,2.405-2.453,9.135,9.135,0,0,0,1.183-1.335,6.6,6.6,0,0,0,.813-1.635,10.622,10.622,0,0,0,.457-3.588,25.926,25.926,0,0,0-.352-3.388,31.667,31.667,0,0,0-1.444-5.581,33.683,33.683,0,0,0-1.522-3.588c-.2-.413-.37-.731-.483-.944a1.99,1.99,0,0,1-.17-.313,2.223,2.223,0,0,1,.2.313c.126.2.3.518.522.926a29.313,29.313,0,0,1,1.6,3.571,30.753,30.753,0,0,1,1.5,5.6,25.477,25.477,0,0,1,.37,3.419,10.685,10.685,0,0,1-.465,3.662,6.608,6.608,0,0,1-.839,1.692,9.468,9.468,0,0,1-1.218,1.37,19.481,19.481,0,0,0-2.388,2.414,4.488,4.488,0,0,0-.692,1.383,3.679,3.679,0,0,0-.109,1.453,3.958,3.958,0,0,0,1.127,2.331,3.671,3.671,0,0,0,1.909.987,4.044,4.044,0,0,0,1.648-.026,4.672,4.672,0,0,0,1.314-.552Z" transform="translate(-238.144 -184.29)" fill="#263238"/>
    <path id="Path_36079" data-name="Path 36079" d="M243.23,210.846a3.758,3.758,0,0,0,1.4-.7,5.563,5.563,0,0,0,1.853-3.736,21.788,21.788,0,0,0,.078-2.971,13.117,13.117,0,0,1,.265-3.436,6.4,6.4,0,0,1,.7-1.74,4.132,4.132,0,0,1,1.374-1.409c1.179-.722,2.61-.687,3.915-1.135a4.136,4.136,0,0,0,1.666-1.092,10.4,10.4,0,0,0,1.174-1.588,8.961,8.961,0,0,1,2.427-2.932,4.154,4.154,0,0,1,1.683-.613,9.135,9.135,0,0,1,1.675-.07,17.173,17.173,0,0,0,2.971-.026,8.834,8.834,0,0,0,3.949-1.574,10.968,10.968,0,0,0,.9-.739l.222-.209.083-.07a6.088,6.088,0,0,1-1.157,1.087,8.777,8.777,0,0,1-3.98,1.666,17.391,17.391,0,0,1-3,.052,5.555,5.555,0,0,0-3.24.674,9.241,9.241,0,0,0-2.353,2.871,10.508,10.508,0,0,1-1.2,1.627,4.349,4.349,0,0,1-1.74,1.148c-1.34.461-2.766.435-3.867,1.113a4.737,4.737,0,0,0-1.988,3.01,12.991,12.991,0,0,0-.283,3.38,20.714,20.714,0,0,1-.1,3,5.6,5.6,0,0,1-1.957,3.784,3.132,3.132,0,0,1-1.048.544,2.88,2.88,0,0,1-.3.07A.322.322,0,0,1,243.23,210.846Z" transform="translate(-198.153 -182.488)" fill="#ed278d"/>
    <path id="Path_36080" data-name="Path 36080" d="M253.25,191.5a5.716,5.716,0,0,0,.87.231,4.236,4.236,0,0,0,2.349-.387,9.825,9.825,0,0,0,2.81-2.214c.478-.487.979-1.009,1.544-1.5a7.038,7.038,0,0,1,1.962-1.253,6.354,6.354,0,0,1,2.292-.435,18.9,18.9,0,0,1,2.153.117c.678.065,1.3.135,1.922.139a8.618,8.618,0,0,0,1.666-.135,4.588,4.588,0,0,0,2.175-.966,8.367,8.367,0,0,0,.613-.639,1.043,1.043,0,0,1-.117.2,1.789,1.789,0,0,1-.17.226,2.268,2.268,0,0,1-.27.278,4.524,4.524,0,0,1-2.214,1.057,8.5,8.5,0,0,1-1.7.165c-.613,0-1.261-.061-1.944-.117a18.676,18.676,0,0,0-2.127-.1,6.154,6.154,0,0,0-2.214.409,11.2,11.2,0,0,0-3.441,2.692,9.59,9.59,0,0,1-2.892,2.21,4.171,4.171,0,0,1-2.427.331,2.81,2.81,0,0,1-.644-.2A1.139,1.139,0,0,1,253.25,191.5Z" transform="translate(-203.815 -181.16)" fill="#ed278d"/>
    <path id="Path_36081" data-name="Path 36081" d="M314.943,204.958a3.281,3.281,0,0,0,.213-.831,3.566,3.566,0,0,0-.618-2.2,14.182,14.182,0,0,0-2.388-2.527,6.409,6.409,0,0,1-1.266-1.67,5.868,5.868,0,0,1-.539-2.175c-.1-1.544.165-2.988.13-4.3a5.219,5.219,0,0,0-.957-3.245,3.232,3.232,0,0,0-1.909-1.222,3.7,3.7,0,0,0-.87-.022.748.748,0,0,1,.222-.061,2.383,2.383,0,0,1,.648,0,3.236,3.236,0,0,1,2.022,1.209,5.288,5.288,0,0,1,1.04,3.34c.017,1.327-.213,2.779-.113,4.284a5.7,5.7,0,0,0,.513,2.105,6.164,6.164,0,0,0,1.214,1.622,13.562,13.562,0,0,1,2.375,2.61,3.554,3.554,0,0,1,.57,2.292,2.062,2.062,0,0,1-.183.622A.779.779,0,0,1,314.943,204.958Z" transform="translate(-234.039 -182.419)" fill="#455a64"/>
    <path id="Path_36082" data-name="Path 36082" d="M234.7,204.738a2.586,2.586,0,0,1-.278-.152,3.237,3.237,0,0,1-.674-.609,3.941,3.941,0,0,1-.835-3.175,3.841,3.841,0,0,1,.37-1.066,4.237,4.237,0,0,1,.766-.948,9.756,9.756,0,0,1,2.262-1.392,8.834,8.834,0,0,0,2.418-1.54,5.7,5.7,0,0,0,1.37-2.705c.261-1.031.435-2.075.779-3.045a13.2,13.2,0,0,1,1.266-2.649,13.809,13.809,0,0,1,3.306-3.675,12.872,12.872,0,0,1,2.879-1.688,8.054,8.054,0,0,1,.848-.318,1.386,1.386,0,0,1,.3-.087c0,.026-.409.157-1.118.487a13.345,13.345,0,0,0-2.814,1.74,13.885,13.885,0,0,0-3.227,3.658,12.991,12.991,0,0,0-1.231,2.61c-.331.948-.5,1.979-.774,3.045a5.863,5.863,0,0,1-1.431,2.806,8.965,8.965,0,0,1-2.479,1.57,9.772,9.772,0,0,0-2.231,1.344,4.175,4.175,0,0,0-.739.9,3.62,3.62,0,0,0-.365,1.009,4.058,4.058,0,0,0,.1,1.84,3.719,3.719,0,0,0,.644,1.248,4.65,4.65,0,0,0,.887.8Z" transform="translate(-192.291 -179.595)" fill="#263238"/>
    <path id="Path_36083" data-name="Path 36083" d="M322.161,206.476c-.022,0,.183-.209.461-.622a5.263,5.263,0,0,0,.774-1.927,7.3,7.3,0,0,0-.109-3.071,12.364,12.364,0,0,0-1.557-3.458c-.718-1.153-1.492-2.2-2.144-3.184a17.954,17.954,0,0,1-1.535-2.749,9.064,9.064,0,0,1-.631-2.031,5.215,5.215,0,0,1-.07-.574.7.7,0,0,1,0-.2s.052.274.161.757a10.229,10.229,0,0,0,.683,2,19.576,19.576,0,0,0,1.566,2.7c.657.979,1.44,2.018,2.175,3.184a12.272,12.272,0,0,1,1.57,3.527,7.33,7.33,0,0,1,.061,3.153,5.042,5.042,0,0,1-.87,1.944,3.388,3.388,0,0,1-.383.435A.733.733,0,0,1,322.161,206.476Z" transform="translate(-240.031 -183.533)" fill="#263238"/>
    <path id="Path_36084" data-name="Path 36084" d="M176.546,368.644l-3.571,6.216s-17.751-6.494-28.142-4.6c-3.954.718-8.181,9.682-2.423,15.441,5.615,5.615,15.658,13.558,34.505,16.128.47.061,8.19,1.718,7.712,1.662s10.822,1.74,10.822,1.74L198.1,395.2l21.048,3.3c12.4-.844,18.477-14.11,11-18.381-6.959-3.98-20.069-4.3-20.069-4.3l-4.75-7.446Z" transform="translate(-139.594 -285.077)" fill="#263238"/>
    <path id="Path_36085" data-name="Path 36085" d="M218.57,413.582c.052-.339.2-1.253.509-3.127.17-1,.374-2.218.639-3.619.135-.7.283-1.448.461-2.236.091-.4.187-.8.3-1.209.057-.2.117-.409.191-.618a1.832,1.832,0,0,1,.322-.618l.03.152c-4.48-1.592-10.082-3.693-16.05-6.211-3.671-1.562-7.133-3.136-10.182-4.785a33.049,33.049,0,0,1-4.176-2.588c-1.235-.913-2.34-1.827-3.375-2.61a18.324,18.324,0,0,0-5.293-3.106,8.992,8.992,0,0,0-.926-.274,5.618,5.618,0,0,0-.692-.148l-.435-.078-.148-.035a.668.668,0,0,1,.152,0l.435.057a5.088,5.088,0,0,1,.7.126,8.03,8.03,0,0,1,.94.257A12.713,12.713,0,0,1,184.417,384a25.231,25.231,0,0,1,2.927,1.979c1.044.787,2.149,1.692,3.388,2.61a32.96,32.96,0,0,0,4.163,2.558c3.045,1.627,6.5,3.2,10.169,4.754,5.963,2.514,11.557,4.632,16.024,6.246l.126.048-.1.1a1.8,1.8,0,0,0-.274.548c-.074.2-.135.4-.2.6-.117.4-.217.809-.309,1.2-.183.783-.339,1.527-.478,2.227-.278,1.4-.5,2.61-.678,3.61s-.331,1.762-.435,2.305c-.052.265-.091.47-.126.6A1.484,1.484,0,0,1,218.57,413.582Z" transform="translate(-162.284 -293.044)" fill="#455a64"/>
    <path id="Path_36086" data-name="Path 36086" d="M282.938,397.422h-.117l-.326-.052c-.287-.039-.7-.144-1.257-.2a24.472,24.472,0,0,0-4.667-.165,34.843,34.843,0,0,0-6.838,1.131c-1.261.335-2.575.735-3.915,1.2s-2.714,1-4.119,1.562a37.887,37.887,0,0,1-4.2,1.388c-1.379.378-2.723.674-4.01.922-2.575.5-4.919.813-6.885,1.053s-3.562.4-4.663.513l-1.27.126-.331.026a.378.378,0,0,1-.113,0h.109l.331-.048,1.261-.17,4.654-.583c1.966-.261,4.3-.587,6.864-1.1,1.283-.252,2.61-.552,3.993-.935a39,39,0,0,0,4.176-1.379c1.4-.561,2.779-1.1,4.132-1.561s2.666-.87,3.936-1.2a33.884,33.884,0,0,1,6.881-1.083,23.015,23.015,0,0,1,4.689.235c.552.07.966.191,1.253.244l.326.074A.391.391,0,0,1,282.938,397.422Z" transform="translate(-196.458 -301.163)" fill="#455a64"/>
    <path id="Path_36087" data-name="Path 36087" d="M241.646,387.423c0,.148-.939.387-2.518.535a32.927,32.927,0,0,1-12.231-1.3c-1.509-.478-2.392-.918-2.349-1.061.1-.313,3.828.679,8.525,1.166S241.616,387.093,241.646,387.423Z" transform="translate(-187.596 -294.774)" fill="#263238"/>
    <path id="Path_36088" data-name="Path 36088" d="M281.677,385.83a4.779,4.779,0,0,1-.7.187,8.049,8.049,0,0,0-.813.209c-.313.091-.674.187-1.061.326a26.455,26.455,0,0,0-2.688,1.066c-.983.47-2.044,1.026-3.127,1.67a49.379,49.379,0,0,0-5.267,3.706c-.644.513-1.161.939-1.514,1.235a4.121,4.121,0,0,1-.57.435,4.82,4.82,0,0,1,.509-.509c.339-.318.839-.761,1.475-1.3a41.873,41.873,0,0,1,5.254-3.78,33.411,33.411,0,0,1,3.153-1.661,22.946,22.946,0,0,1,2.727-1.031c.391-.13.757-.217,1.079-.3a7.13,7.13,0,0,1,.826-.174A4.168,4.168,0,0,1,281.677,385.83Z" transform="translate(-210.985 -294.943)" fill="#455a64"/>
    <path id="Path_36089" data-name="Path 36089" d="M246.376,401.346a5.032,5.032,0,0,1-1.248-.357,26.821,26.821,0,0,1-2.849-1.283l-2.753-1.448a9.779,9.779,0,0,1-1.135-.618,6.334,6.334,0,0,1,1.209.474c.726.331,1.709.835,2.792,1.388s2.07,1.031,2.805,1.34A10.573,10.573,0,0,1,246.376,401.346Z" transform="translate(-195.418 -301.616)" fill="#455a64"/>
    <path id="Path_36090" data-name="Path 36090" d="M260.615,370.72c.035,0-.026.652-.091,1.7s-.126,2.5-.1,4.1.148,3.045.252,4.1a16.909,16.909,0,0,1,.161,1.7,1.661,1.661,0,0,1-.113-.435c-.061-.287-.131-.709-.2-1.231a34.747,34.747,0,0,1-.322-4.11,35.729,35.729,0,0,1,.161-4.115c.057-.526.109-.948.157-1.24A1.942,1.942,0,0,1,260.615,370.72Z" transform="translate(-207.74 -286.405)" fill="#455a64"/>
    <path id="Path_36091" data-name="Path 36091" d="M264.843,371.957a2.021,2.021,0,0,0-.187.2,1.235,1.235,0,0,0-.278.639,1.2,1.2,0,0,0,.274.953,1.122,1.122,0,0,0,1.857-.687,1.214,1.214,0,0,0-.435-.9,1.232,1.232,0,0,0-.626-.3c-.17-.026-.265,0-.27-.03s.091-.057.278-.057a1.2,1.2,0,0,1,.722.27,1.258,1.258,0,1,1-1.7,1.849,1.331,1.331,0,0,1-.274-1.118,1.2,1.2,0,0,1,.374-.679C264.734,371.974,264.838,371.948,264.843,371.957Z" transform="translate(-209.988 -286.998)" fill="#455a64"/>
    <path id="Path_36092" data-name="Path 36092" d="M262.117,355.729a2.482,2.482,0,0,1-.339.435,13.222,13.222,0,0,1-1.044,1.1,16.29,16.29,0,0,1-1.74,1.44,18.888,18.888,0,0,1-2.371,1.431,18.492,18.492,0,0,1-2.566,1.031,16.533,16.533,0,0,1-2.2.522,12.431,12.431,0,0,1-1.509.17,2.871,2.871,0,0,1-.557,0c0-.043.787-.087,2.04-.331a19.189,19.189,0,0,0,2.175-.565,18.59,18.59,0,0,0,6.62-3.815C261.573,356.307,262.082,355.7,262.117,355.729Z" transform="translate(-201.86 -277.934)" fill="#263238"/>
    <path id="Path_36093" data-name="Path 36093" d="M292.018,366.763c0,.065-.783.065-1.705.3s-1.618.583-1.653.526A4.519,4.519,0,0,1,292.018,366.763Z" transform="translate(-223.823 -284.14)" fill="#263238"/>
    <g id="Group_12359" data-name="Group 12359" transform="translate(49.283 78.108)" opacity="0.3">
      <path id="Path_36094" data-name="Path 36094" d="M253.557,362.052a16.659,16.659,0,0,0,9.7-5.6,3.915,3.915,0,0,1-.953,3.993c1.1.522,2.4.174,3.61,0s2.688,0,3.267,1.074a127.852,127.852,0,0,1-16.276.465" transform="translate(-252.9 -356.45)"/>
    </g>
    <path id="Path_36095" data-name="Path 36095" d="M213.8,347.355a6.111,6.111,0,0,0-1.875-1.214,6.028,6.028,0,0,0-2.379-.4,6.524,6.524,0,0,0-2.84.766,12.1,12.1,0,0,0-3.88,3.736,11.629,11.629,0,0,0-.87,1.418,3.513,3.513,0,0,1-.3.531,3.044,3.044,0,0,1,.222-.57,9.567,9.567,0,0,1,.8-1.47c.4-.583.926-1.235,1.527-1.949a8.473,8.473,0,0,1,2.384-1.9,6.593,6.593,0,0,1,2.945-.77,6.019,6.019,0,0,1,2.444.465,4.657,4.657,0,0,1,1.409.9,2.48,2.48,0,0,1,.313.331C213.778,347.307,213.813,347.351,213.8,347.355Z" transform="translate(-174.664 -272.17)" fill="#263238"/>
    <path id="Path_36096" data-name="Path 36096" d="M247.872,253.81,241.8,255.1l3.036,11.365,10.752,2.31,7.377-5.232,1.013-6.268-6.324-2.392Z" transform="translate(-197.345 -220.345)" fill="#ffbe9d"/>
    <path id="Path_36097" data-name="Path 36097" d="M223.17,255.71s4.11,11.935,11.7,10.83,6.959-8.838,6.959-8.838,7.925,2.418,10.374,4.989,1,8.16,1,8.16l-2.053,10.1L246.688,300.3s1.709,5.28-2.662,6.585l-1.379-2.175-26.215.74s-5.607,6.463-7.355,4.236a32.494,32.494,0,0,1-3.427-6.577l12.044-45.966Z" transform="translate(-176.919 -221.419)" fill="#5e2d77"/>
    <path id="Path_36098" data-name="Path 36098" d="M302.319,268.25c.213.122,18.612,13.484,18.612,13.484s-1.444,11,7.394,9.247c0,0-3.567,9.195-8.395,7.264-1.374-.548-18.333-11.278-18.333-11.278l-3.6-7.66Z" transform="translate(-229.101 -228.505)" fill="#5e2d77"/>
    <path id="Path_36099" data-name="Path 36099" d="M218.955,257.06a10.872,10.872,0,0,0-1.118.078c-3.6.348-16.894,3.1-18.125,12.483-.644,4.906-.826,19.255-1.522,25.271,0,0,1.109,8.36,1.522,9.908.735,2.758,14.053-1.662,14.053-1.662l.026-26.532,4.758-19.534" transform="translate(-172.703 -222.182)" fill="#5e2d77"/>
    <path id="Path_36100" data-name="Path 36100" d="M226.5,312.48a.64.64,0,0,1,0,.213,5.727,5.727,0,0,0,.043.618,8.907,8.907,0,0,0,.561,2.175c.339.9.87,1.914,1.374,3.079a13.926,13.926,0,0,1,.7,1.888,11.555,11.555,0,0,1,.361,2.127,25.272,25.272,0,0,1-.109,4.15c-.109,1.27-.213,2.414-.37,3.367a14.989,14.989,0,0,1-.526,2.223c-.087.257-.161.435-.217.583a.747.747,0,0,1-.1.2s.083-.287.231-.8a16.9,16.9,0,0,0,.435-2.223c.139-.948.226-2.088.326-3.354a27.162,27.162,0,0,0,.087-4.119,11.432,11.432,0,0,0-.348-2.088,14.192,14.192,0,0,0-.674-1.862c-.5-1.161-1.009-2.2-1.335-3.106a8.09,8.09,0,0,1-.5-2.236,3.624,3.624,0,0,1,0-.622A1.2,1.2,0,0,1,226.5,312.48Z" transform="translate(-188.66 -253.497)" fill="#263238"/>
    <path id="Path_36101" data-name="Path 36101" d="M227.975,304.78c.039,0,.07.674.222,1.74a23.32,23.32,0,0,0,.97,4.128c.135.4.274.774.435,1.14a2.436,2.436,0,0,0,.109.248l.157.239a5.626,5.626,0,0,1,.278.492,4.118,4.118,0,0,1,.492,1.879,3.353,3.353,0,0,1-.257,1.3,1.873,1.873,0,0,1-.239.435,4.52,4.52,0,0,0,.335-1.7,4.093,4.093,0,0,0-.513-1.788c-.083-.157-.178-.313-.278-.47l-.157-.239a1.588,1.588,0,0,1-.13-.283c-.152-.365-.291-.753-.435-1.148a19.57,19.57,0,0,1-.913-4.184c-.061-.544-.078-.992-.083-1.3A2.117,2.117,0,0,1,227.975,304.78Z" transform="translate(-189.523 -249.146)" fill="#263238"/>
    <path id="Path_36102" data-name="Path 36102" d="M221.427,284.675c-.035,0-.235-.544-.626-1.4a19.692,19.692,0,0,0-1.84-3.193,20,20,0,0,0-2.414-2.779c-.683-.652-1.144-1.022-1.118-1.053a1.558,1.558,0,0,1,.348.226,10.824,10.824,0,0,1,.87.709,16.471,16.471,0,0,1,4.293,6.024,11.048,11.048,0,0,1,.383,1.061A1.68,1.68,0,0,1,221.427,284.675Z" transform="translate(-182.443 -233.025)" fill="#263238"/>
    <path id="Path_36103" data-name="Path 36103" d="M314.857,277.7a4.907,4.907,0,0,1-.087,1.053c-.078.648-.191,1.54-.291,2.527s-.183,1.883-.239,2.536a5.041,5.041,0,0,1-.13,1.048,4.725,4.725,0,0,1-.03-1.057c0-.657.07-1.557.174-2.549s.239-1.888.357-2.527A4.723,4.723,0,0,1,314.857,277.7Z" transform="translate(-238.176 -233.844)" fill="#263238"/>
    <path id="Path_36104" data-name="Path 36104" d="M315.668,303.374c0,.039-.574.1-1.466.348a6.929,6.929,0,0,0-3.066,1.8,8.475,8.475,0,0,0-1.17,1.592,12.187,12.187,0,0,0-.67,1.479l-.213.592c-.052.161-.1.313-.139.435a1.572,1.572,0,0,1-.144.383,1.222,1.222,0,0,1,.061-.4l.1-.465.183-.609a10.534,10.534,0,0,1,.639-1.527,8.03,8.03,0,0,1,1.192-1.609,6.585,6.585,0,0,1,3.184-1.792,4.572,4.572,0,0,1,.626-.126,3.913,3.913,0,0,1,.474-.061A1.3,1.3,0,0,1,315.668,303.374Z" transform="translate(-235.203 -248.349)" fill="#263238"/>
    <path id="Path_36105" data-name="Path 36105" d="M349.848,313.021a2.616,2.616,0,0,1-.291-.487c-.091-.157-.2-.357-.3-.6s-.239-.5-.352-.809a15.848,15.848,0,0,1-.7-2.2,17.994,17.994,0,0,1-.435-2.8,17.7,17.7,0,0,1,.048-2.823,16.254,16.254,0,0,1,.4-2.27c.07-.322.17-.6.244-.87a5.464,5.464,0,0,1,.217-.631,2.716,2.716,0,0,1,.226-.522c.044,0-.248.77-.531,2.04a18.485,18.485,0,0,0-.348,2.253,19.678,19.678,0,0,0-.035,2.792,19.46,19.46,0,0,0,.409,2.762,18.209,18.209,0,0,0,.644,2.175C349.5,312.291,349.887,313,349.848,313.021Z" transform="translate(-257.2 -245.891)" fill="#263238"/>
    <path id="Path_36106" data-name="Path 36106" d="M340.929,309.828a1.836,1.836,0,0,1-.174-.465,9.167,9.167,0,0,1-.27-1.3,10.292,10.292,0,0,1,.409-4.419,10,10,0,0,1,2.223-3.845,1.9,1.9,0,0,1,1.2-.644.843.843,0,0,1,.37.074c.074.039.113.065.109.074a1.3,1.3,0,0,0-.474-.061,1.935,1.935,0,0,0-1.083.665,10.582,10.582,0,0,0-2.123,3.8,11.1,11.1,0,0,0-.47,4.35C340.755,309.141,340.968,309.815,340.929,309.828Z" transform="translate(-253.061 -245.964)" fill="#263238"/>
    <path id="Path_36107" data-name="Path 36107" d="M261.234,318.72a2.049,2.049,0,0,1-.109.518,5.123,5.123,0,0,1-.174.592,8.078,8.078,0,0,1-.291.766,12.147,12.147,0,0,1-.992,1.888,12.874,12.874,0,0,1-3.641,3.723,12.274,12.274,0,0,1-1.866,1.04,7.273,7.273,0,0,1-.761.3,3.937,3.937,0,0,1-.587.191,2.609,2.609,0,0,1-.513.122c0-.044.713-.239,1.792-.761a13.668,13.668,0,0,0,1.818-1.066,15.461,15.461,0,0,0,1.966-1.661,15.1,15.1,0,0,0,1.614-2.005,13.347,13.347,0,0,0,1.022-1.84C261.012,319.437,261.19,318.707,261.234,318.72Z" transform="translate(-203.278 -257.022)" fill="#263238"/>
    <g id="Group_12360" data-name="Group 12360" transform="translate(38.668 55.816)" opacity="0.3">
      <path id="Path_36108" data-name="Path 36108" d="M232.721,315.386l-2.505-9.134c-.122-.435-.326-.97-.783-1.053a.87.87,0,0,0-.892.748,4.9,4.9,0,0,0,0,1.335,10.463,10.463,0,0,0,1.279,4.876c1.805,3,.618,4.458.618,4.458a41.121,41.121,0,0,1-1.3,12.392l1.074,4.528c1.018-3.367,3.345-6.172,3.736-9.669A22.852,22.852,0,0,0,232.721,315.386Z" transform="translate(-228.495 -305.199)"/>
    </g>
    <g id="Group_12361" data-name="Group 12361" transform="translate(74.249 58.426)" opacity="0.3">
      <path id="Path_36109" data-name="Path 36109" d="M310.3,312.365c2.979,1.548,5.628,3.688,8.529,5.346a13.609,13.609,0,0,0-5.341-5.972,3.38,3.38,0,0,0-2.018-.535c-.7.1-1.209.5-1.1,1.2" transform="translate(-310.3 -311.198)"/>
    </g>
    <g id="Group_12362" data-name="Group 12362" transform="translate(87.299 52.864)" opacity="0.3">
      <path id="Path_36110" data-name="Path 36110" d="M344.325,298.584c-1.018-.026-1.783.9-2.284,1.788a13.749,13.749,0,0,0-1.644,8.3c.061.513.252,1.131.761,1.231a.87.87,0,0,0,.9-.535,2.471,2.471,0,0,0,.17-1.1,35.994,35.994,0,0,1,.131-5.22,7.789,7.789,0,0,1,2.175-4.637" transform="translate(-340.303 -298.41)"/>
    </g>
    <path id="Path_36111" data-name="Path 36111" d="M243.78,305.077h.1l.3-.022,1.179-.061,4.454-.2,15.776-.67h.1v.1c.13,5.306.283,11.413.435,17.877v.761h-.074a154.417,154.417,0,0,0-19.425,1.453h-.083l-.022-.083a69.455,69.455,0,0,1-2.318-13.988c-.1-1.714-.122-3.045-.122-3.976v-1.4a.369.369,0,0,1,0,.091v1.314c0,.918.057,2.262.174,3.967a71.4,71.4,0,0,0,2.392,13.949l-.109-.074a151.159,151.159,0,0,1,19.512-1.492l-.113.117v-.648c-.152-6.463-.291-12.57-.435-17.877l.1.1-15.78.587-4.458.148-1.179.035h-.4Z" transform="translate(-198.464 -248.773)" fill="#fff"/>
    <path id="Path_36112" data-name="Path 36112" d="M254.128,319.526c-.061,0-.6-2.927-1.214-6.563s-1.053-6.59-.992-6.6.6,2.927,1.214,6.568S254.171,319.517,254.128,319.526Z" transform="translate(-203.062 -250.039)" fill="#fff"/>
    <path id="Path_36113" data-name="Path 36113" d="M257.494,343.32a13.089,13.089,0,0,1-.483-2.37,13.279,13.279,0,0,1-.261-2.41,13.081,13.081,0,0,1,.483,2.375A12.353,12.353,0,0,1,257.494,343.32Z" transform="translate(-205.792 -268.222)" fill="#fff"/>
    <path id="Path_36114" data-name="Path 36114" d="M265.633,316.13a1.332,1.332,0,0,1-.122-.4c-.065-.261-.148-.648-.239-1.122-.183-.953-.387-2.275-.535-3.745s-.2-2.81-.217-3.775v-1.148a1.866,1.866,0,0,1,.039-.435,12,12,0,0,1,.109,1.561c.052.966.135,2.3.283,3.762s.326,2.784.465,3.741A13.214,13.214,0,0,1,265.633,316.13Z" transform="translate(-210.182 -249.553)" fill="#fff"/>
    <path id="Path_36115" data-name="Path 36115" d="M264.951,340.166a21.577,21.577,0,0,1-.492-3.075,20.592,20.592,0,0,1-.27-3.1,21.713,21.713,0,0,1,.491,3.075,20.586,20.586,0,0,1,.27,3.1Z" transform="translate(-209.996 -265.651)" fill="#fff"/>
    <path id="Path_36116" data-name="Path 36116" d="M274.522,323.733a5.207,5.207,0,0,1-.087-.718l-.17-1.957c-.144-1.648-.357-3.915-.644-6.442s-.6-4.785-.835-6.424c-.113-.792-.209-1.448-.278-1.944a4.73,4.73,0,0,1-.078-.718,4.028,4.028,0,0,1,.165.7c.091.435.209,1.113.348,1.931.278,1.64.613,3.915.9,6.424s.474,4.785.579,6.459c.048.826.083,1.5.1,1.962A3.83,3.83,0,0,1,274.522,323.733Z" transform="translate(-214.652 -249.57)" fill="#fff"/>
    <path id="Path_36117" data-name="Path 36117" d="M285.746,323.832a4.492,4.492,0,0,1-.035-.731v-1.992c0-1.679-.061-4-.178-6.559s-.3-4.876-.435-6.55c-.07-.8-.126-1.475-.17-1.979a5.076,5.076,0,0,1-.039-.731,3.969,3.969,0,0,1,.126.718c.07.465.152,1.144.244,1.979.183,1.67.383,3.988.509,6.55s.139,4.889.113,6.572c0,.839-.03,1.522-.052,1.992a5.015,5.015,0,0,1-.083.731Z" transform="translate(-221.692 -249.434)" fill="#fff"/>
    <g id="Group_12363" data-name="Group 12363" transform="translate(49.218 62.416)" opacity="0.3">
      <path id="Path_36118" data-name="Path 36118" d="M252.9,328.826a3.649,3.649,0,0,0,2.292.557,7.282,7.282,0,0,0,2.314-.6,6.989,6.989,0,0,0,2.631-1.74,6.119,6.119,0,0,0,1.3-3.079,18.077,18.077,0,0,0,.113-3.4.222.222,0,0,0-.035-.139.17.17,0,0,0-.244,0,.543.543,0,0,0-.135.239,12.614,12.614,0,0,1-8.39,7.934" transform="translate(-252.75 -320.371)"/>
    </g>
    <path id="Path_36119" data-name="Path 36119" d="M222.683,379.823l-2.658-4.985-5.976-27.972s-5.5-3.158-10,3.762c-.178.278,6.194,20.313,7.973,25.884l.248,5.333s-.313,6.311,0,6.864a2.566,2.566,0,0,0,1.1.87,1.534,1.534,0,0,0,1.579,1.74s.157,1.74,1.5,1.5a2.579,2.579,0,0,0,1.818-1.1s0,2.205,1.183,1.97,1.374-1.183,1.592-1.5a24.448,24.448,0,0,0,.47-3.554l-.022-5.341,3.079,2.5c.87.435,2.2.992,2.936.326Z" transform="translate(-176.01 -272.52)" fill="#ffbe9d"/>
    <path id="Path_36120" data-name="Path 36120" d="M244.022,430.92a9.613,9.613,0,0,1,.174,2.879c-.035.739-.065,1.414-.1,2.031a3.319,3.319,0,0,1-.078.839,13.338,13.338,0,0,1-.052-2.879C244.048,432.208,243.952,430.929,244.022,430.92Z" transform="translate(-198.541 -320.42)" fill="#eb996e"/>
    <path id="Path_36121" data-name="Path 36121" d="M236.255,439.48a30.919,30.919,0,0,1,.07,5.285A30.919,30.919,0,0,1,236.255,439.48Z" transform="translate(-194.166 -325.257)" fill="#eb996e"/>
    <path id="Path_36122" data-name="Path 36122" d="M229.345,441.71a7.194,7.194,0,0,1-.352,3.654c-.061,0,.1-.822.187-1.827A16.7,16.7,0,0,1,229.345,441.71Z" transform="translate(-190.1 -326.517)" fill="#eb996e"/>
    <path id="Path_36123" data-name="Path 36123" d="M225.23,440.29a6.345,6.345,0,0,1-.235,2.379,3.166,3.166,0,0,1,0-1.2A3.309,3.309,0,0,1,225.23,440.29Z" transform="translate(-187.817 -325.715)" fill="#eb996e"/>
  </g>
  <g id="freepik--speech-bubble--inject-4" transform="translate(52.966 24.892)">
    <path id="Path_36124" data-name="Path 36124" d="M188.7,143.147l-4-7.055a18.894,18.894,0,1,0-4.528,5.037h0Z" transform="translate(-149.665 -107.262)" fill="#fff"/>
    <path id="Path_36125" data-name="Path 36125" d="M188.635,143.113l-8.547-1.957a.052.052,0,0,1-.043-.065s0,0,0-.022h0l.078.078a19.176,19.176,0,0,1-3.88,2.34,18.911,18.911,0,0,1-5.154,1.483,16.817,16.817,0,0,1-2.984.148c-.518-.026-1.04-.039-1.566-.083l-1.6-.244a19.034,19.034,0,0,1-11.792-7.568,18.829,18.829,0,0,1-3.188-7.29,19.238,19.238,0,0,1,.222-8.395,18.634,18.634,0,0,1,4.045-7.76l.77-.87c.257-.287.557-.522.831-.783a6.823,6.823,0,0,1,.87-.744l.9-.679a7.989,7.989,0,0,1,.94-.622l.957-.578,1-.487a8.783,8.783,0,0,1,1.013-.435,19.225,19.225,0,0,1,8.456-1.3,18.577,18.577,0,0,1,7.764,2.292,19.138,19.138,0,0,1,8.938,11.044,20.316,20.316,0,0,1,.822,6.137,18.843,18.843,0,0,1-.922,5.3,19.181,19.181,0,0,1-1.9,4.062v-.057l3.954,7.081-4.058-7.051a.056.056,0,0,1,0-.052,19.216,19.216,0,0,0,1.857-4.045,18.636,18.636,0,0,0,.9-5.263,20.356,20.356,0,0,0-.831-6.089,19,19,0,0,0-8.882-10.9,18.4,18.4,0,0,0-7.677-2.257,19.038,19.038,0,0,0-8.36,1.3,8.9,8.9,0,0,0-1,.435l-.987.478-.948.574a8.122,8.122,0,0,0-.926.613l-.9.67c-.3.217-.561.5-.844.739a8.038,8.038,0,0,0-.818.77l-.761.839a18.411,18.411,0,0,0-4,7.668,19.051,19.051,0,0,0-.226,8.295,18.669,18.669,0,0,0,3.145,7.212,18.882,18.882,0,0,0,11.657,7.516l1.579.244c.522.044,1.04.057,1.548.087a16.633,16.633,0,0,0,2.966-.139,18.756,18.756,0,0,0,5.137-1.444,19.14,19.14,0,0,0,3.867-2.3.057.057,0,0,1,.083,0,.065.065,0,0,1,0,.07h0l-.03-.091Z" transform="translate(-149.604 -107.228)" fill="#263238"/>
    <path id="Path_36126" data-name="Path 36126" d="M175.867,142.177a2.61,2.61,0,0,0-.939-.244,2.81,2.81,0,0,0-2.588.957c2.04,1.183,4.819,2.753,6.807,3.888l2.51-1.435C179.847,144.348,177.577,143.1,175.867,142.177Z" transform="translate(-162.451 -126.818)" fill="#00ae9f"/>
    <g id="Group_12364" data-name="Group 12364" transform="translate(9.889 15.08)">
      <path id="Path_36127" data-name="Path 36127" d="M175.867,142.177a2.61,2.61,0,0,0-.939-.244,2.81,2.81,0,0,0-2.588.957c2.04,1.183,4.819,2.753,6.807,3.888l2.51-1.435C179.847,144.348,177.577,143.1,175.867,142.177Z" transform="translate(-172.34 -141.898)" fill="#5e2d77"/>
    </g>
    <path id="Path_36128" data-name="Path 36128" d="M183.378,146.128l-.091-.078c-.626-.361-1.3-1.048-1.923-1.035-.239,0-.5.213-1.122.561-1.035.587-2.779,1.609-3.823,2.175a3.839,3.839,0,0,1-2.988.539,4.28,4.28,0,0,1-1.4-.848l11.344-6.577c-.057-.17-.117-.331-.174-.5a3.249,3.249,0,1,1,2.718,2.175,1.483,1.483,0,0,0-.757.152c-.435.209-.835.474-1.353.77.87.391,1.466,1.018,2.488.922a3.067,3.067,0,0,1,3.088,2.253,3.249,3.249,0,1,1-6.185-.074C183.252,146.441,183.326,146.293,183.378,146.128Zm2.9-5.219a1.553,1.553,0,0,0,1.57-1.583,1.575,1.575,0,0,0-1.557-1.548,1.6,1.6,0,0,0-1.583,1.592,1.579,1.579,0,0,0,1.57,1.531Zm0,8.3a1.575,1.575,0,0,0,1.588-1.518,1.549,1.549,0,0,0-1.54-1.614,1.583,1.583,0,0,0-1.6,1.509,1.6,1.6,0,0,0,1.535,1.614Z" transform="translate(-162.276 -123.522)" fill="#5e2d77"/>
    <path id="Path_36129" data-name="Path 36129" d="M192.988,151.915a1.011,1.011,0,0,0-.344-.522.661.661,0,0,0-.613-.074.644.644,0,0,0,0,1.2.661.661,0,0,0,.613-.074c.322-.231.3-.535.344-.526s.035.07,0,.191a.726.726,0,0,1-.261.461.813.813,0,0,1-.783.144.839.839,0,0,1,0-1.588.813.813,0,0,1,.783.144.718.718,0,0,1,.261.457C193.023,151.845,193,151.915,192.988,151.915Z" transform="translate(-173.208 -132.006)" fill="#efeaf1"/>
    <path id="Path_36130" data-name="Path 36130" d="M193.527,151.73a2.24,2.24,0,0,1-.23.152l-.648.391-2.144,1.261-2.175,1.235-.661.365a1.614,1.614,0,0,1-.248.126,1.837,1.837,0,0,1,.231-.157l.648-.391,2.144-1.257,2.175-1.235.661-.37a1.8,1.8,0,0,1,.248-.122Z" transform="translate(-170.972 -132.373)" fill="#efeaf1"/>
    <path id="Path_36131" data-name="Path 36131" d="M182.926,147.73a.867.867,0,0,1-.1.074l-.313.2-1.157.718c-.974.592-2.327,1.4-3.845,2.257l-3.875,2.2-1.2.635-.322.174-.113.057s.035-.026.1-.07l.313-.191,1.166-.683,3.867-2.223c1.514-.87,2.871-1.657,3.858-2.231l1.17-.674.322-.183Z" transform="translate(-162.259 -130.113)" fill="#efeaf1"/>
  </g>
  <g id="freepik--Stars--inject-4" transform="translate(143.153 33.896)">
    <path id="Path_36132" data-name="Path 36132" d="M359.286,202.18l.826,1.509,1.509.826-1.509.826-.826,1.509-.826-1.509-1.509-.826,1.509-.826Z" transform="translate(-356.95 -169.884)" fill="#fcb116"/>
    <path id="Path_36133" data-name="Path 36133" d="M375,153.92l.857-.057.692-.513.057.861.513.692-.861.057-.692.509-.057-.857Z" transform="translate(-367.149 -142.293)" fill="#00ae9f"/>
    <path id="Path_36134" data-name="Path 36134" d="M694.86,311.72l.857-.057.692-.513.057.861.513.692-.861.057-.692.509-.057-.857Z" transform="translate(-547.884 -231.457)" fill="#fcb116"/>
    <path id="Path_36135" data-name="Path 36135" d="M469.55,213l.857-.057.7-.509.057.857.509.692-.857.057-.7.509-.052-.857Z" transform="translate(-420.574 -175.676)" fill="#fcb116"/>
    <path id="Path_36136" data-name="Path 36136" d="M481.57,128.5l.857-.057.692-.509.057.857.509.692-.857.057-.692.513-.057-.861Z" transform="translate(-427.366 -127.93)" fill="#fcb116"/>
    <path id="Path_36137" data-name="Path 36137" d="M421.02,178.958l1.3-.752.692-1.335.753,1.3,1.34.7-1.3.748-.7,1.34-.753-1.3Z" transform="translate(-393.152 -155.583)" fill="#fcb116"/>
    <path id="Path_36138" data-name="Path 36138" d="M673.07,349.468l1.3-.753.692-1.335.752,1.3,1.335.692-1.305.753-.692,1.335-.752-1.3Z" transform="translate(-535.572 -251.929)" fill="#fcb116"/>
    <path id="Path_36139" data-name="Path 36139" d="M658,294.618l1.3-.752.7-1.335.752,1.3,1.335.692-1.3.752-.7,1.34-.748-1.309Z" transform="translate(-527.057 -220.936)" fill="#fcb116"/>
  </g>
</svg>
