<svg xmlns="http://www.w3.org/2000/svg" width="206.247" height="193.864" viewBox="0 0 206.247 193.864">
  <g id="Empty-pana" transform="translate(-22.926 -41.247)">
    <g id="freepik--background-complete--inject-4" transform="translate(22.926 41.247)">
      <rect id="Rectangle_27055" data-name="Rectangle 27055" width="47.411" height="36.567" transform="translate(65.589 153.636)" fill="#efeaf1"/>
      <path id="Path_34882" data-name="Path 34882" d="M244.928,414.937c-.064,0-.118-8.153-.118-18.209s.055-18.209.118-18.209.118,8.153.118,18.209S244.992,414.937,244.928,414.937Z" transform="translate(-143.805 -224.989)" fill="#e0e0e0"/>
      <rect id="Rectangle_27056" data-name="Rectangle 27056" width="3.633" height="4.111" transform="translate(105.347 181.882)" fill="#fafafa"/>
      <rect id="Rectangle_27057" data-name="Rectangle 27057" width="5.385" height="7.802" transform="translate(80.056 153.732)" fill="#5e2d77" opacity="0.1"/>
      <rect id="Rectangle_27058" data-name="Rectangle 27058" width="5.385" height="7.802" transform="translate(80.056 182.292)" fill="#5e2d77" opacity="0.1"/>
      <rect id="Rectangle_27059" data-name="Rectangle 27059" width="59.783" height="46.109" transform="translate(139.247 144.468)" fill="#efeaf1"/>
      <path id="Path_34883" data-name="Path 34883" d="M427.1,404.244c-.064,0-.118-10.274-.118-22.952s.055-22.952.118-22.952.118,10.274.118,22.952S427.167,404.244,427.1,404.244Z" transform="translate(-243.049 -213.995)" fill="#e0e0e0"/>
      <rect id="Rectangle_27060" data-name="Rectangle 27060" width="4.584" height="5.18" transform="translate(189.375 180.079)" fill="#fafafa"/>
      <rect id="Rectangle_27061" data-name="Rectangle 27061" width="6.792" height="9.837" transform="translate(157.483 144.586)" fill="#5e2d77" opacity="0.1"/>
      <rect id="Rectangle_27062" data-name="Rectangle 27062" width="6.792" height="9.837" transform="translate(157.483 180.598)" fill="#5e2d77" opacity="0.1"/>
      <path id="Path_34884" data-name="Path 34884" d="M77.994,360.165a12.824,12.824,0,0,1,7.957-.965,6.6,6.6,0,0,1,3.928,1.753c.983,1.083,1.165,2.991.041,3.924a3.772,3.772,0,0,1-2.481.628c-2.1-.027-4.434-.4-6.114.869-.961.724-1.6,1.921-2.731,2.276a2.686,2.686,0,0,1-2.977-1.325,4.62,4.62,0,0,1-.337-3.419,5.212,5.212,0,0,1,2.713-3.742Z" transform="translate(-51.348 -214.341)" fill="#efeaf1"/>
      <path id="Path_34885" data-name="Path 34885" d="M67.613,311.845c1.479,2.112,4.356,1.416,5.69.123a10.727,10.727,0,0,0,2.408-4.939c1.174-4.074,2.353-8.349,1.484-12.5a6.915,6.915,0,0,0-1.6-3.4,3.642,3.642,0,0,0-3.432-1.143c-1.452.382-2.353,1.821-3,3.155a29.721,29.721,0,0,0-2.941,12.778,10.38,10.38,0,0,0,1.393,5.918" transform="translate(-46.512 -176.722)" fill="#efeaf1"/>
      <path id="Path_34886" data-name="Path 34886" d="M39.967,323a7.685,7.685,0,0,0,1.2-7.074,13.649,13.649,0,0,0-4.193-6.082,22.579,22.579,0,0,0-7.5-4.425,8,8,0,0,0-3.378-.574,3.537,3.537,0,0,0-2.831,1.712c-.792,1.507-.032,3.332.788,4.825a57.292,57.292,0,0,0,4.925,7.507c1.479,1.9,3.186,3.783,5.422,4.643s4.593.76,5.786-.8" transform="translate(-22.926 -184.849)" fill="#efeaf1"/>
      <path id="Path_34887" data-name="Path 34887" d="M69.03,384.838a4.584,4.584,0,0,0,.137-.956c.068-.7.15-1.58.255-2.622a38.237,38.237,0,0,1,.587-3.842,29.414,29.414,0,0,1,1.4-4.552,16.843,16.843,0,0,1,2.317-4.1,8.749,8.749,0,0,1,2.927-2.435,8.24,8.24,0,0,1,2.467-.765,4.5,4.5,0,0,0,.956-.141,4.424,4.424,0,0,0-.97,0,7.453,7.453,0,0,0-2.572.669,8.622,8.622,0,0,0-3.091,2.458,16.237,16.237,0,0,0-2.4,4.183,27.835,27.835,0,0,0-1.366,4.611,33.389,33.389,0,0,0-.514,3.892c-.082,1.115-.114,2.017-.127,2.64a4.553,4.553,0,0,0,0,.956Z" transform="translate(-48.029 -217.842)" fill="#5e2d77" opacity="0.2"/>
      <path id="Path_34888" data-name="Path 34888" d="M69.226,351.811a1.935,1.935,0,0,0,.027-.455v-1.275c0-1.106,0-2.709.055-4.684.1-3.951.455-8.194,1.1-14.2.624-5.64,1.457-12.2,2.34-16.465.187-.97.378-1.844.56-2.608s.314-1.429.455-1.962.219-.91.3-1.238a1.865,1.865,0,0,0,.077-.455,1.82,1.82,0,0,0-.155.419c-.1.323-.223.724-.373,1.22s-.332,1.188-.523,1.948-.41,1.634-.615,2.6a144.3,144.3,0,0,0-2.463,15.277c-.656,6.009-.951,11.48-.979,15.441,0,1.98,0,3.587.068,4.693.032.514.059.938.077,1.27a1.962,1.962,0,0,0,.05.469Z" transform="translate(-48.043 -186.826)" fill="#5e2d77" opacity="0.2"/>
      <path id="Path_34889" data-name="Path 34889" d="M52.635,345.149a8.558,8.558,0,0,0,0-1.334c-.05-.856-.168-2.089-.41-3.605a47.443,47.443,0,0,0-1.193-5.253,43.4,43.4,0,0,0-2.2-6.218,33.058,33.058,0,0,0-6.45-10.042,15.977,15.977,0,0,0-1.52-1.411c-.232-.2-.455-.4-.646-.551l-.564-.405a8.066,8.066,0,0,0-1.124-.719,40.037,40.037,0,0,1,3.674,3.278A34.87,34.87,0,0,1,48.492,328.9a48.316,48.316,0,0,1,2.208,6.159q.751,2.567,1.243,5.2c.273,1.5.455,2.731.528,3.569A8.357,8.357,0,0,0,52.635,345.149Z" transform="translate(-31.425 -190.716)" fill="#5e2d77" opacity="0.2"/>
      <path id="Path_34890" data-name="Path 34890" d="M45.56,417.86l1.056,14.489H65.23l1.056-14.489Z" transform="translate(-35.257 -246.421)" fill="#efeaf1"/>
      <rect id="Rectangle_27063" data-name="Rectangle 27063" width="24.741" height="5.708" transform="translate(8.505 165.731)" fill="#efeaf1"/>
      <path id="Path_34891" data-name="Path 34891" d="M41.61,448.47v1.58H65.946v-1.58Z" transform="translate(-33.105 -263.097)" fill="#dfd5e4"/>
      <path id="Path_34892" data-name="Path 34892" d="M45.308,454.346,44.17,451.56H66.453l-1.329,2.786Z" transform="translate(-34.499 -264.78)" fill="#dfd5e4"/>
      <path id="Path_34893" data-name="Path 34893" d="M66.316,425.836a.675.675,0,0,1-.086.137c-.073.1-.168.219-.278.369l-1.083,1.366-.05.064-.046-.064-2.663-3.683h.15l-2.622,3.71-.082.118-.091-.109-3.109-3.7h.178l-.168.219-2.781,3.482-.1.118-.082-.123-2.627-3.71h.155L47.7,427.707l-.055.068L47.6,427.7l-1.011-1.675c-.109-.182-.191-.332-.259-.455a.7.7,0,0,1-.082-.164.7.7,0,0,1,.109.146l.287.432,1.061,1.671h-.1l3.186-3.724.077-.1.073.1,2.649,3.7H53.42l2.772-3.492c.059-.073.118-.146.168-.214l.091-.114.091.109,3.1,3.71h-.173l2.649-3.692.077-.109.073.109c1.052,1.5,1.944,2.768,2.608,3.724h-.1l1.129-1.366c.123-.141.223-.255.3-.351a1.032,1.032,0,0,1,.1-.109Z" transform="translate(-35.633 -249.662)" fill="#fff"/>
      <path id="Path_34894" data-name="Path 34894" d="M66.731,417.514c0,.064-4.666.118-10.415.118s-10.415-.055-10.415-.118,4.661-.114,10.415-.114S66.731,417.45,66.731,417.514Z" transform="translate(-35.442 -246.17)" fill="#efeaf1"/>
      <rect id="Rectangle_27064" data-name="Rectangle 27064" width="3.815" height="18.982" transform="matrix(1, -0.005, 0.005, 1, 158.013, 7.101)" fill="#e0e0e0"/>
      <rect id="Rectangle_27065" data-name="Rectangle 27065" width="9.878" height="10.479" transform="matrix(1, -0.005, 0.005, 1, 124.965, 7.184)" fill="#ebebeb"/>
      <rect id="Rectangle_27066" data-name="Rectangle 27066" width="9.878" height="10.479" transform="matrix(1, -0.005, 0.005, 1, 134.797, 7.131)" fill="#f5f5f5"/>
      <path id="Path_34895" data-name="Path 34895" d="M297.385,63.024q9.851.082,19.711-.091a.1.1,0,1,0,0-.209c-6.564-.036-13.147,0-19.711.123a.091.091,0,0,0,0,.178Z" transform="translate(-172.409 -52.94)" fill="#e0e0e0"/>
      <rect id="Rectangle_27067" data-name="Rectangle 27067" width="17.949" height="8.54" transform="matrix(1, -0.005, 0.005, 1, 118.807, 17.533)" fill="#ebebeb"/>
      <rect id="Rectangle_27068" data-name="Rectangle 27068" width="17.949" height="8.54" transform="matrix(1, -0.005, 0.005, 1, 136.669, 17.436)" fill="#f5f5f5"/>
      <path id="Path_34896" data-name="Path 34896" d="M283.831,84.5c11.922.132,23.885,0,35.812-.178a.1.1,0,1,0,0-.209c-11.922-.064-23.89-.059-35.812.2a.091.091,0,0,0,0,.182Z" transform="translate(-165.014 -64.579)" fill="#e0e0e0"/>
      <rect id="Rectangle_27069" data-name="Rectangle 27069" width="69.538" height="3.059" transform="translate(112.103 26.08)" fill="#e0e0e0"/>
      <rect id="Rectangle_27070" data-name="Rectangle 27070" width="2.822" height="10.438" transform="translate(123.488 27.551)" fill="#e0e0e0"/>
      <rect id="Rectangle_27071" data-name="Rectangle 27071" width="2.822" height="10.438" transform="translate(165.627 27.551)" fill="#e0e0e0"/>
      <rect id="Rectangle_27072" data-name="Rectangle 27072" width="3.815" height="26.107" transform="matrix(1, -0.005, 0.005, 1, 161.735, 0.021)" fill="#ebebeb"/>
      <rect id="Rectangle_27073" data-name="Rectangle 27073" width="5.927" height="21.158" transform="matrix(1, -0.005, 0.005, 1, 165.58, 4.893)" fill="#f5f5f5"/>
      <path id="Path_34897" data-name="Path 34897" d="M392.518,60.781a41.993,41.993,0,0,1-5.918,0A43.893,43.893,0,0,1,392.518,60.781Z" transform="translate(-221.051 -51.834)" fill="#e0e0e0"/>
      <path id="Path_34898" data-name="Path 34898" d="M392.507,58.875a43.894,43.894,0,0,1-5.927,0,41.994,41.994,0,0,1,5.918,0Z" transform="translate(-221.04 -50.794)" fill="#e0e0e0"/>
      <path id="Path_34899" data-name="Path 34899" d="M392.518,91.311a41.994,41.994,0,0,1-5.918,0A43.893,43.893,0,0,1,392.518,91.311Z" transform="translate(-221.051 -68.467)" fill="#e0e0e0"/>
      <path id="Path_34900" data-name="Path 34900" d="M392.518,89.355a43.9,43.9,0,0,1-5.918,0,41.993,41.993,0,0,1,5.918,0Z" transform="translate(-221.051 -67.399)" fill="#e0e0e0"/>
      <path id="Path_34901" data-name="Path 34901" d="M393.18,73.807c-.055,0-.1-2.135-.1-4.766s.046-4.771.1-4.771.1,2.135.1,4.771S393.239,73.807,393.18,73.807Z" transform="translate(-224.581 -53.79)" fill="#e0e0e0"/>
      <rect id="Rectangle_27074" data-name="Rectangle 27074" width="6.45" height="15.969" transform="translate(171.536 10.066)" fill="#ebebeb"/>
      <circle id="Ellipse_1622" data-name="Ellipse 1622" cx="1.097" cy="1.097" r="1.097" transform="translate(162.486 3.37)" fill="#e0e0e0"/>
      <rect id="Rectangle_27075" data-name="Rectangle 27075" width="0.678" height="15.532" transform="translate(163.246 7.485)" fill="#e0e0e0"/>
    </g>
    <g id="freepik--Floor--inject-4" transform="translate(28.577 231.455)">
      <path id="Path_34902" data-name="Path 34902" d="M230.772,459.208c0,.068-43.755.118-97.712.118s-97.721-.05-97.721-.118,43.746-.118,97.721-.118S230.772,459.145,230.772,459.208Z" transform="translate(-35.34 -459.09)" fill="#263238"/>
    </g>
    <g id="freepik--Character--inject-4" transform="translate(41.354 61.437)">
      <path id="Path_34903" data-name="Path 34903" d="M140.8,92.35a14.567,14.567,0,0,1,3.287,9.314c-.023,1.921-.378,4.038.742,5.6.847,1.184,2.394,1.78,3.082,3.064.829,1.543.123,3.5.633,5.171.719,2.376,3.505,3.373,5.158,5.226a6.61,6.61,0,0,1,1.366,6.045,6.792,6.792,0,0,1-4.27,4.516,4.425,4.425,0,0,1-3.378-.055,5.81,5.81,0,0,1-2.367-2.813c-1.1-2.194-10.734-14.052-11.28-16.447" transform="translate(-101.74 -89.277)" fill="#263238"/>
      <path id="Path_34904" data-name="Path 34904" d="M111.635,86.1c-3.942-.637-7.739,1.98-9.391,5.613s-1.707,7.739-1.821,11.745-.405,8.157-2.44,11.59c-1.293,2.18-3.3,4.1-3.61,6.605-.282,2.249.883,4.516.5,6.751-.337,1.948-1.821,3.642-1.762,5.613.073,2.376,2.517,4.165,4.889,4.229s4.593-1.179,6.455-2.654a24.809,24.809,0,0,0,7.088-9.009" transform="translate(-79.587 -85.818)" fill="#263238"/>
      <path id="Path_34905" data-name="Path 34905" d="M119.491,96.813a7.461,7.461,0,0,1,6.71-8.353,7.607,7.607,0,0,1,8.107,6.532,78.3,78.3,0,0,1,.956,8.23c-.05,3.828-2.276,5.317-3.187,5.768a5.126,5.126,0,0,1-1.011.25h0v.027l.847,4.4c.387,2.882-1.22,5.463-4.1,5.868s-5.139-1.794-5.581-4.675Z" transform="translate(-93.93 -87.14)" fill="#ffbe9d"/>
      <path id="Path_34906" data-name="Path 34906" d="M147.509,105.93c-.064.091-.569-.178-1.215-.082s-1.079.487-1.161.419,0-.182.2-.364a1.675,1.675,0,0,1,.91-.455,1.593,1.593,0,0,1,.983.164C147.454,105.757,147.54,105.894,147.509,105.93Z" transform="translate(-107.913 -96.403)" fill="#263238"/>
      <path id="Path_34907" data-name="Path 34907" d="M134.849,109.013c-.064.091-.569-.182-1.22-.087s-1.074.492-1.156.423,0-.187.2-.364a1.675,1.675,0,0,1,.91-.455,1.63,1.63,0,0,1,.983.168C134.789,108.84,134.88,108.972,134.849,109.013Z" transform="translate(-101.016 -98.083)" fill="#263238"/>
      <path id="Path_34908" data-name="Path 34908" d="M141.612,110.827a4.276,4.276,0,0,1,1.024-.341c.164-.041.314-.1.328-.214a.851.851,0,0,0-.182-.455l-.678-1.211a21.459,21.459,0,0,1-1.58-3.136,19.2,19.2,0,0,1,1.821,3c.232.419.455.819.656,1.2a.988.988,0,0,1,.182.637.414.414,0,0,1-.237.282,1.157,1.157,0,0,1-.278.082,4.1,4.1,0,0,1-1.056.155Z" transform="translate(-105.418 -96.424)" fill="#263238"/>
      <path id="Path_34909" data-name="Path 34909" d="M137.877,133.136A10.441,10.441,0,0,1,132,132.28s1.47,3.164,6.109,2.039Z" transform="translate(-100.776 -111.031)" fill="#eb996e"/>
      <path id="Path_34910" data-name="Path 34910" d="M133.51,105.491c-.036.187-.7.2-1.443.4s-1.334.5-1.457.355c-.055-.068.027-.25.25-.455a2.6,2.6,0,0,1,2.208-.574C133.369,105.287,133.51,105.4,133.51,105.491Z" transform="translate(-100.01 -96.26)" fill="#263238"/>
      <path id="Path_34911" data-name="Path 34911" d="M146.559,102.751c-.091.164-.56.077-1.1.146s-.979.246-1.106.1c-.055-.068,0-.223.173-.391a1.511,1.511,0,0,1,.856-.373,1.552,1.552,0,0,1,.91.168C146.513,102.528,146.6,102.669,146.559,102.751Z" transform="translate(-107.496 -94.657)" fill="#263238"/>
      <path id="Path_34912" data-name="Path 34912" d="M134.634,110.746a.537.537,0,0,0,.615.455.519.519,0,0,0,.455-.583.542.542,0,0,0-.615-.455.514.514,0,0,0-.455.583Z" transform="translate(-102.208 -98.979)" fill="#263238"/>
      <path id="Path_34913" data-name="Path 34913" d="M147.244,108.016a.542.542,0,0,0,.615.455.519.519,0,0,0,.455-.583.542.542,0,0,0-.615-.455.514.514,0,0,0-.455.583Z" transform="translate(-109.078 -97.491)" fill="#263238"/>
      <path id="Path_34914" data-name="Path 34914" d="M143.9,119.957a.8.8,0,0,0-.947.391.833.833,0,0,0,.114.96.733.733,0,0,0,.947.068.91.91,0,0,0,.3-.619.874.874,0,0,0-.146-.619.5.5,0,0,0-.578-.173" transform="translate(-106.69 -104.297)" fill="#eb996e"/>
      <path id="Path_34915" data-name="Path 34915" d="M138.385,90.334a5.863,5.863,0,0,0-2.495-3.505A6.51,6.51,0,0,0,132.4,85.6a4.784,4.784,0,0,0-3.432,1.247,3.569,3.569,0,0,0-1.056,2.481l.073-.637a2.322,2.322,0,0,0,0,1.607h0c.1.278.232.56.341.838a3.6,3.6,0,0,0,1.7,1.853,2.34,2.34,0,0,0,1.138.278,1.366,1.366,0,0,0,1.033-.505,2.276,2.276,0,0,0,.246-1.63,3.892,3.892,0,0,0,1.243,1.366,1.366,1.366,0,0,0,1.712-.2,1.787,1.787,0,0,0,0-1.739,3.441,3.441,0,0,0,1.425,1.225,1.27,1.27,0,0,0,1.015.109.988.988,0,0,0,.528-.683A2.085,2.085,0,0,0,138.385,90.334Z" transform="translate(-98.512 -85.6)" fill="#263238"/>
      <path id="Path_34916" data-name="Path 34916" d="M136.486,92.244c-.041,0-.032-.542-.209-1.366a5.208,5.208,0,0,0-1.57-2.854,3.728,3.728,0,0,0-1.575-.851,3.423,3.423,0,0,0-1.466-.036,4.229,4.229,0,0,0-1.266.524,1.223,1.223,0,0,1,.278-.259,2.8,2.8,0,0,1,.951-.428,3.4,3.4,0,0,1,1.552,0,3.856,3.856,0,0,1,1.684.91,5.094,5.094,0,0,1,1.58,3,6.59,6.59,0,0,1,.082,1.029A.974.974,0,0,1,136.486,92.244Z" transform="translate(-99.904 -86.299)" fill="#455a64"/>
      <path id="Path_34917" data-name="Path 34917" d="M196.885,192.6l-17.5-6.942s-8.963-11.758-8.777-11.986l-6.3,6.892,9.15,12.377,21.208,4.971,3.642-1.011C197.509,193.035,196.885,192.6,196.885,192.6Z" transform="translate(-118.378 -133.579)" fill="#ffbe9d"/>
      <path id="Path_34918" data-name="Path 34918" d="M122.824,140.47l-2.385-.91-10.3,1.306v1.821l-.3.036a21.1,21.1,0,0,0-6.3,2.449,10.761,10.761,0,0,0-5.007,10.957c.419,2.6,1.229,5.768,2.8,7.6,2.991,3.5,5.722-.824,5.722-.824s1.875,4.279,1.766,6.3a55.209,55.209,0,0,1-1.079,6.332.332.332,0,0,0,.269.4l21.723,4.02.1-5.312-.692-21.85-.979-8.485S128.2,140.261,122.824,140.47Z" transform="translate(-82.464 -114.997)" fill="#5e2d77"/>
      <path id="Path_34919" data-name="Path 34919" d="M163.07,146.9l8.285,11.968-6.669,8.121Z" transform="translate(-117.703 -118.995)" fill="#5e2d77"/>
      <path id="Path_34920" data-name="Path 34920" d="M164.064,178.985a5.228,5.228,0,0,1-.032-.774c0-.537,0-1.243-.027-2.1a63.809,63.809,0,0,0-.5-6.906c-.341-2.686-.865-5.085-1.261-6.828l-.483-2.048a5.28,5.28,0,0,1-.155-.756,4.346,4.346,0,0,1,.246.733c.141.455.332,1.17.551,2.035a55.789,55.789,0,0,1,1.338,6.828,53.579,53.579,0,0,1,.428,6.937c0,.91-.023,1.611-.05,2.108A4.551,4.551,0,0,1,164.064,178.985Z" transform="translate(-116.907 -125.898)" fill="#263238"/>
      <path id="Path_34921" data-name="Path 34921" d="M109.2,162.152c0,.036-.628.032-1.634.082a26.47,26.47,0,0,0-3.906.505,27.064,27.064,0,0,0-3.787,1.088c-.947.351-1.516.61-1.534.574a1.624,1.624,0,0,1,.382-.223c.25-.137.624-.31,1.093-.505a21.2,21.2,0,0,1,7.739-1.6c.51,0,.91,0,1.206.027A1.437,1.437,0,0,1,109.2,162.152Z" transform="translate(-82.439 -127.26)" fill="#fafafa"/>
      <path id="Path_34922" data-name="Path 34922" d="M155.775,174.28a4.029,4.029,0,0,1-1.033.228,22.973,22.973,0,0,1-5.085.173,4.1,4.1,0,0,1-1.047-.155,5.966,5.966,0,0,1,1.056,0H152.2c.988,0,1.88-.1,2.526-.159A5.816,5.816,0,0,1,155.775,174.28Z" transform="translate(-109.825 -133.911)" fill="#fafafa"/>
      <path id="Path_34923" data-name="Path 34923" d="M168.074,162.386a6.447,6.447,0,0,1-1.775,1.434,6.246,6.246,0,0,1-2.089.91c-.027-.064.91-.455,1.967-1.129A20.519,20.519,0,0,1,168.074,162.386Z" transform="translate(-118.323 -127.43)" fill="#fafafa"/>
      <path id="Path_34924" data-name="Path 34924" d="M159.134,150.2a8.585,8.585,0,0,1-5.194,2.185c0-.073,1.252-.264,2.69-.879S159.088,150.137,159.134,150.2Z" transform="translate(-112.729 -120.789)" fill="#fafafa"/>
      <path id="Path_34925" data-name="Path 34925" d="M151.93,194.636a2.174,2.174,0,0,1-.428.223c-.287.137-.7.3-1.229.5a22.71,22.71,0,0,1-4.229,1.074,22.335,22.335,0,0,1-4.356.241c-.56-.023-1.011-.064-1.32-.1a2.159,2.159,0,0,1-.478-.086,16.876,16.876,0,0,1,1.821.027,26.758,26.758,0,0,0,8.526-1.311C151.275,194.859,151.917,194.6,151.93,194.636Z" transform="translate(-105.074 -144.999)" fill="#fafafa"/>
      <path id="Path_34926" data-name="Path 34926" d="M141.143,208.19a1.767,1.767,0,0,1-.2.114l-.583.255c-.5.237-1.243.546-2.171.91a33.6,33.6,0,0,1-3.318,1.061,39.12,39.12,0,0,1-8.421,1.306c-1.311.05-2.49.046-3.482,0s-1.789-.118-2.34-.2l-.633-.086a.843.843,0,0,1-.219-.046.71.71,0,0,1,.223,0l.637.041c.551.046,1.366.091,2.335.118s2.167,0,3.469-.046a33.508,33.508,0,0,0,4.22-.455c1.489-.246,2.891-.542,4.156-.86s2.385-.678,3.314-1.011,1.684-.61,2.194-.819l.592-.232a1.1,1.1,0,0,1,.223-.055Z" transform="translate(-94.119 -152.385)" fill="#fafafa"/>
      <path id="Path_34927" data-name="Path 34927" d="M70.506,420.78,68.043,431.9l-4.493,8.235a1.17,1.17,0,0,0,.537,1.621h0a1.161,1.161,0,0,0,1.065-.05c2.085-1.2,9.737-5.677,9.869-6.5.159-.951,3.378-11.558,3.378-11.558Z" transform="translate(-63.408 -268.202)" fill="#ed278d"/>
      <g id="Group_11930" data-name="Group 11930" transform="translate(0.679 166.271)" opacity="0.6">
        <path id="Path_34928" data-name="Path 34928" d="M64.9,458.143l11.121-7.283-.118.455a1.757,1.757,0,0,1-.674,1.011c-.91.651-3.446,2.4-9.227,5.777a1.165,1.165,0,0,1-1.1.041Z" transform="translate(-64.9 -450.86)" fill="#fff"/>
      </g>
      <g id="Group_11931" data-name="Group 11931" transform="translate(9.968 162.094)" opacity="0.6">
        <path id="Path_34929" data-name="Path 34929" d="M85.74,441.723a.706.706,0,0,0-.405.851.678.678,0,0,0,.838.41.746.746,0,0,0,.428-.91.706.706,0,0,0-.91-.332" transform="translate(-85.306 -441.683)" fill="#fff"/>
      </g>
      <path id="Path_34930" data-name="Path 34930" d="M70.7,455.564a3.641,3.641,0,0,0-.76-1.1,3.537,3.537,0,0,0-1.215-.542c0-.032.159-.082.428-.055a1.821,1.821,0,0,1,.947.419,1.766,1.766,0,0,1,.574.847C70.746,455.4,70.723,455.564,70.7,455.564Z" transform="translate(-66.302 -286.224)" fill="#263238"/>
      <path id="Path_34931" data-name="Path 34931" d="M68.242,459.012c-.064.036-.332-.41-.865-.715a8.547,8.547,0,0,0-1.047-.405,1.3,1.3,0,0,1,1.174.187C68.11,458.43,68.306,459,68.242,459.012Z" transform="translate(-65 -288.385)" fill="#263238"/>
      <path id="Path_34932" data-name="Path 34932" d="M73.944,451.85a11.106,11.106,0,0,0-1.256-1.193,11.286,11.286,0,0,0-1.548-.787,2.6,2.6,0,0,1,1.693.583A2.549,2.549,0,0,1,73.944,451.85Z" transform="translate(-67.62 -284.049)" fill="#263238"/>
      <path id="Path_34933" data-name="Path 34933" d="M76.176,445.822c-.046.059-.6-.346-1.366-.569s-1.466-.187-1.47-.264a2.9,2.9,0,0,1,2.854.833Z" transform="translate(-68.819 -281.34)" fill="#263238"/>
      <path id="Path_34934" data-name="Path 34934" d="M77.772,438.669a5.756,5.756,0,0,0-1.425-.633,5.769,5.769,0,0,0-1.557,0c0-.027.141-.137.432-.223a2.545,2.545,0,0,1,2.24.455C77.694,438.487,77.79,438.651,77.772,438.669Z" transform="translate(-69.609 -277.433)" fill="#263238"/>
      <path id="Path_34935" data-name="Path 34935" d="M76.859,434.511a1.019,1.019,0,0,1,.091-.419,2.914,2.914,0,0,1,.6-1.015,1.338,1.338,0,0,1,.7-.483.482.482,0,0,1,.492.228.765.765,0,0,1,.05.546,1.652,1.652,0,0,1-1.766,1.138,1.921,1.921,0,0,1-1.589-1.42.683.683,0,0,1,.1-.546.455.455,0,0,1,.523-.123,1.661,1.661,0,0,1,.637.56,3.364,3.364,0,0,1,.542,1.051,1.047,1.047,0,0,1,.077.428,5.225,5.225,0,0,0-.76-1.366,1.539,1.539,0,0,0-.564-.455.246.246,0,0,0-.287.068.455.455,0,0,0-.046.36,1.716,1.716,0,0,0,1.384,1.193,1.434,1.434,0,0,0,1.516-.942.569.569,0,0,0,0-.382.255.255,0,0,0-.269-.127,1.2,1.2,0,0,0-.605.391A4.68,4.68,0,0,0,76.859,434.511Z" transform="translate(-69.952 -274.521)" fill="#263238"/>
      <g id="Group_11932" data-name="Group 11932" transform="translate(6.265 152.579)" opacity="0.3">
        <path id="Path_34936" data-name="Path 34936" d="M77.7,421.986l-.533,2.549,8.053,1.338.674-2.226-7.907-2.868Z" transform="translate(-77.17 -420.78)"/>
      </g>
      <path id="Path_34937" data-name="Path 34937" d="M147.093,429.39l-.665,8.886s8.813,3.642,8.849,5.317l-17.3-.669.455-13.893Z" transform="translate(-104.034 -272.696)" fill="#ed278d"/>
      <g id="Group_11933" data-name="Group 11933" transform="translate(36.565 164.614)" opacity="0.6">
        <path id="Path_34938" data-name="Path 34938" d="M144.26,447.229a.71.71,0,0,0-.519.788.683.683,0,0,0,.774.523.747.747,0,0,0,.546-.838.706.706,0,0,0-.865-.455" transform="translate(-143.734 -447.219)" fill="#fff"/>
      </g>
      <g id="Group_11934" data-name="Group 11934" transform="translate(33.955 168.825)" opacity="0.6">
        <path id="Path_34939" data-name="Path 34939" d="M138,457.872l.1-1.4,16.547,1.152s.76.364.651.91Z" transform="translate(-138 -456.47)" fill="#fff"/>
      </g>
      <path id="Path_34940" data-name="Path 34940" d="M155.255,449.066c0,.086-.428.109-.851.364s-.66.6-.737.564.068-.519.587-.819S155.278,448.988,155.255,449.066Z" transform="translate(-112.569 -283.564)" fill="#263238"/>
      <path id="Path_34941" data-name="Path 34941" d="M159.672,450.95c0,.087-.355.214-.656.56s-.4.719-.483.715-.118-.487.264-.91S159.672,450.859,159.672,450.95Z" transform="translate(-115.201 -284.615)" fill="#263238"/>
      <path id="Path_34942" data-name="Path 34942" d="M163.073,454.116c-.077,0-.178-.414.055-.865s.637-.624.669-.551-.219.31-.405.683S163.155,454.112,163.073,454.116Z" transform="translate(-117.655 -285.583)" fill="#263238"/>
      <path id="Path_34943" data-name="Path 34943" d="M154.815,444.287c-.036.073-.419-.059-.91-.046s-.856.15-.91.077.328-.36.91-.369S154.869,444.223,154.815,444.287Z" transform="translate(-112.21 -280.824)" fill="#263238"/>
      <g id="Group_11935" data-name="Group 11935" transform="translate(34.329 157.8)" opacity="0.3">
        <path id="Path_34944" data-name="Path 34944" d="M147.428,432.906l-.118,1.584-8.49-.41.059-1.83Z" transform="translate(-138.82 -432.25)"/>
      </g>
      <path id="Path_34945" data-name="Path 34945" d="M154.145,438.969a1.571,1.571,0,0,1-.865-.036,3.789,3.789,0,0,1-.91-.314,4.177,4.177,0,0,1-.487-.282,1.131,1.131,0,0,1-.255-.214.373.373,0,0,1,0-.455.455.455,0,0,1,.378-.177,1.29,1.29,0,0,1,.323.055,3.045,3.045,0,0,1,.528.209,2.971,2.971,0,0,1,.778.551c.387.387.51.71.483.724s-.223-.246-.619-.569a3.644,3.644,0,0,0-.756-.455,4.8,4.8,0,0,0-.492-.173c-.182-.055-.337-.059-.387,0s0,.046,0,.1a.859.859,0,0,0,.187.155,4.423,4.423,0,0,0,.455.278,4.628,4.628,0,0,0,.824.355A5.981,5.981,0,0,1,154.145,438.969Z" transform="translate(-111.427 -277.305)" fill="#263238"/>
      <path id="Path_34946" data-name="Path 34946" d="M156.76,437.742a1.434,1.434,0,0,1-.2-.847,3.05,3.05,0,0,1,.155-.942,3.27,3.27,0,0,1,.241-.514.724.724,0,0,1,.569-.419.41.41,0,0,1,.355.26,1.132,1.132,0,0,1,.073.319,1.9,1.9,0,0,1,0,.583,1.994,1.994,0,0,1-.405.879c-.355.455-.71.523-.719.5a3.783,3.783,0,0,0,.551-.619,1.967,1.967,0,0,0,.3-.8,1.82,1.82,0,0,0,0-.5c-.023-.182-.086-.337-.155-.319a.641.641,0,0,0-.314.273,3.356,3.356,0,0,0-.232.455,3.236,3.236,0,0,0-.2.856C156.728,437.41,156.806,437.742,156.76,437.742Z" transform="translate(-114.156 -275.959)" fill="#263238"/>
      <path id="Path_34947" data-name="Path 34947" d="M94.482,217.845s-2.731.123-4.552,9.464-15.7,85.029-15.7,85.029l10.065.091,18.964-71.96L102,314.669l10.224.783s7.67-82.071,7.739-86.846c.091-5.954-3.328-11.977-3.328-11.977Z" transform="translate(-69.304 -156.983)" fill="#263238"/>
      <path id="Path_34948" data-name="Path 34948" d="M143.245,217.55c.064,0-.983,5.349-2.335,11.917s-2.5,11.886-2.563,11.872.979-5.349,2.331-11.917S143.195,217.536,143.245,217.55Z" transform="translate(-104.232 -157.485)" fill="#455a64"/>
      <path id="Path_34949" data-name="Path 34949" d="M151.618,220.441c0-.027.273-.109.587.168a.833.833,0,0,1,.273.642.806.806,0,0,1-.514.692.815.815,0,0,1-.856-.114.851.851,0,0,1-.269-.646c0-.419.282-.564.287-.537a1.3,1.3,0,0,0-.118.533.7.7,0,0,0,.241.482.651.651,0,0,0,1.011-.423.692.692,0,0,0-.173-.51C151.864,220.468,151.613,220.477,151.618,220.441Z" transform="translate(-111.039 -159.042)" fill="#455a64"/>
      <path id="Path_34950" data-name="Path 34950" d="M150.37,228.548c0-.027.282,0,.455.378a.774.774,0,0,1-1.443.56.792.792,0,0,1,.077-.665c.214-.341.505-.332.5-.3a.88.88,0,0,0-.351.382.674.674,0,0,0,0,.51.605.605,0,0,0,1.02.082.678.678,0,0,0,.059-.51C150.552,228.671,150.347,228.579,150.37,228.548Z" transform="translate(-110.223 -163.452)" fill="#455a64"/>
      <path id="Path_34951" data-name="Path 34951" d="M119.133,220.68a1.744,1.744,0,0,1-.118.455,7.588,7.588,0,0,1-.533,1.206,8.845,8.845,0,0,1-7,4.611,7.576,7.576,0,0,1-1.316,0,1.82,1.82,0,0,1-.455-.073c0-.046.687.032,1.775-.1a9.236,9.236,0,0,0,6.874-4.529C118.892,221.326,119.092,220.666,119.133,220.68Z" transform="translate(-88.633 -159.19)" fill="#455a64"/>
      <path id="Path_34952" data-name="Path 34952" d="M169.52,225.845a2.368,2.368,0,0,1-.3-.182,5.461,5.461,0,0,1-.728-.628,7.738,7.738,0,0,1-2.226-5.777,5.007,5.007,0,0,1,.123-.951c.05-.223.082-.341.1-.337s-.055.5-.055,1.293a8.44,8.44,0,0,0,2.18,5.658C169.143,225.508,169.543,225.809,169.52,225.845Z" transform="translate(-119.437 -157.713)" fill="#455a64"/>
      <path id="Path_34953" data-name="Path 34953" d="M239.739,222.058c.15-.364.109-.219-2.3-1.821,0,0,3.46,2.276,3.1,1.193a4.416,4.416,0,0,0-1.124-1.042c.91.537,1.438.6,1.6.378.273-.378-1.707-1.821-2.649-2.472a22.691,22.691,0,0,0,2.7,1.662c.56.173.291-.483-.086-.96s-3.309-3.3-4.1-4.142a.683.683,0,0,1,0-1.038,4.317,4.317,0,0,0,2.012-2.841.514.514,0,0,0-.965-.164,6.246,6.246,0,0,1-1.234,1.165,4.034,4.034,0,0,1-1.193.642,9.584,9.584,0,0,1-3.492-.241l-1.68,5.695s6.1,2.85,7.252,3.4C239,222.149,239.635,222.335,239.739,222.058Z" transform="translate(-154.345 -153.662)" fill="#ffbe9d"/>
      <path id="Path_34954" data-name="Path 34954" d="M243.527,229.988a8.013,8.013,0,0,0,1.766,1.3,8.363,8.363,0,0,0,1.926,1.052,8.376,8.376,0,0,0-1.771-1.3A7.617,7.617,0,0,0,243.527,229.988Z" transform="translate(-161.533 -164.255)" fill="#eb996e"/>
      <path id="Path_34955" data-name="Path 34955" d="M244.788,227.544a9.329,9.329,0,0,0,1.821,1.489,10.03,10.03,0,0,0,1.976,1.252,9.346,9.346,0,0,0-1.821-1.489A10.027,10.027,0,0,0,244.788,227.544Z" transform="translate(-162.22 -162.927)" fill="#eb996e"/>
      <path id="Path_34956" data-name="Path 34956" d="M246.118,225.064a8.677,8.677,0,0,0,1.689,1.438,8.867,8.867,0,0,0,1.857,1.2,8.9,8.9,0,0,0-1.684-1.438A8.46,8.46,0,0,0,246.118,225.064Z" transform="translate(-162.945 -161.575)" fill="#eb996e"/>
      <path id="Path_34957" data-name="Path 34957" d="M104.379,150.346l4.47.246a22.451,22.451,0,0,0,1.265,3.642,74.935,74.935,0,0,0,7.083-17.981q-.15-.5-.369-1.12a4.752,4.752,0,0,1,.055-1.894c.123-.747.332-1.757.391-2.221.2-1.42.423-1.648.91-1.484.674.218-.278,3.992.273,4.074.3.041.66-1.252.769-2.312s.583-4.32.933-4.552c.514-.319.96.187.833,1.243s-.3,4.256.264,4.3,1.015-5.367,1.015-5.367-.087-1.174.56-1.147c1.17.05.259,5.754.159,6.3-.073.373.537.455.592.036s.337-5.413,1.525-5.372c.91.032-.706,4.7-.191,5.781s.869-3.674,1.743-3.61c.323.027.564.091-.032,2.781a61.372,61.372,0,0,1-2.089,6.309c-1.366,7.466-7.461,31.346-16.984,26.976C102.23,162.523,99.74,150.4,99.74,150.4Z" transform="translate(-83.201 -107.484)" fill="#ffbe9d"/>
      <path id="Path_34958" data-name="Path 34958" d="M144.8,137.882a.641.641,0,0,1,.046-.164c.041-.118.091-.273.159-.455.15-.432.355-1.033.624-1.821s.592-1.743.91-2.872c.164-.56.3-1.17.423-1.821.064-.328.123-.665.164-1.011a3.889,3.889,0,0,0,0-.514c0-.178-.041-.323-.182-.328s-.241.082-.341.232a2.826,2.826,0,0,0-.223.505c-.127.36-.228.742-.328,1.129s-.191.792-.31,1.2a1.871,1.871,0,0,1-.273.628.25.25,0,0,1-.123.077.2.2,0,0,1-.173-.041.587.587,0,0,1-.127-.168,1.3,1.3,0,0,1-.1-.351,11.253,11.253,0,0,1,.273-2.731c.077-.455.159-.91.219-1.366a6.929,6.929,0,0,0,.059-.7c0-.246-.032-.505-.127-.546s-.328.087-.455.278a2.787,2.787,0,0,0-.3.646,9.442,9.442,0,0,0-.351,1.457c-.086.5-.155,1.011-.214,1.53-.023.259-.05.519-.073.783l-.036.4a.578.578,0,0,1-.182.455.455.455,0,0,1-.537,0,.373.373,0,0,1-.164-.259.514.514,0,0,1,0-.146v-.1l.123-.8c.077-.537.141-1.074.191-1.621s.091-1.1.1-1.648a5.463,5.463,0,0,0-.164-1.621.542.542,0,0,0-.228-.328.273.273,0,0,0-.3.1,1.488,1.488,0,0,0-.173.883h0c-.1,1.07-.214,2.121-.369,3.155-.077.514-.164,1.029-.291,1.534-.036.123-.073.25-.118.378a.765.765,0,0,1-.259.391.273.273,0,0,1-.332-.073.547.547,0,0,1-.123-.2,1.853,1.853,0,0,1-.1-.391,15.22,15.22,0,0,1-.027-2.982,7.866,7.866,0,0,0,.077-1.4.774.774,0,0,0-.255-.519.3.3,0,0,0-.237-.036.724.724,0,0,0-.123.055c-.041.036-.036,0-.064.077a6.215,6.215,0,0,0-.36,1.27c-.091.455-.168.869-.237,1.3s-.132.847-.187,1.265-.082.828-.164,1.238a6.768,6.768,0,0,1-.319,1.174,2.271,2.271,0,0,1-.132.282c-.064.087-.1.2-.273.25a.228.228,0,0,1-.232-.1.674.674,0,0,1-.073-.168,1.819,1.819,0,0,1-.036-.3c0-.778.1-1.489.146-2.176a5.494,5.494,0,0,0,0-.988c0-.146-.068-.319-.15-.351a.419.419,0,0,0-.369,0,1.279,1.279,0,0,0-.337.747c-.068.278-.1.56-.146.829-.191,1.074-.391,2-.487,2.759a3.742,3.742,0,0,0,0,1c.064.273.159.519.209.71s.1.328.132.455a.8.8,0,0,1,.036.15.6.6,0,0,1-.064-.141l-.155-.455c-.064-.2-.159-.414-.237-.715a3.642,3.642,0,0,1,0-1.029c.086-.769.269-1.689.455-2.768.05-.269.077-.551.137-.842a4.3,4.3,0,0,1,.123-.455.774.774,0,0,1,.282-.414.574.574,0,0,1,.537,0,.615.615,0,0,1,.287.528,5.545,5.545,0,0,1,0,1.029c-.032.692-.141,1.416-.123,2.153a1.558,1.558,0,0,0,.032.259c0,.086.064.123.055.1s.086-.073.123-.146a2.106,2.106,0,0,0,.118-.25,6.137,6.137,0,0,0,.3-1.138c.077-.4.1-.806.159-1.229s.109-.842.178-1.275.146-.865.232-1.306a5.917,5.917,0,0,1,.382-1.343.455.455,0,0,1,.159-.178.882.882,0,0,1,.191-.077.555.555,0,0,1,.455.068.983.983,0,0,1,.369.692,2.731,2.731,0,0,1,0,.747c-.023.232-.046.455-.059.71a14.5,14.5,0,0,0,.027,2.913,1.822,1.822,0,0,0,.091.337.31.31,0,0,0,.068.118h.023v0a.912.912,0,0,0,.132-.25,3.032,3.032,0,0,0,.109-.355c.123-.483.2-.992.282-1.5.155-1.024.269-2.076.364-3.141v.023a1.757,1.757,0,0,1,.232-1.079.569.569,0,0,1,.633-.187.815.815,0,0,1,.392.5,5.709,5.709,0,0,1,.178,1.716c0,.564-.05,1.12-.1,1.671s-.118,1.092-.2,1.63c-.041.273-.082.537-.123.806-.036.168-.027.173,0,.223a.191.191,0,0,0,.214,0c.055-.041.064-.118.077-.269l.032-.4.082-.788c.055-.519.127-1.038.214-1.543a10.413,10.413,0,0,1,.364-1.5,3.32,3.32,0,0,1,.332-.706,1.016,1.016,0,0,1,.291-.3.5.5,0,0,1,.455-.068.533.533,0,0,1,.25.4,2.235,2.235,0,0,1,.023.387,6.455,6.455,0,0,1-.059.733c-.064.455-.15.938-.232,1.4a11.481,11.481,0,0,0-.282,2.636,1.175,1.175,0,0,0,.073.278.522.522,0,0,0,.059.091h0v-.032a1.821,1.821,0,0,0,.223-.533c.118-.4.214-.8.319-1.188a11.62,11.62,0,0,1,.341-1.152,2.84,2.84,0,0,1,.246-.537.87.87,0,0,1,.209-.241.378.378,0,0,1,.159-.082.573.573,0,0,1,.178,0,.351.351,0,0,1,.287.209.838.838,0,0,1,.059.3,3.585,3.585,0,0,1-.032.551c-.041.355-.109.692-.173,1.024a17.148,17.148,0,0,1-.455,1.821c-.341,1.129-.683,2.085-.961,2.863s-.514,1.366-.674,1.784c-.077.191-.141.341-.187.455A.987.987,0,0,1,144.8,137.882Z" transform="translate(-103.456 -107.333)" fill="#eb996e"/>
      <path id="Path_34959" data-name="Path 34959" d="M99.65,176.027c.865,3.055,2.558,7.766,4.375,12.746a.86.86,0,0,0,1.589.077l4.452-9.418s-1.074-7.739-.983-7.461-9.186,1-9.186,1Z" transform="translate(-83.152 -132.65)" fill="#5e2d77"/>
      <path id="Path_34960" data-name="Path 34960" d="M111.111,177.56c0,.036-.555.2-1.434.537a20.251,20.251,0,0,0-3.3,1.611,20.733,20.733,0,0,0-2.959,2.185c-.706.624-1.111,1.052-1.138,1.024s.077-.127.25-.332a10.959,10.959,0,0,1,.774-.815,17.076,17.076,0,0,1,2.95-2.276,17.371,17.371,0,0,1,3.369-1.566,10.549,10.549,0,0,1,1.083-.31A1.3,1.3,0,0,1,111.111,177.56Z" transform="translate(-84.58 -135.698)" fill="#fafafa"/>
      <path id="Path_34961" data-name="Path 34961" d="M121.8,173.6a4.83,4.83,0,0,1-.747-.974,16.643,16.643,0,0,1-1.366-2.613,16.388,16.388,0,0,1-.879-2.822,4.653,4.653,0,0,1-.159-1.211,8.41,8.41,0,0,1,.323,1.17,22.764,22.764,0,0,0,.91,2.772,23.273,23.273,0,0,0,1.3,2.617A9.555,9.555,0,0,1,121.8,173.6Z" transform="translate(-93.503 -129.39)" fill="#263238"/>
      <path id="Path_34962" data-name="Path 34962" d="M123.93,90a10.015,10.015,0,0,0-.869,8.563c.455,1.252,1.184,2.485,1.052,3.815s-1.17,2.645-.806,3.956c.218.778.883,1.366,1.143,2.121a5.887,5.887,0,0,1-.159,2.8c-.364,2.385.4,4.784.587,7.188s-.455,5.221-2.6,6.268a1.874,1.874,0,0,1-2.044-.077c-.692-.615-.5-1.725-.31-2.636,1.885-9.1-3.938-17.99-2.608-27.2.214-1.475,1.038-3.979,2.1-5.007s4.006-.91,5.007.182" transform="translate(-92.665 -87.498)" fill="#263238"/>
      <path id="Path_34963" data-name="Path 34963" d="M112.39,115.61a9.616,9.616,0,0,0,.687-.974,8.827,8.827,0,0,0,1.188-2.982,9.069,9.069,0,0,0,.141-2.212,23.429,23.429,0,0,1-.1-2.59,5.6,5.6,0,0,1,.259-1.393,7.767,7.767,0,0,1,.628-1.338c.51-.86,1.152-1.662,1.743-2.517a6.91,6.91,0,0,0,1.238-2.731,8.517,8.517,0,0,0-.159-2.79,10.611,10.611,0,0,1-.2-2.586,8.7,8.7,0,0,1,.455-2.221,8.444,8.444,0,0,1,1.611-2.836,5.919,5.919,0,0,1,.619-.633,1.22,1.22,0,0,1,.237-.2,9.951,9.951,0,0,0-.788.91,8.74,8.74,0,0,0-1.921,5.007,10.365,10.365,0,0,0,.223,2.54,8.65,8.65,0,0,1,.173,2.868,7.161,7.161,0,0,1-1.275,2.809c-.6.869-1.238,1.666-1.739,2.5a7.1,7.1,0,0,0-.61,1.293,5.276,5.276,0,0,0-.259,1.338,24.678,24.678,0,0,0,.073,2.563,9.106,9.106,0,0,1-.173,2.253,8.531,8.531,0,0,1-1.275,3,6.612,6.612,0,0,1-.546.7A1.457,1.457,0,0,1,112.39,115.61Z" transform="translate(-90.093 -86.695)" fill="#ed278d"/>
      <path id="Path_34964" data-name="Path 34964" d="M102.91,116.261a1.671,1.671,0,0,1,.141-.3c.114-.214.259-.5.455-.851.382-.742.951-1.821,1.511-3.187a13.889,13.889,0,0,0,1.12-5.039,9.788,9.788,0,0,0-.114-1.493c-.077-.51-.2-1.024-.273-1.561a4.425,4.425,0,0,1,.036-1.675,3,3,0,0,1,.91-1.461,11.4,11.4,0,0,0,2.426-2.2,7.452,7.452,0,0,0,.806-2.918,11.408,11.408,0,0,1,.628-2.731,9.874,9.874,0,0,1,3.683-4.652,7.621,7.621,0,0,1,.833-.487,1.366,1.366,0,0,1,.31-.137,11.227,11.227,0,0,0-1.088.7,9.947,9.947,0,0,0-2.445,2.5A9.674,9.674,0,0,0,110.74,92.9a11.584,11.584,0,0,0-.592,2.731,7.6,7.6,0,0,1-.828,3.014,12.635,12.635,0,0,1-2.463,2.276,2.786,2.786,0,0,0-.86,1.366,4.215,4.215,0,0,0-.032,1.584c.073.523.187,1.042.264,1.557a9.234,9.234,0,0,1,.109,1.53,13.82,13.82,0,0,1-1.179,5.121,30.527,30.527,0,0,1-1.584,3.186l-.483.715A1.574,1.574,0,0,1,102.91,116.261Z" transform="translate(-84.928 -86.668)" fill="#455a64"/>
    </g>
    <g id="freepik--Plant--inject-4" transform="translate(196.71 142.752)">
      <path id="Path_34965" data-name="Path 34965" d="M424.58,341.138a1.067,1.067,0,0,1,.082-.191c.064-.137.15-.319.255-.551a13.442,13.442,0,0,0,.76-2.2,19.413,19.413,0,0,0-.064-8.5,45.924,45.924,0,0,0-1.58-5.713c-.665-2.026-1.443-4.174-2.076-6.5a25.208,25.208,0,0,1-1.024-7.475,29.31,29.31,0,0,1,1.739-7.912,38.048,38.048,0,0,0,2.012-7.789,11.886,11.886,0,0,0-1.429-7.192c-1.138-2.1-2.572-3.9-3.642-5.754a20.03,20.03,0,0,1-2.19-5.535,20.634,20.634,0,0,1-.141-8.567,15.792,15.792,0,0,1,.91-3.027,1.165,1.165,0,0,1-.055.2l-.182.578a23.275,23.275,0,0,0-.555,2.276,20.941,20.941,0,0,0,.223,8.508,19.8,19.8,0,0,0,2.2,5.463c1.07,1.821,2.508,3.642,3.674,5.749a12.127,12.127,0,0,1,1.47,7.343,38.223,38.223,0,0,1-2.021,7.848,29.093,29.093,0,0,0-1.73,7.834,24.868,24.868,0,0,0,1,7.4c.624,2.312,1.388,4.461,2.048,6.5a44.723,44.723,0,0,1,1.548,5.745,19.515,19.515,0,0,1,0,8.563,12.671,12.671,0,0,1-.815,2.2l-.282.542A.937.937,0,0,1,424.58,341.138Z" transform="translate(-411.342 -264.23)" fill="#263238"/>
      <path id="Path_34966" data-name="Path 34966" d="M425.337,292.575s-2.176-6.969,1.73-11.048a.241.241,0,0,1,.414.118C427.69,282.8,427.95,286.3,425.337,292.575Z" transform="translate(-415.609 -273.611)" fill="#ed278d"/>
      <path id="Path_34967" data-name="Path 34967" d="M427.269,286.72a6.669,6.669,0,0,1-.146,1.284c-.146.888-.314,1.926-.5,3.073s-.35,2.19-.492,3.073a7.659,7.659,0,0,1-.228,1.275,5.4,5.4,0,0,1,.027-1.293c.073-.8.214-1.889.41-3.091s.41-2.276.578-3.064A5.648,5.648,0,0,1,427.269,286.72Z" transform="translate(-416.235 -276.482)" fill="#263238"/>
      <path id="Path_34968" data-name="Path 34968" d="M431.68,331.268s1.334-7.179,6.7-8.954a.241.241,0,0,1,.31.3C438.331,323.721,436.924,326.939,431.68,331.268Z" transform="translate(-419.394 -295.866)" fill="#00ae9f"/>
      <path id="Path_34969" data-name="Path 34969" d="M436.871,326.38a6.751,6.751,0,0,1-.728,1.07l-1.88,2.481-1.866,2.49a7.277,7.277,0,0,1-.8,1.015,5.392,5.392,0,0,1,.637-1.129c.455-.669,1.074-1.57,1.821-2.54s1.425-1.821,1.939-2.44A5.857,5.857,0,0,1,436.871,326.38Z" transform="translate(-419.35 -298.088)" fill="#263238"/>
      <path id="Path_34970" data-name="Path 34970" d="M428.435,368.891s-.81-7.256,3.806-10.511a.237.237,0,0,1,.382.2C432.609,359.745,432.195,363.232,428.435,368.891Z" transform="translate(-417.596 -315.494)" fill="#ed278d"/>
      <path id="Path_34971" data-name="Path 34971" d="M431.432,363.26a6.071,6.071,0,0,1-.387,1.234l-1.074,2.922c-.4,1.093-.76,2.08-1.065,2.922a7.482,7.482,0,0,1-.455,1.206,5.319,5.319,0,0,1,.282-1.266c.223-.765.569-1.821.992-2.959s.838-2.162,1.152-2.9A6.337,6.337,0,0,1,431.432,363.26Z" transform="translate(-417.634 -318.18)" fill="#263238"/>
      <path id="Path_34972" data-name="Path 34972" d="M437.347,408.849s-.546-7.283,4.179-10.37a.241.241,0,0,1,.378.209C441.849,399.858,441.312,403.332,437.347,408.849Z" transform="translate(-422.471 -337.344)" fill="#ed278d"/>
      <path id="Path_34973" data-name="Path 34973" d="M440.551,403.29a6.3,6.3,0,0,1-.432,1.22c-.337.828-.737,1.821-1.179,2.882s-.828,2.048-1.165,2.882a7.081,7.081,0,0,1-.514,1.188,5.462,5.462,0,0,1,.332-1.256c.25-.756.633-1.794,1.1-2.918s.91-2.135,1.252-2.854A6.079,6.079,0,0,1,440.551,403.29Z" transform="translate(-422.434 -339.988)" fill="#263238"/>
      <path id="Path_34974" data-name="Path 34974" d="M411.286,281.34s-6.455-3.387-6.6-9.027a.246.246,0,0,1,.378-.209C406.028,272.769,408.7,275.063,411.286,281.34Z" transform="translate(-404.69 -268.499)" fill="#ed278d"/>
      <path id="Path_34975" data-name="Path 34975" d="M407.64,276.87a6.261,6.261,0,0,1,.806,1.015c.528.724,1.143,1.58,1.821,2.522l1.821,2.513a7.133,7.133,0,0,1,.737,1.061,5.354,5.354,0,0,1-.888-.942c-.514-.61-1.188-1.484-1.9-2.472s-1.334-1.9-1.762-2.572a6.219,6.219,0,0,1-.637-1.124Z" transform="translate(-406.297 -271.116)" fill="#263238"/>
      <path id="Path_34976" data-name="Path 34976" d="M425.912,314.689s-6.664-2.982-7.133-8.613a.241.241,0,0,1,.364-.228C420.14,306.455,422.94,308.576,425.912,314.689Z" transform="translate(-412.365 -286.885)" fill="#00ae9f"/>
      <path id="Path_34977" data-name="Path 34977" d="M422,310.47a6.178,6.178,0,0,1,.865.96l1.976,2.408,1.98,2.4a7.284,7.284,0,0,1,.8,1.015,5.544,5.544,0,0,1-.947-.888c-.546-.583-1.275-1.411-2.044-2.353s-1.443-1.821-1.916-2.463A5.852,5.852,0,0,1,422,310.47Z" transform="translate(-414.12 -289.421)" fill="#263238"/>
      <path id="Path_34978" data-name="Path 34978" d="M422.419,348.746s-4.552-5.69-2.426-10.925a.241.241,0,0,1,.428-.036C421.054,338.772,422.57,341.94,422.419,348.746Z" transform="translate(-412.719 -304.24)" fill="#00ae9f"/>
      <path id="Path_34979" data-name="Path 34979" d="M421.68,343.08a6.2,6.2,0,0,1,.337,1.252c.191.874.414,1.9.66,3.041s.478,2.162.669,3.036a7.137,7.137,0,0,1,.25,1.27,5.465,5.465,0,0,1-.455-1.22c-.223-.769-.5-1.821-.751-3.032s-.455-2.276-.583-3.059a5.915,5.915,0,0,1-.127-1.288Z" transform="translate(-413.946 -307.186)" fill="#263238"/>
      <path id="Path_34980" data-name="Path 34980" d="M427.636,394.35s-6.614-3.091-6.988-8.726a.241.241,0,0,1,.369-.228C422,386.019,424.759,388.191,427.636,394.35Z" transform="translate(-413.383 -330.219)" fill="#5e2d77"/>
      <path id="Path_34981" data-name="Path 34981" d="M423.77,390.06a6.78,6.78,0,0,1,.847.979l1.935,2.435,1.939,2.435a7.132,7.132,0,0,1,.783,1.029,5.365,5.365,0,0,1-.91-.91c-.542-.592-1.252-1.434-2.007-2.39s-1.411-1.844-1.876-2.495A5.574,5.574,0,0,1,423.77,390.06Z" transform="translate(-415.084 -332.78)" fill="#263238"/>
      <path id="Path_34982" data-name="Path 34982" d="M449.83,342.07v.615c0,.455-.045,1.033-.077,1.771-.082,1.557-.2,3.728-.346,6.323h0a24.039,24.039,0,0,1-3.642,8.412c-1.325,2.094-2.731,4-3.915,5.768a40.682,40.682,0,0,0-2.9,4.871,20.446,20.446,0,0,0-1.366,3.56c-.114.432-.2.774-.255,1.006a2.117,2.117,0,0,1-.1.355,1.657,1.657,0,0,1,.045-.364c.032-.237.1-.583.2-1.024a18.6,18.6,0,0,1,1.3-3.619,39.085,39.085,0,0,1,2.9-4.9c1.193-1.784,2.572-3.692,3.892-5.772a25.276,25.276,0,0,0,3.642-8.312h0c.182-2.59.332-4.757.455-6.314.059-.737.109-1.325.146-1.766a3.473,3.473,0,0,1,.045-.455.6.6,0,0,1-.027-.15Z" transform="translate(-422.417 -306.636)" fill="#263238"/>
      <path id="Path_34983" data-name="Path 34983" d="M454.506,365.065s2.8-6.737-.719-11.157a.241.241,0,0,0-.423.082C453.049,355.118,452.471,358.583,454.506,365.065Z" transform="translate(-431.031 -313.034)" fill="#00ae9f"/>
      <path id="Path_34984" data-name="Path 34984" d="M455.119,359.19a5.918,5.918,0,0,1,.223,1.275c.1.792.209,1.889.3,3.1s.127,2.317.127,3.118a5.278,5.278,0,0,1-.077,1.293,6.831,6.831,0,0,1-.114-1.288c-.059-.91-.132-1.944-.209-3.1s-.15-2.212-.214-3.1A6.584,6.584,0,0,1,455.119,359.19Z" transform="translate(-432.153 -315.963)" fill="#263238"/>
      <path id="Path_34986" data-name="Path 34986" d="M434.6,400.888s2.244-6.947-1.625-11.062a.241.241,0,0,0-.414.114C432.346,391.087,432.05,394.592,434.6,400.888Z" transform="translate(-419.8 -332.61)" fill="#00ae9f"/>
      <path id="Path_34987" data-name="Path 34987" d="M434.52,395a5.584,5.584,0,0,1,.328,1.256c.164.778.36,1.866.546,3.068s.314,2.3.382,3.1a5.463,5.463,0,0,1,.023,1.3,7.778,7.778,0,0,1-.219-1.275c-.132-.888-.287-1.926-.455-3.077s-.332-2.19-.455-3.077A6.585,6.585,0,0,1,434.52,395Z" transform="translate(-420.941 -335.472)" fill="#263238"/>
      <path id="Path_34989" data-name="Path 34989" d="M464.1,348.447s5.977-4.188,5.376-9.805a.241.241,0,0,0-.4-.155C468.206,339.27,465.875,341.874,464.1,348.447Z" transform="translate(-437.056 -304.651)" fill="#00ae9f"/>
      <g id="Group_11938" data-name="Group 11938" transform="translate(27.044 33.775)">
        <path id="Path_34990" data-name="Path 34990" d="M464.1,348.447s5.977-4.188,5.376-9.805a.241.241,0,0,0-.4-.155C468.206,339.27,465.875,341.874,464.1,348.447Z" transform="translate(-464.1 -338.425)" fill="#5e2d77"/>
      </g>
      <path id="Path_34991" data-name="Path 34991" d="M468.464,343.51a5.617,5.617,0,0,1-.5,1.2c-.341.719-.838,1.7-1.416,2.777s-1.133,2.026-1.561,2.7a5.4,5.4,0,0,1-.76,1.047,6.707,6.707,0,0,1,.592-1.147c.428-.788.933-1.707,1.489-2.731l1.484-2.731a6.648,6.648,0,0,1,.669-1.111Z" transform="translate(-437.126 -307.421)" fill="#263238"/>
      <path id="Path_34992" data-name="Path 34992" d="M442.51,391s7.211-1.124,9.141-6.432a.241.241,0,0,0-.287-.319C450.24,384.587,446.98,385.885,442.51,391Z" transform="translate(-425.294 -329.611)" fill="#00ae9f"/>
      <g id="Group_11939" data-name="Group 11939" transform="translate(17.216 54.631)" opacity="0.3">
        <path id="Path_34993" data-name="Path 34993" d="M442.51,391s7.211-1.124,9.141-6.432a.241.241,0,0,0-.287-.319C450.24,384.587,446.98,385.885,442.51,391Z" transform="translate(-442.51 -384.243)" fill="#e5e5e5"/>
      </g>
      <path id="Path_34994" data-name="Path 34994" d="M449.806,388.05a5.844,5.844,0,0,1-.974.851c-.624.5-1.5,1.165-2.49,1.875s-1.912,1.316-2.595,1.734a5.264,5.264,0,0,1-1.147.605,7.035,7.035,0,0,1,1.042-.769l2.54-1.794,2.536-1.821a6.048,6.048,0,0,1,1.088-.683Z" transform="translate(-425.343 -331.685)" fill="#263238"/>
      <path id="Path_34995" data-name="Path 34995" d="M424.873,428.25l-2.1,14.157h13.11l-1.7-14.157Z" transform="translate(-414.54 -353.586)" fill="#455a64"/>
      <path id="Path_34996" data-name="Path 34996" d="M436.345,437.7a102.42,102.42,0,0,1-10.575,0,102.455,102.455,0,0,1,10.575,0Z" transform="translate(-416.174 -358.649)" fill="#263238"/>
      <path id="Path_34997" data-name="Path 34997" d="M436.485,440.2a109.343,109.343,0,0,1-10.925,0,109.294,109.294,0,0,1,10.925,0Z" transform="translate(-416.06 -360.02)" fill="#263238"/>
    </g>
    <g id="freepik--Boxes--inject-4" transform="translate(104.429 80.02)">
      <path id="Path_34998" data-name="Path 34998" d="M306.195,126.476h-.36a8.756,8.756,0,0,0-1.038,0,11.662,11.662,0,0,0-3.883.91,11.922,11.922,0,0,0-4.925,3.837,10.756,10.756,0,0,0-1.721,3.519,11.835,11.835,0,0,0,1.2,8.94,10.116,10.116,0,0,0,1.548,2.058,8.412,8.412,0,0,0,2.094,1.639,5.144,5.144,0,0,0,2.627.66,3.774,3.774,0,0,0,2.545-1.029,3.674,3.674,0,0,0,1.015-2.622,4.835,4.835,0,0,0-.91-2.79,9.512,9.512,0,0,0-5.126-3.378,12.587,12.587,0,0,0-6.464-.091,13.546,13.546,0,0,0-3.114,1.238,11.222,11.222,0,0,0-2.672,2.1c-.187.214-.4.41-.569.646l-.514.692a12.989,12.989,0,0,0-.838,1.52,12.336,12.336,0,0,0-.988,3.355,12.719,12.719,0,0,0,.91,6.828,10.547,10.547,0,0,0,4.393,5.007,7.284,7.284,0,0,0,3.114.942,5.5,5.5,0,0,0,3.073-.737,4.8,4.8,0,0,0,2.076-2.276,4.124,4.124,0,0,0,.077-2.991,6.022,6.022,0,0,0-1.712-2.422,7.838,7.838,0,0,0-2.517-1.461,9.755,9.755,0,0,0-5.545-.1,10.8,10.8,0,0,0-4.552,2.536,10.4,10.4,0,0,0-2.608,4.038,11.7,11.7,0,0,0,.123,8.194,12.422,12.422,0,0,0,3.746,5.007,13.478,13.478,0,0,0,3.446,2.008c.428.159.76.278.988.341l.337.109s-.118-.023-.346-.087a9.786,9.786,0,0,1-.992-.323,12.9,12.9,0,0,1-3.487-1.976,12.478,12.478,0,0,1-3.819-5.03,11.836,11.836,0,0,1-.15-8.28,10.439,10.439,0,0,1,2.636-4.1,11.012,11.012,0,0,1,4.62-2.595,9.965,9.965,0,0,1,5.663.091,7.976,7.976,0,0,1,2.59,1.5,6.182,6.182,0,0,1,1.775,2.508,4.361,4.361,0,0,1-.046,3.136,5.1,5.1,0,0,1-2.171,2.372,5.744,5.744,0,0,1-3.186.774,7.4,7.4,0,0,1-3.186-.974,10.761,10.761,0,0,1-4.5-5.094,12.974,12.974,0,0,1-.938-6.956,12.684,12.684,0,0,1,1.011-3.423,13.172,13.172,0,0,1,.856-1.552l.528-.706a6.8,6.8,0,0,1,.578-.665,11.53,11.53,0,0,1,2.731-2.14,13.713,13.713,0,0,1,3.186-1.256,12.81,12.81,0,0,1,6.587.1,9.757,9.757,0,0,1,5.244,3.473,5.007,5.007,0,0,1,.956,2.913,3.888,3.888,0,0,1-1.079,2.772,3.983,3.983,0,0,1-2.686,1.079,5.294,5.294,0,0,1-2.731-.687,8.462,8.462,0,0,1-2.139-1.68,10.469,10.469,0,0,1-1.571-2.1,12,12,0,0,1-1.2-9.1,10.88,10.88,0,0,1,1.762-3.555,11.981,11.981,0,0,1,5.007-3.847,11.38,11.38,0,0,1,3.91-.856,7.951,7.951,0,0,1,1.047,0Z" transform="translate(-244.468 -126.422)" fill="#263238"/>
      <rect id="Rectangle_27076" data-name="Rectangle 27076" width="63.826" height="49.227" transform="translate(13.101 45.602)" fill="#00ae9f"/>
      <path id="Path_34999" data-name="Path 34999" d="M230.75,226.6l11.79,11h62.742l-10.707-11Z" transform="translate(-217.649 -180.998)" fill="#00ae9f"/>
      <path id="Path_35000" data-name="Path 35000" d="M230.75,226.464l63.844-.114h.05l.036.032,10.6,10.884.109.114.2.2H305.3l-62.742-.05h-.027L230.75,226.464l11.836,10.925h-.05l62.742-.046-.082.2-.114-.114-10.593-10.884.082.036Z" transform="translate(-217.649 -180.861)" fill="#263238"/>
      <path id="Path_35004" data-name="Path 35004" d="M231.07,227.79,242.359,242.1H294.75v-3.856H242.714Z" transform="translate(-217.823 -181.646)" opacity="0.5"/>
      <path id="Path_35005" data-name="Path 35005" d="M343.168,288.738c-.064,0-.118-8.563-.118-19.119s.055-19.119.118-19.119.123,8.558.123,19.119S343.237,288.738,343.168,288.738Z" transform="translate(-278.828 -194.018)" fill="#263238"/>
      <rect id="Rectangle_27077" data-name="Rectangle 27077" width="5.626" height="6.359" transform="translate(68.737 83.558)" fill="#f5f5f5"/>
      <path id="Path_35006" data-name="Path 35006" d="M215.071,226.6l-13.1,11h13.1Z" transform="translate(-201.97 -180.998)" fill="#00ae9f"/>
      <g id="Group_11940" data-name="Group 11940" transform="translate(0 45.602)" opacity="0.4">
        <path id="Path_35007" data-name="Path 35007" d="M215.071,226.6l-13.1,11h13.1Z" transform="translate(-201.97 -226.6)"/>
      </g>
      <rect id="Rectangle_27078" data-name="Rectangle 27078" width="73.385" height="56.601" transform="translate(5.426 94.829)" fill="#5e2d77"/>
      <path id="Path_35008" data-name="Path 35008" d="M334.568,390.761c-.064,0-.118-12.614-.118-28.173s.055-28.178.118-28.178.118,12.614.118,28.178S334.632,390.761,334.568,390.761Z" transform="translate(-274.143 -239.731)" fill="#263238"/>
      <rect id="Rectangle_27080" data-name="Rectangle 27080" width="5.626" height="6.359" transform="translate(66.962 138.548)" fill="#f5f5f5"/>
      <rect id="Rectangle_27081" data-name="Rectangle 27081" width="8.335" height="12.077" transform="translate(27.814 94.979)" fill="#0e1740" opacity="0.8"/>
      <rect id="Rectangle_27082" data-name="Rectangle 27082" width="8.335" height="12.077" transform="translate(27.814 139.185)" fill="#0e1740" opacity="0.8"/>
      <path id="Path_35009" data-name="Path 35009" d="M286.638,334.658H285.9l-2.117.023-7.8.036-25.715.059-25.724-.032-7.793-.036-2.117-.023h0l2.117-.023,7.793-.036,25.724-.036,25.715.036,7.8.036,2.117.023h.551Z" transform="translate(-208.464 -239.829)" fill="#263238"/>
    </g>
    <g id="freepik--speech-bubble--inject-4" transform="translate(28.421 50.209)">
      <path id="Path_35010" data-name="Path 35010" d="M63.413,87.581l-7.994-1.967h.059a13.27,13.27,0,0,1-6.9,2.071,14.508,14.508,0,0,1-4.274-.624,13.4,13.4,0,0,1-9.2-11.125,13.2,13.2,0,0,1,3.432-10.666,13.693,13.693,0,0,1,2.317-2.03c.428-.269.856-.546,1.3-.778l.678-.328.337-.164.355-.127A13.359,13.359,0,0,1,61,69.932a13.866,13.866,0,0,1,.737,4.315,13.242,13.242,0,0,1-1.916,6.924V81.1c2.221,4.01,3.341,6.036,3.592,6.482-.259-.455-1.42-2.444-3.719-6.414v-.073a13.138,13.138,0,0,0,1.821-6.828,13.557,13.557,0,0,0-.747-4.243A13.108,13.108,0,0,0,43.62,62.1l-.346.123-.332.164-.665.319c-.455.232-.856.5-1.279.765a13.524,13.524,0,0,0-2.276,1.976,12.969,12.969,0,0,0-3.373,10.47,13.169,13.169,0,0,0,4.93,8.754,12.96,12.96,0,0,0,4.1,2.185,14.185,14.185,0,0,0,4.2.633,13.146,13.146,0,0,0,6.828-2h.077Z" transform="translate(-34.997 -60.935)" fill="#263238"/>
      <path id="Path_35011" data-name="Path 35011" d="M62,76.216l.405,6.692a1.083,1.083,0,0,0,1.015,1.015h0a1.088,1.088,0,0,0,1.143-.965l.742-6.705a.851.851,0,0,0-.86-.942H62.817a.847.847,0,0,0-.819.906Z" transform="translate(-49.705 -68.766)" fill="#5e2d77"/>
      <path id="Path_35012" data-name="Path 35012" d="M65.2,99.873a1.63,1.63,0,1,1-.089-1.245A1.63,1.63,0,0,1,65.2,99.873Z" transform="translate(-49.72 -80.979)" fill="#5e2d77"/>
    </g>
  </g>
</svg>
