<svg id="Group_15721" data-name="Group 15721" xmlns="http://www.w3.org/2000/svg" xmlns:xlink="http://www.w3.org/1999/xlink" width="237.888" height="271" viewBox="0 0 237.888 271">
  <defs>
    <clipPath id="clip-path">
      <rect id="Rectangle_28055" data-name="Rectangle 28055" width="237.888" height="271" fill="none"/>
    </clipPath>
    <clipPath id="clip-path-6">
      <rect id="Rectangle_28029" data-name="Rectangle 28029" width="11.539" height="17.869" fill="#00a599"/>
    </clipPath>
    <clipPath id="clip-path-7">
      <rect id="Rectangle_28030" data-name="Rectangle 28030" width="23.027" height="8.982" fill="none"/>
    </clipPath>
  </defs>
  <g id="Group_15720" data-name="Group 15720" clip-path="url(#clip-path)">
    <rect id="Rectangle_27998" data-name="Rectangle 27998" width="15.287" height="6.46" transform="translate(8.527 108.962)" fill="#ebebeb"/>
    <rect id="Rectangle_27999" data-name="Rectangle 27999" width="15.287" height="6.46" transform="translate(0 117.107)" fill="#dbdbdb"/>
    <rect id="Rectangle_28000" data-name="Rectangle 28000" width="15.286" height="6.46" transform="translate(17.055 117.107)" fill="#ebebeb"/>
    <rect id="Rectangle_28001" data-name="Rectangle 28001" width="15.287" height="6.46" transform="translate(214.074 25.649)" fill="#ebebeb"/>
    <rect id="Rectangle_28002" data-name="Rectangle 28002" width="15.287" height="6.46" transform="translate(222.601 33.793)" fill="#dbdbdb"/>
    <rect id="Rectangle_28003" data-name="Rectangle 28003" width="15.287" height="6.46" transform="translate(0 25.656)" fill="#ebebeb"/>
    <rect id="Rectangle_28004" data-name="Rectangle 28004" width="15.287" height="6.46" transform="translate(177.302 186.153)" fill="#dbdbdb"/>
    <rect id="Rectangle_28005" data-name="Rectangle 28005" width="15.286" height="6.46" transform="translate(185.829 178.007)" fill="#ebebeb"/>
    <g id="Group_15699" data-name="Group 15699">
      <g id="Group_15698" data-name="Group 15698" clip-path="url(#clip-path)">
        <line id="Line_458" data-name="Line 458" y1="77.241" transform="translate(212.237 0)" fill="none" stroke="#c7c7c7" stroke-width="1"/>
      </g>
    </g>
    <path id="Path_37851" data-name="Path 37851" d="M326.256,164.225l1.922,4.226h43.959l1.917-4.226-18.715-12.954H344.971Z" transform="translate(-137.918 -63.947)" fill="#ebebeb"/>
    <path id="Path_37852" data-name="Path 37852" d="M356.426,129.651l1.3,12.481h10.368l1.3-12.481Z" transform="translate(-150.672 -54.807)" fill="#dbdbdb"/>
    <path id="Path_37853" data-name="Path 37853" d="M326.26,173.715l1.922,4.226h43.959l1.917-4.226Z" transform="translate(-137.919 -73.434)" fill="#dbdbdb"/>
    <g id="Group_15701" data-name="Group 15701">
      <g id="Group_15700" data-name="Group 15700" clip-path="url(#clip-path)">
        <line id="Line_459" data-name="Line 459" y1="31.883" transform="translate(174.724 0)" fill="none" stroke="#c7c7c7" stroke-width="1"/>
      </g>
    </g>
    <path id="Path_37854" data-name="Path 37854" d="M261.272,85.651l1.922,4.226h43.959l1.917-4.226L290.355,72.7H279.988Z" transform="translate(-110.447 -30.731)" fill="#ebebeb"/>
    <path id="Path_37855" data-name="Path 37855" d="M291.442,51.077l1.3,12.481h10.368l1.3-12.481Z" transform="translate(-123.201 -21.592)" fill="#dbdbdb"/>
    <path id="Path_37856" data-name="Path 37856" d="M261.276,95.141l1.922,4.226h43.959l1.917-4.226Z" transform="translate(-110.449 -40.219)" fill="#dbdbdb"/>
    <rect id="Rectangle_28008" data-name="Rectangle 28008" width="64.55" height="3.833" transform="translate(8.476 64.6)" fill="#ebebeb"/>
    <rect id="Rectangle_28009" data-name="Rectangle 28009" width="3.834" height="12.677" transform="translate(13.377 68.434)" fill="#ebebeb"/>
    <rect id="Rectangle_28010" data-name="Rectangle 28010" width="3.834" height="3.918" transform="translate(13.376 68.434)" fill="#dbdbdb"/>
    <rect id="Rectangle_28011" data-name="Rectangle 28011" width="3.834" height="12.677" transform="translate(64.295 68.434)" fill="#ebebeb"/>
    <rect id="Rectangle_28012" data-name="Rectangle 28012" width="3.834" height="3.918" transform="translate(64.295 68.434)" fill="#dbdbdb"/>
    <rect id="Rectangle_28013" data-name="Rectangle 28013" width="6.151" height="24.427" transform="translate(24.791 40.173)" fill="#c7c7c7"/>
    <rect id="Rectangle_28014" data-name="Rectangle 28014" width="6.151" height="2.684" transform="translate(24.791 38.867)" fill="#dbdbdb"/>
    <rect id="Rectangle_28015" data-name="Rectangle 28015" width="6.151" height="0.996" transform="translate(24.791 44.99)" fill="#dbdbdb"/>
    <rect id="Rectangle_28016" data-name="Rectangle 28016" width="6.918" height="2.684" transform="translate(24.791 58.712)" fill="#dbdbdb"/>
    <rect id="Rectangle_28017" data-name="Rectangle 28017" width="4.299" height="28.495" transform="translate(30.942 36.105)" fill="#dbdbdb"/>
    <rect id="Rectangle_28018" data-name="Rectangle 28018" width="2.58" height="10.96" transform="translate(31.783 38.785)" fill="#ebebeb"/>
    <rect id="Rectangle_28019" data-name="Rectangle 28019" width="4.299" height="28.495" transform="matrix(0.703, -0.711, 0.711, 0.703, 42.539, 44.574)" fill="#c7c7c7"/>
    <rect id="Rectangle_28020" data-name="Rectangle 28020" width="2.58" height="10.96" transform="translate(50.869 51.579) rotate(-45.335)" fill="#dbdbdb"/>
    <rect id="Rectangle_28021" data-name="Rectangle 28021" width="7.301" height="21.644" transform="translate(35.239 42.961)" fill="#a6a6a6"/>
    <rect id="Rectangle_28022" data-name="Rectangle 28022" width="7.301" height="2.018" transform="translate(35.239 60.293)" fill="#c7c7c7"/>
    <rect id="Rectangle_28023" data-name="Rectangle 28023" width="7.301" height="0.782" transform="translate(35.239 58.187)" fill="#c7c7c7"/>
    <rect id="Rectangle_28024" data-name="Rectangle 28024" width="5.043" height="20.341" transform="translate(19.748 44.264)" fill="#a6a6a6"/>
    <rect id="Rectangle_28025" data-name="Rectangle 28025" width="5.043" height="1.896" transform="translate(19.748 60.553)" fill="#c7c7c7"/>
    <rect id="Rectangle_28026" data-name="Rectangle 28026" width="5.043" height="1.896" transform="translate(19.748 48.457)" fill="#c7c7c7"/>
    <rect id="Rectangle_28027" data-name="Rectangle 28027" width="5.043" height="0.735" transform="translate(19.748 51.651)" fill="#c7c7c7"/>
    <g id="Group_15703" data-name="Group 15703">
      <g id="Group_15702" data-name="Group 15702" clip-path="url(#clip-path)">
        <path id="Path_37857" data-name="Path 37857" d="M236.693,440.4c0,6.51-51.255,11.787-114.481,11.787S7.73,446.91,7.73,440.4s51.255-11.787,114.482-11.787S236.693,433.89,236.693,440.4" transform="translate(-3.268 -181.187)" fill="#ebebeb"/>
      </g>
    </g>
    <path id="Path_37858" data-name="Path 37858" d="M61.628,406.043l-29.3.051-29.3.14,29.3.14,29.3.051,58.6.1,58.6-.1,29.3-.05,29.3-.141-29.3-.142-29.3-.051-58.6-.1Z" transform="translate(-1.281 -171.605)" fill="#263238"/>
    <g id="Group_15711" data-name="Group 15711">
      <g id="Group_15710" data-name="Group 15710" clip-path="url(#clip-path)">
        <path id="Path_37859" data-name="Path 37859" d="M354.3,229.674s-13.263-1.857-10.163-17.868c0,0,14.819,3.326,10.163,17.868" transform="translate(-145.278 -89.536)" fill="#00a599"/>
        <g id="Group_15706" data-name="Group 15706" transform="translate(198.29 122.074)" opacity="0.1">
          <g id="Group_15705" data-name="Group 15705">
            <g id="Group_15704" data-name="Group 15704" clip-path="url(#clip-path-6)">
              <path id="Path_37860" data-name="Path 37860" d="M354.3,229.674s-13.263-1.857-10.163-17.868c0,0,14.819,3.326,10.163,17.868" transform="translate(-343.668 -211.805)" fill="#00a599"/>
            </g>
          </g>
        </g>
        <path id="Path_37861" data-name="Path 37861" d="M355.7,228.763c-.259-.81-.565-1.6-.9-2.386-.01-.1-.025-.2-.034-.3q-.029-.33-.055-.661c-.038-.477-.068-.956-.1-1.434-.056-.956-.118-1.914-.132-2.871a.041.041,0,0,0-.081,0c-.008.959-.022,1.916.014,2.874.018.479.046.957.078,1.435.007.106.015.212.022.319a28.415,28.415,0,0,0-2.659-4.548c-.456-.637-.935-1.249-1.451-1.839-.529-.6-1.087-1.181-1.622-1.78-.035-.039-.092.021-.056.059a23.748,23.748,0,0,1,2.557,3.4c.4.61.783,1.237,1.145,1.873l-.124-.049c-.157-.065-.314-.13-.473-.191q-.539-.208-1.082-.41c-.712-.264-1.424-.524-2.134-.794-.043-.016-.072.058-.029.075.7.281,1.4.578,2.1.879l1.027.442c.172.074.345.144.518.214a1.7,1.7,0,0,0,.352.124c.267.48.533.962.776,1.454a34.716,34.716,0,0,1,1.621,3.821c.032.092.064.184.1.275a7.783,7.783,0,0,0-1.087-.524c-.456-.211-.916-.416-1.372-.626-.93-.427-1.855-.861-2.746-1.364a.04.04,0,0,0-.039.07c.911.5,1.8,1.028,2.718,1.523.456.248.915.488,1.382.715a4.361,4.361,0,0,0,1.246.5,15.69,15.69,0,0,1,.869,3.762c.148,1.81.132,3.636.174,5.451,0,.032.046.029.048,0,.132-1.646.206-3.308.214-4.96a14.412,14.412,0,0,0-.783-4.522" transform="translate(-147.349 -91.968)" fill="#263238"/>
        <path id="Path_37862" data-name="Path 37862" d="M357.277,220.636a15.831,15.831,0,0,0-.132,2.824.02.02,0,0,0,.04,0c.053-.936.062-1.87.17-2.8.006-.051-.073-.071-.079-.02" transform="translate(-150.966 -93.256)" fill="#263238"/>
        <path id="Path_37863" data-name="Path 37863" d="M349.527,221.428a10.254,10.254,0,0,1-1.706-.838c-.043-.029-.083.043-.039.07a6.5,6.5,0,0,0,1.723.823c.032.009.054-.042.022-.056" transform="translate(-147.009 -93.247)" fill="#263238"/>
        <path id="Path_37864" data-name="Path 37864" d="M361.942,262.009c-.011-1.466-.039-2.931-.056-4.4-.027-4.868-.068-9.735-.155-14.6q-.1-5.8-.27-11.591a.061.061,0,0,0-.034-.049q-.008-1.584-.017-3.166c0-.027-.031-.04-.063-.039s-.064.014-.064.042q-.009,1.585-.02,3.171a.061.061,0,0,0-.031.046c-.195,6.876-.369,13.755-.41,20.633-.008,1.4-.007,2.8-.013,4.2q-.07,6.726-.051,13.454c-.005.714-.013,1.428-.016,2.142-.014,4.1.043,8.206.044,12.309,0,.221.245.331.506.341.3.012.615-.107.615-.359,0-4.525.031-9.049.031-13.574.014-2.852.025-5.7,0-8.556" transform="translate(-152.496 -96.452)" fill="#263238"/>
        <path id="Path_37865" data-name="Path 37865" d="M338.991,277.145s-6.379-4.727-12.434-1.533-7,15.5-7,15.5,8.891,1.272,14.49-4.057c5.4-5.135,4.948-9.915,4.948-9.915" transform="translate(-135.084 -116.041)" fill="#00a599"/>
        <path id="Path_37866" data-name="Path 37866" d="M343.751,278.812a7.635,7.635,0,0,0-3.7-.483,5.4,5.4,0,0,0-.782-.076l-.9-.067c-.619-.048-1.24-.085-1.86-.132-1.259-.095-2.521-.171-3.777-.3-.044,0-.054.074-.009.08,1.243.159,2.481.335,3.727.461.641.065,1.283.131,1.925.177.151.01.308.028.467.046-.19.042-.38.087-.566.14a15.1,15.1,0,0,0-2.891,1.175c-.5.09-1,.231-1.495.347-.79.186-1.575.39-2.36.6-1.549.406-3.082.862-4.619,1.309a.041.041,0,0,0,.023.078c1.537-.377,3.081-.722,4.62-1.089.748-.178,1.5-.353,2.243-.537.193-.047.389-.091.586-.135a18.7,18.7,0,0,0-4.534,3.942,24.621,24.621,0,0,0-3.151,4.97c-.023.046.042.09.068.043a24.168,24.168,0,0,1,3.813-5c-.028.085-.056.169-.083.255-.119.375-.236.751-.354,1.127-.237.752-.475,1.5-.7,2.257-.015.051.061.068.078.02.268-.728.524-1.46.781-2.193l.379-1.078c.065-.186.128-.373.191-.56.02-.058.042-.114.062-.171a22.4,22.4,0,0,1,2.262-1.928,17.172,17.172,0,0,1,3.386-1.941c-.022.111-.042.221-.065.327-.062.291-.127.581-.187.872-.125.6-.242,1.21-.36,1.815-.24,1.235-.389,2.485-.621,3.72-.01.051.067.07.079.02.286-1.242.655-2.463.932-3.708.138-.622.279-1.245.408-1.869.06-.292.118-.584.177-.875.033-.163.07-.325.089-.488.116-.046.229-.1.346-.143a10.06,10.06,0,0,1,5.308-.727,5.214,5.214,0,0,1,3.839,3.077c.058.139.277.052.245-.09a4.93,4.93,0,0,0-3.028-3.26" transform="translate(-138.105 -117.416)" fill="#263238"/>
        <path id="Path_37867" data-name="Path 37867" d="M338.6,288.669q-.271,1.212-.538,2.425a17.867,17.867,0,0,0-.446,2.359c0,.032.043.032.052.006a18.277,18.277,0,0,0,.542-2.376q.236-1.2.469-2.394c.01-.051-.067-.07-.078-.02" transform="translate(-142.719 -122.016)" fill="#263238"/>
        <path id="Path_37868" data-name="Path 37868" d="M326.819,292.249c-.812.412-1.6.88-2.448,1.217a.04.04,0,1,0,.033.073,26.075,26.075,0,0,0,2.434-1.26.018.018,0,0,0-.019-.031" transform="translate(-137.109 -123.541)" fill="#263238"/>
        <path id="Path_37869" data-name="Path 37869" d="M345.228,251.5s-7.8.5-11.424-4.644-2.813-12.484-2.813-12.484,8.19,1,11.443,4.687,2.795,12.441,2.795,12.441" transform="translate(-139.886 -99.075)" fill="#00a599"/>
        <path id="Path_37870" data-name="Path 37870" d="M351.082,261.314c-.27-.835-.6-1.658-.92-2.478q-.455-1.181-.97-2.336a48.325,48.325,0,0,0-2.337-4.594c-.55-.947-1.139-1.867-1.747-2.774-.013-.138-.04-.276-.061-.415-.036-.241-.071-.483-.109-.724-.077-.494-.164-.986-.246-1.478-.18-1.077-.4-2.146-.573-3.224-.008-.051-.088-.05-.081,0,.158,1.064.264,2.134.413,3.2.073.523.141,1.047.221,1.569.029.188.059.377.088.566a56.1,56.1,0,0,0-3.857-5c-.186-.215-.379-.425-.569-.637-.019-.059-.048-.118-.072-.178q-.087-.223-.17-.447c-.114-.309-.226-.619-.338-.929-.219-.611-.415-1.227-.581-1.854-.013-.051-.09-.027-.077.024.158.64.323,1.279.511,1.911.09.3.19.606.3.906.018.051.038.1.055.151-1-1.086-2.036-2.133-3.086-3.168-.037-.036-.092.021-.056.059a55.752,55.752,0,0,1,5.525,6.767,5.1,5.1,0,0,0-.577-.146c-.6-.117-1.206-.2-1.812-.279-1.271-.162-2.537-.322-3.8-.522-.051-.008-.071.069-.02.079,1.208.238,2.405.51,3.606.786.566.13,1.134.241,1.7.353a10.825,10.825,0,0,1,1.369.39c.126.181.256.358.381.539.572.833,1.121,1.682,1.659,2.539-.265-.053-.531-.1-.8-.155q-.9-.175-1.812-.326c-1.189-.2-2.379-.4-3.554-.67a.041.041,0,0,0-.02.079c1.192.28,2.374.607,3.557.922.57.152,1.147.292,1.723.419.289.064.577.128.867.187a2.026,2.026,0,0,0,.351.061q1.708,2.77,3.2,5.666.653,1.273,1.26,2.568c.417.885.774,1.789,1.158,2.687.077.18.361.106.3-.09" transform="translate(-142.08 -101.197)" fill="#263238"/>
        <path id="Path_37871" data-name="Path 37871" d="M347.823,244.676q-.223-1.115-.471-2.226c-.012-.051-.088-.027-.077.024q.222,1.1.421,2.2a22.032,22.032,0,0,0,.442,2.184.012.012,0,0,0,.024,0,15.588,15.588,0,0,0-.339-2.175" transform="translate(-146.803 -102.479)" fill="#263238"/>
        <path id="Path_37872" data-name="Path 37872" d="M338.582,245.234c-.362-.18-.744-.326-1.12-.472q-.3-.115-.591-.231l-.3-.121a1.475,1.475,0,0,1-.329-.144c-.059-.044-.1.059-.038.069a1.442,1.442,0,0,1,.334.136l.295.132.569.254a10.972,10.972,0,0,0,1.152.456.043.043,0,0,0,.031-.079" transform="translate(-142.11 -103.254)" fill="#263238"/>
        <path id="Path_37873" data-name="Path 37873" d="M369.536,245.844s4.719-8.814,11.9-10.18,11.573,6.022,11.573,6.022-5.236,6.687-11.824,7.854-11.646-3.7-11.646-3.7" transform="translate(-156.213 -99.551)" fill="#00a599"/>
        <path id="Path_37874" data-name="Path 37874" d="M382.649,240.691a19.418,19.418,0,0,0-5.63.067c.107-.059.215-.118.32-.172.533-.27,1.062-.545,1.593-.82,1.1-.573,2.216-1.184,3.371-1.646a.04.04,0,1,0-.033-.073c-1.123.524-2.287.961-3.413,1.48-.563.259-1.118.529-1.665.82-.354.188-.746.365-1.095.589a19.805,19.805,0,0,0-4.563,1.516q.449-.489.9-.978c.669-.732,1.327-1.5,2.062-2.169.039-.035-.02-.091-.058-.055-.752.682-1.545,1.314-2.273,2.023-.353.344-.692.7-1.021,1.068-.165.183-.329.372-.486.567a18.919,18.919,0,0,0-9.624,13c-.01.049.061.077.076.026A21.7,21.7,0,0,1,366.384,247,20.746,20.746,0,0,1,376,241.436a21.053,21.053,0,0,1,6.638-.6.071.071,0,0,0,.01-.141" transform="translate(-152.617 -100.627)" fill="#263238"/>
        <g id="Group_15709" data-name="Group 15709" transform="translate(213.768 141.188)" opacity="0.1">
          <g id="Group_15708" data-name="Group 15708">
            <g id="Group_15707" data-name="Group 15707" clip-path="url(#clip-path-7)">
              <path id="Path_37875" data-name="Path 37875" d="M393.334,245.526s-5.238,6.688-11.827,7.853c-5.025.891-9.159-1.73-10.837-3.02l-.363-.6a26.516,26.516,0,0,1,9.827-4.518,28.646,28.646,0,0,1,13.2.28" transform="translate(-370.307 -244.578)"/>
            </g>
          </g>
        </g>
        <path id="Path_37876" data-name="Path 37876" d="M389.069,237.182a17.841,17.841,0,0,0-1.594,1.052,10.177,10.177,0,0,0-1.385,1.267.043.043,0,0,0,.062.059c.476-.414.955-.828,1.45-1.22a15.267,15.267,0,0,1,1.51-1.089.04.04,0,0,0-.043-.069" transform="translate(-163.206 -100.261)" fill="#263238"/>
        <path id="Path_37877" data-name="Path 37877" d="M396.886,239.77c-.266.111-.537.207-.8.317l-.8.332c-.057.024-.03.117.028.093l.8-.325c.268-.108.529-.231.8-.339.048-.019.024-.1-.024-.077" transform="translate(-167.085 -101.356)" fill="#263238"/>
        <path id="Path_37878" data-name="Path 37878" d="M367.905,271.466s1.261,8.743,7.836,11.8,14.591,0,14.591,0-3.152-18.918-22.426-11.8" transform="translate(-155.524 -114.08)" fill="#00a599"/>
        <path id="Path_37879" data-name="Path 37879" d="M382.988,278.379c-.607-.069-1.209-.173-1.81-.282q-.443-.08-.884-.167c-.149-.029-.3-.065-.461-.092-.177-.165-.352-.333-.533-.493a26.594,26.594,0,0,0-4.021-2.915,22.58,22.58,0,0,0-2.41-1.238l.124.006c.722.031,1.443.06,2.164.094,1.443.067,2.886.1,4.328.192.052,0,.05-.077,0-.081-1.447-.1-2.887-.257-4.333-.382q-1.051-.091-2.1-.187l-1.084-.094c-.092-.008-.185-.02-.277-.03-.375-.14-.753-.272-1.135-.39a10.255,10.255,0,0,0-5.569-.308,4.874,4.874,0,0,0-3.733,3.251c-.015.061.078.1.1.042a4.9,4.9,0,0,1,3.694-2.494,8.8,8.8,0,0,1,2.978-.058,7.056,7.056,0,0,0,.332,1.322c.182.615.361,1.231.548,1.845.373,1.228.783,2.445,1.147,3.675a.04.04,0,0,0,.077-.023c-.305-1.227-.563-2.466-.859-3.7-.145-.6-.3-1.206-.447-1.809a10.352,10.352,0,0,0-.331-1.243,15.8,15.8,0,0,1,1.706.4,25.112,25.112,0,0,1,2.979,1.092c.1.623.236,1.242.379,1.856.18.772.38,1.537.625,2.291a.039.039,0,0,0,.074-.022l-.029-.143,0,0c-.147-.715-.3-1.428-.456-2.142-.121-.576-.233-1.154-.358-1.729.817.367,1.619.768,2.4,1.214.016.178.059.36.085.522.047.3.1.6.156.9.124.675.258,1.347.42,2.014a31.649,31.649,0,0,0,1.13,3.8.041.041,0,0,0,0,.051l.038.044c.028.033.075-.006.066-.041-.3-1.3-.651-2.58-.936-3.882-.142-.649-.285-1.3-.416-1.95-.065-.326-.125-.652-.186-.979-.017-.091-.031-.192-.046-.292a27.324,27.324,0,0,1,2.56,1.708,27.641,27.641,0,0,1,3.919,3.577c.047.053.14-.021.1-.079a24.5,24.5,0,0,0-1.567-1.911c-.33-.354-.674-.7-1.024-1.032l.109.019c.308.052.617.1.926.139.608.081,1.218.141,1.828.21.051.006.071-.073.02-.078" transform="translate(-152.71 -114.878)" fill="#263238"/>
        <path id="Path_37880" data-name="Path 37880" d="M390.5,286.678h0c-.01-.076-.023-.151-.038-.226-.019-.1-.066-.189-.08-.286l0,0c-.136-.584-.25-1.172-.356-1.764-.008-.041-.073-.029-.071.012a7.136,7.136,0,0,0,.5,2.283c.009.023.05.021.047-.008v-.006" transform="translate(-164.846 -120.212)" fill="#263238"/>
        <path id="Path_37881" data-name="Path 37881" d="M380.521,284.573a.039.039,0,0,0-.039-.037c-.184-.774-.362-1.549-.521-2.329-.084-.41-.17-.819-.248-1.23q-.063-.332-.122-.664a1.942,1.942,0,0,0-.142-.569.041.041,0,0,0-.073.012,3.839,3.839,0,0,0,.164,1.174c.081.427.163.853.257,1.277.19.862.407,1.722.65,2.571a.045.045,0,0,0,.088-.014c0-.064-.009-.127-.013-.191" transform="translate(-160.368 -118.248)" fill="#263238"/>
        <path id="Path_37882" data-name="Path 37882" d="M395.192,278.513c-1.2-.165-2.4-.338-3.6-.484-.051-.006-.072.071-.02.079,1.2.177,2.4.326,3.6.484.051.007.072-.072.02-.078" transform="translate(-165.515 -117.531)" fill="#263238"/>
        <path id="Path_37883" data-name="Path 37883" d="M361.809,218.958s-4.023-17.651,14.942-24.794c0,0,5.254,23.234-14.942,24.794" transform="translate(-152.796 -82.079)" fill="#00a599"/>
        <path id="Path_37884" data-name="Path 37884" d="M365.9,213.538c.072-.046.14-.089.2-.124.359-.2.715-.4,1.072-.6l2.2-1.23c1.447-.81,2.877-1.652,4.334-2.444.046-.025,0-.094-.043-.069-1.46.794-2.945,1.537-4.414,2.314l-2.174,1.149-.888.469c.633-1.2,1.309-2.376,2.051-3.509.991-1.512,2.077-2.952,3.208-4.361a.065.065,0,0,0-.094-.089,30.13,30.13,0,0,0-4.385,5.376c0-.062,0-.125.006-.184.021-.439.033-.878.039-1.318.013-.861-.029-1.724,0-2.585,0-.052-.078-.05-.081,0-.035.847-.137,1.693-.186,2.541q-.035.635-.055,1.269c-.006.229-.028.49-.02.74q-.586.932-1.12,1.891a32.708,32.708,0,0,0-1.695,3.555c-.019-.44-.046-.879-.072-1.319-.057-.966-.175-1.929-.215-2.9a.04.04,0,0,0-.081,0c.02.967-.025,1.934.005,2.9.015.483.029.966.061,1.448.012.177.021.358.033.539a32.068,32.068,0,0,0-1.432,4.85,52.128,52.128,0,0,0-.707,5.331c0,.013.019.012.02,0a28.731,28.731,0,0,1,1.006-4.753c.235-.833.482-1.662.749-2.485.789-.371,1.545-.835,2.307-1.258.791-.438,1.587-.867,2.38-1.3,1.581-.868,3.161-1.751,4.794-2.517.047-.023,0-.09-.043-.069-1.654.749-3.32,1.461-4.943,2.277-.808.406-1.6.84-2.391,1.284-.659.371-1.335.742-1.964,1.169.184-.549.376-1.1.585-1.637a47.39,47.39,0,0,1,1.95-4.36" transform="translate(-152.796 -86.67)" fill="#263238"/>
        <path id="Path_37885" data-name="Path 37885" d="M366.333,212.754c0-.052-.084-.05-.081,0,.068,1.007.1,2.014.209,3.018a.044.044,0,0,0,.089,0c-.035-1.009-.143-2.011-.217-3.017" transform="translate(-154.825 -89.921)" fill="#263238"/>
        <path id="Path_37886" data-name="Path 37886" d="M379.518,218.62c-1.187.478-2.385.932-3.566,1.426-.033.013-.018.067.017.054,1.2-.449,2.381-.938,3.573-1.4.048-.018.025-.1-.024-.077" transform="translate(-158.918 -92.416)" fill="#263238"/>
        <path id="Path_37887" data-name="Path 37887" d="M382.778,204.516a31.235,31.235,0,0,0-3.372,1.809.051.051,0,0,0,.053.086c1.1-.643,2.22-1.26,3.362-1.826.047-.023,0-.09-.043-.069" transform="translate(-160.376 -86.453)" fill="#263238"/>
        <rect id="Rectangle_28031" data-name="Rectangle 28031" width="27.351" height="28.829" transform="translate(194.766 175.048)" fill="#37474f"/>
        <rect id="Rectangle_28032" data-name="Rectangle 28032" width="1.399" height="49.38" transform="translate(192.884 185.249)" fill="#263238"/>
        <rect id="Rectangle_28033" data-name="Rectangle 28033" width="1.399" height="49.38" transform="translate(222.451 185.249)" fill="#263238"/>
        <rect id="Rectangle_28034" data-name="Rectangle 28034" width="1.399" height="49.38" transform="translate(208.412 185.249)" fill="#263238"/>
        <rect id="Rectangle_28035" data-name="Rectangle 28035" width="29.568" height="3.992" transform="translate(193.583 202.029)" fill="#263238"/>
      </g>
    </g>
    <g id="Group_15713" data-name="Group 15713">
      <g id="Group_15712" data-name="Group 15712" clip-path="url(#clip-path)">
        <path id="Path_37888" data-name="Path 37888" d="M211.667,54.546H117.472a9.616,9.616,0,0,0-9.527,9.706v193.9a9.623,9.623,0,0,0,9.527,9.706h94.195a9.633,9.633,0,0,0,9.539-9.706V64.252a9.625,9.625,0,0,0-9.539-9.706m3.577,197.61c0,5.1-3.822,9.232-8.536,9.232H122.442c-4.724,0-8.546-4.129-8.546-9.232V71.6c0-10.4,3.822-10.9,8.546-10.9h16.882c.981,0,1.783,1.114,1.783,2.5v.6c0,3.237,1.772,3.248,3.945,3.248h39.035c2.2,0,3.956-.011,3.956-3.248v-.6c0-1.382.791-2.5,1.788-2.5h16.877c4.714,0,8.536,1.382,8.536,10.9Z" transform="translate(-45.631 -23.058)" fill="#263238"/>
        <path id="Path_37889" data-name="Path 37889" d="M219.611,76.38V256.936c0,5.1-3.822,9.232-8.536,9.232H126.809c-4.725,0-8.547-4.129-8.547-9.232V76.38c0-10.4,3.822-10.9,8.547-10.9h16.882c.981,0,1.783,1.114,1.783,2.5v.6c0,3.237,1.772,3.248,3.945,3.248h39.035c2.2,0,3.956-.011,3.956-3.248v-.6c0-1.382.791-2.5,1.788-2.5h16.877c4.713,0,8.536,1.381,8.536,10.9" transform="translate(-49.993 -27.679)" fill="#fff"/>
        <path id="Path_37890" data-name="Path 37890" d="M219.611,76.385V92.765H118.262V76.385c0-10.4,3.822-10.9,8.547-10.9h16.882c.981,0,1.783,1.114,1.783,2.5v.6c0,3.237,1.772,3.248,3.945,3.248h39.035c2.2,0,3.956-.011,3.956-3.248v-.6c0-1.381.791-2.5,1.788-2.5h16.877c4.713,0,8.536,1.381,8.536,10.9" transform="translate(-49.993 -27.681)" fill="#5f2d79"/>
        <path id="Path_37891" data-name="Path 37891" d="M206.984,68.218H196.337a.658.658,0,0,1,0-1.316h10.648a.658.658,0,0,1,0,1.316" transform="translate(-82.719 -28.281)" fill="#fff"/>
        <path id="Path_37892" data-name="Path 37892" d="M154.578,71.67l-.163.162-.092.092a2.219,2.219,0,0,0-3.144,0l-.088-.092-.161-.162,0,0v0l.012-.01c.069-.061.136-.124.207-.182a2.553,2.553,0,0,1,1.109-.517c.1-.019.211-.029.316-.042.036,0,.27-.005.277,0,.072.005.144.008.215.016a2.422,2.422,0,0,1,.58.139,2.547,2.547,0,0,1,.392.184,2.477,2.477,0,0,1,.375.262c.058.05.115.1.172.155Z" transform="translate(-63.8 -29.976)" fill="#fff"/>
        <path id="Path_37893" data-name="Path 37893" d="M152.071,72.968l-.258-.256a1.857,1.857,0,0,1,2.626,0l-.259.257a1.492,1.492,0,0,0-2.109,0" transform="translate(-64.176 -30.507)" fill="#fff"/>
        <path id="Path_37894" data-name="Path 37894" d="M154.3,73.758l-.256.256a.762.762,0,0,0-1.081,0l-.256-.256a1.119,1.119,0,0,1,1.593,0" transform="translate(-64.554 -31.039)" fill="#fff"/>
        <path id="Path_37895" data-name="Path 37895" d="M154.15,74.678a.231.231,0,1,1-.231-.231.231.231,0,0,1,.231.231" transform="translate(-64.968 -31.471)" fill="#fff"/>
        <path id="Path_37896" data-name="Path 37896" d="M129.7,72.588a.672.672,0,1,1,.671.671.671.671,0,0,1-.671-.671" transform="translate(-54.83 -30.401)" fill="#fff"/>
        <path id="Path_37897" data-name="Path 37897" d="M133.369,72.588a.672.672,0,1,1,.672.671.671.671,0,0,1-.672-.671" transform="translate(-56.379 -30.401)" fill="#fff"/>
        <path id="Path_37898" data-name="Path 37898" d="M137.034,72.588a.672.672,0,1,1,.671.671.671.671,0,0,1-.671-.671" transform="translate(-57.928 -30.401)" fill="#fff"/>
        <path id="Path_37899" data-name="Path 37899" d="M140.7,72.588a.672.672,0,1,1,.671.671.671.671,0,0,1-.671-.671" transform="translate(-59.478 -30.401)" fill="#fff"/>
        <path id="Path_37900" data-name="Path 37900" d="M144.363,72.588a.672.672,0,1,1,.672.671.671.671,0,0,1-.672-.671" transform="translate(-61.026 -30.401)" fill="#fff"/>
        <path id="Path_37901" data-name="Path 37901" d="M276.647,73.765h-5.468V71.232h5.468Zm-5.189-.279h4.911V71.511h-4.911Z" transform="translate(-114.635 -30.112)" fill="#fff"/>
        <rect id="Rectangle_28037" data-name="Rectangle 28037" width="3.525" height="1.672" transform="translate(156.997 41.55)" fill="#fff"/>
        <rect id="Rectangle_28038" data-name="Rectangle 28038" width="0.487" height="1.355" transform="translate(162.015 41.709)" fill="#fff"/>
        <path id="Path_37902" data-name="Path 37902" d="M132.7,97.779,129.7,94.974l2.994-2.8.465.495-2.466,2.31,2.466,2.311Z" transform="translate(-54.83 -38.962)" fill="#fff"/>
        <path id="Path_37903" data-name="Path 37903" d="M274.885,97.833h-2.019v-.7a.161.161,0,0,0-.09-.142,2.327,2.327,0,0,1-.224-.13.16.16,0,0,0-.169-.008l-.61.351-1.009-1.748.61-.352a.161.161,0,0,0,.076-.15c0-.044,0-.087,0-.129s0-.084,0-.126a.163.163,0,0,0-.076-.153l-.609-.351,1.009-1.748.608.351a.16.16,0,0,0,.169-.008,2.5,2.5,0,0,1,.226-.13.16.16,0,0,0,.09-.142v-.7h2.019v.7a.16.16,0,0,0,.089.142,2.49,2.49,0,0,1,.226.13.161.161,0,0,0,.169.008l.608-.351,1.008,1.748-.61.352a.162.162,0,0,0-.077.151c0,.043,0,.085,0,.128s0,.084,0,.126a.161.161,0,0,0,.075.151l.611.353L275.977,97.2l-.61-.351a.162.162,0,0,0-.168.007,2.173,2.173,0,0,1-.225.13.161.161,0,0,0-.089.142ZM273.3,97.4h1.153v-.268a.591.591,0,0,1,.326-.528,2.022,2.022,0,0,0,.184-.107.592.592,0,0,1,.622-.02l.234.135.576-1-.236-.137a.591.591,0,0,1-.291-.547l0-.106,0-.107a.593.593,0,0,1,.293-.547l.234-.135-.576-1-.233.135a.592.592,0,0,1-.622-.02,1.893,1.893,0,0,0-.185-.107.591.591,0,0,1-.326-.528V92.25H273.3v.268a.59.59,0,0,1-.327.528,1.94,1.94,0,0,0-.185.107.589.589,0,0,1-.622.02l-.233-.135-.576,1,.233.134a.594.594,0,0,1,.293.548l0,.106,0,.109a.592.592,0,0,1-.292.546l-.234.135.576,1,.234-.135a.59.59,0,0,1,.622.02,2.031,2.031,0,0,0,.185.107.592.592,0,0,1,.326.528Zm.576-1.06a1.515,1.515,0,1,1,1.516-1.515,1.516,1.516,0,0,1-1.516,1.515m0-2.6a1.082,1.082,0,1,0,1.083,1.082,1.083,1.083,0,0,0-1.083-1.082" transform="translate(-114.46 -38.814)" fill="#fff"/>
        <rect id="Rectangle_28039" data-name="Rectangle 28039" width="10.539" height="10.539" transform="translate(82.782 190.87)" fill="#ebebeb"/>
        <rect id="Rectangle_28040" data-name="Rectangle 28040" width="10.539" height="10.539" transform="translate(98.185 190.87)" fill="#ebebeb"/>
        <rect id="Rectangle_28041" data-name="Rectangle 28041" width="10.539" height="10.539" transform="translate(113.587 190.87)" fill="#ebebeb"/>
        <rect id="Rectangle_28042" data-name="Rectangle 28042" width="10.539" height="10.539" transform="translate(128.99 190.87)" fill="#ebebeb"/>
        <rect id="Rectangle_28043" data-name="Rectangle 28043" width="10.539" height="10.539" transform="translate(144.393 190.87)" fill="#ebebeb"/>
        <rect id="Rectangle_28044" data-name="Rectangle 28044" width="72.15" height="1.137" transform="translate(82.458 206.962)" fill="#ebebeb"/>
        <rect id="Rectangle_28045" data-name="Rectangle 28045" width="72.15" height="1.137" transform="translate(82.458 209.967)" fill="#ebebeb"/>
        <rect id="Rectangle_28046" data-name="Rectangle 28046" width="72.15" height="1.137" transform="translate(82.458 212.972)" fill="#ebebeb"/>
        <rect id="Rectangle_28047" data-name="Rectangle 28047" width="33.494" height="1.137" transform="translate(82.458 215.976)" fill="#ebebeb"/>
      </g>
    </g>
    <g id="Group_15715" data-name="Group 15715">
      <g id="Group_15714" data-name="Group 15714" clip-path="url(#clip-path)">
        <path id="Path_37904" data-name="Path 37904" d="M323.838,117.989a9.5,9.5,0,0,1-.286-2.463,9.4,9.4,0,0,1,.291-2.463,9.4,9.4,0,0,1,.286,2.463,9.5,9.5,0,0,1-.291,2.463" transform="translate(-136.775 -47.795)" fill="#263238"/>
        <path id="Path_37905" data-name="Path 37905" d="M313.56,120.974a9.515,9.515,0,0,1-1.479-1.99,9.389,9.389,0,0,1-.979-2.278,9.389,9.389,0,0,1,1.478,1.99,9.517,9.517,0,0,1,.979,2.278" transform="translate(-131.512 -49.335)" fill="#263238"/>
        <path id="Path_37906" data-name="Path 37906" d="M305.967,128.807a10.66,10.66,0,0,1-4.262-2.467,9.4,9.4,0,0,1,2.276.984,9.5,9.5,0,0,1,1.986,1.484" transform="translate(-127.539 -53.408)" fill="#263238"/>
        <path id="Path_37907" data-name="Path 37907" d="M303.305,139.179a9.491,9.491,0,0,1-2.462.286,9.4,9.4,0,0,1-2.462-.291,9.394,9.394,0,0,1,2.463-.286,9.491,9.491,0,0,1,2.462.291" transform="translate(-126.134 -58.712)" fill="#263238"/>
        <path id="Path_37908" data-name="Path 37908" d="M306.29,148.083a9.534,9.534,0,0,1-1.989,1.48,9.4,9.4,0,0,1-2.277.979,10.66,10.66,0,0,1,4.267-2.459" transform="translate(-127.674 -62.599)" fill="#263238"/>
        <path id="Path_37909" data-name="Path 37909" d="M314.119,154.358a9.5,9.5,0,0,1-.984,2.276,9.4,9.4,0,0,1-1.482,1.988,9.384,9.384,0,0,1,.983-2.276,9.529,9.529,0,0,1,1.483-1.987" transform="translate(-131.745 -65.252)" fill="#263238"/>
        <path id="Path_37910" data-name="Path 37910" d="M324.487,156.535a9.5,9.5,0,0,1,.286,2.463,9.4,9.4,0,0,1-.291,2.463A9.394,9.394,0,0,1,324.2,159a9.5,9.5,0,0,1,.291-2.463" transform="translate(-137.047 -66.172)" fill="#263238"/>
        <path id="Path_37911" data-name="Path 37911" d="M333.388,154.031a9.52,9.52,0,0,1,1.479,1.99,9.393,9.393,0,0,1,.978,2.278,9.386,9.386,0,0,1-1.478-1.99,9.522,9.522,0,0,1-.979-2.279" transform="translate(-140.933 -65.113)" fill="#263238"/>
        <path id="Path_37912" data-name="Path 37912" d="M339.66,147.518a10.642,10.642,0,0,1,4.262,2.467,9.381,9.381,0,0,1-2.276-.984,9.5,9.5,0,0,1-1.986-1.483" transform="translate(-143.584 -62.36)" fill="#263238"/>
        <path id="Path_37913" data-name="Path 37913" d="M341.836,138.53a9.49,9.49,0,0,1,2.462-.286,9.394,9.394,0,0,1,2.462.291,9.394,9.394,0,0,1-2.463.286,9.491,9.491,0,0,1-2.461-.291" transform="translate(-144.504 -58.44)" fill="#263238"/>
        <path id="Path_37914" data-name="Path 37914" d="M339.333,128.248a9.517,9.517,0,0,1,1.989-1.48,9.39,9.39,0,0,1,2.277-.979,10.658,10.658,0,0,1-4.267,2.459" transform="translate(-143.446 -53.175)" fill="#263238"/>
        <path id="Path_37915" data-name="Path 37915" d="M332.822,120.651a9.509,9.509,0,0,1,.984-2.276,9.393,9.393,0,0,1,1.482-1.988,10.644,10.644,0,0,1-2.466,4.263" transform="translate(-140.693 -49.201)" fill="#263238"/>
      </g>
    </g>
    <g id="Group_15717" data-name="Group 15717">
      <g id="Group_15716" data-name="Group 15716" clip-path="url(#clip-path)">
        <path id="Path_37920" data-name="Path 37920" d="M18.438,141.987A14.336,14.336,0,0,0,41.325,153.5L48.35,155.3l-2.924-6.542a14.342,14.342,0,1,0-26.987-6.766" transform="translate(-7.794 -53.959)" fill="#fff"/>
        <path id="Path_37921" data-name="Path 37921" d="M18.438,141.9a14.414,14.414,0,0,0,2.168,7.5,12.875,12.875,0,0,0,2.518,3.024,13.343,13.343,0,0,0,3.247,2.214,14.138,14.138,0,0,0,3.722,1.237,13.857,13.857,0,0,0,1.951.207,12.339,12.339,0,0,0,1.96-.033,14.127,14.127,0,0,0,7.2-2.8l.077-.059.1.024,7.038,1.747-.294.349-2.948-6.532-.055-.124.065-.122a14.334,14.334,0,0,0,1.654-6.109,14.163,14.163,0,0,0-1.179-6.225,14.778,14.778,0,0,0-3.781-5.1,14.1,14.1,0,0,0-5.647-2.943,14.307,14.307,0,0,0-6.393-.188,14.247,14.247,0,0,0-11.4,13.932m0,0a14.424,14.424,0,0,1,5.5-11.332A14.317,14.317,0,0,1,36.3,127.85a14.471,14.471,0,0,1,5.848,2.92,14.672,14.672,0,0,1,3.969,5.224,14.5,14.5,0,0,1-.451,12.8l.009-.245,2.9,6.552.214.483-.507-.133-7.014-1.84.174-.035a14.465,14.465,0,0,1-7.42,2.746,12.647,12.647,0,0,1-2,0,14.391,14.391,0,0,1-8.962-3.838,16.162,16.162,0,0,1-1.372-1.432,15.989,15.989,0,0,1-1.137-1.623,14.436,14.436,0,0,1-2.123-7.531" transform="translate(-7.794 -53.873)" fill="#263238"/>
        <path id="Path_37922" data-name="Path 37922" d="M39.963,137.51h3.356l-.226,12.365h-2.9Z" transform="translate(-16.894 -58.13)" fill="#5f2d79"/>
        <rect id="Rectangle_28052" data-name="Rectangle 28052" width="2.901" height="2.901" transform="translate(23.296 93.295)" fill="#5f2d79"/>
      </g>
    </g>
    <path id="Path_37923" data-name="Path 37923" d="M111.209,341.08l1.375,8.246,9.315,50.306h1.5l-6.774-50.306-1-8.246Z" transform="translate(-47.011 -144.184)" fill="#c7c7c7"/>
    <path id="Path_37924" data-name="Path 37924" d="M115.626,341.08h-4.417l1.375,8.246h4.043Z" transform="translate(-47.011 -144.184)" fill="#a6a6a6"/>
    <path id="Path_37925" data-name="Path 37925" d="M60.534,399.633h1.5l9.315-50.307,1.375-8.246H68.308l-1,8.246Z" transform="translate(-25.589 -144.185)" fill="#c7c7c7"/>
    <path id="Path_37926" data-name="Path 37926" d="M73.269,341.08l-1,8.246h4.043l1.375-8.246Z" transform="translate(-30.55 -144.184)" fill="#a6a6a6"/>
    <path id="Path_37927" data-name="Path 37927" d="M12.132,399.633h1.5l9.315-50.307,1.375-8.246H19.906l-1,8.246Z" transform="translate(-5.128 -144.185)" fill="#c7c7c7"/>
    <path id="Path_37928" data-name="Path 37928" d="M23.866,349.326h4.043l1.375-8.246H24.867Z" transform="translate(-10.089 -144.184)" fill="#a6a6a6"/>
    <path id="Path_37929" data-name="Path 37929" d="M16.257,305.936H84.517v-7.193H58.964l-8.587-49.965H18.859Z" transform="translate(-6.872 -105.166)" fill="#c7c7c7"/>
    <path id="Path_37930" data-name="Path 37930" d="M16.257,305.936h3.721L22.4,248.778H18.859Z" transform="translate(-6.872 -105.166)" fill="#a6a6a6"/>
    <g id="Group_15719" data-name="Group 15719">
      <g id="Group_15718" data-name="Group 15718" clip-path="url(#clip-path)">
        <g id="Group_15752" data-name="Group 15752" transform="translate(98.944 100.335)">
          <path id="Path_37917" data-name="Path 37917" d="M215.949,152.49l-20.3,35.165h40.605Z" transform="translate(-195.646 -152.49)" fill="#c8375b"/>
          <path id="Path_37918" data-name="Path 37918" d="M221.307,163.566,205.415,191.09H237.2Z" transform="translate(-201.004 -158.564)" fill="#fff"/>
          <path id="Path_37919" data-name="Path 37919" d="M237.04,181.2h3.22l-.217,11.866h-2.786Z" transform="translate(-218.348 -168.237)" fill="#d92059"/>
          <rect id="Rectangle_28051" data-name="Rectangle 28051" width="2.784" height="2.784" transform="translate(18.911 26.319)" fill="#d92059"/>
        </g>
        <text id="No_Orders" data-name="No Orders" transform="translate(92.944 157.187)" fill="#0e1740" font-size="10" font-family="Montserrat-SemiBold, Montserrat" font-weight="600"><tspan x="0" y="0">No Orders</tspan></text>
        <path id="Path_37931" data-name="Path 37931" d="M208.516,421.391c-1.223.432-37.308-.073-38.659-.91-.162-.09-.4-7-.4-7-.013-.673-.73-4.933-.73-4.933-3.226-7.755-10.916-21.431-10.916-21.431l23.656.631,11.093,22s4.913,1.96,9.194,3.918c.005.005.01.005.01.01a50.37,50.37,0,0,1,5.465,2.7c1.376,1.069,2.515,4.587,1.291,5.009" transform="translate(-66.709 -163.648)" fill="#ad6359"/>
        <path id="Path_37932" data-name="Path 37932" d="M216.63,437.1c-1.271.42-37.577.228-38.953-.657-.529-.327-.959-12.142-.96-12.209l23.424-.137-.012.4s13.861,6.281,15.272,7.414,2.5,4.777,1.228,5.192" transform="translate(-74.703 -179.277)" fill="#2c3341"/>
        <path id="Path_37933" data-name="Path 37933" d="M218.126,444.023c-6.119-.182-30.818-.342-36.882-.058-.049,0-.049.036,0,.039,6.061.313,30.76.273,36.881.12.129,0,.13-.1,0-.1" transform="translate(-76.602 -187.611)" fill="#263238"/>
        <path id="Path_37934" data-name="Path 37934" d="M216.517,424.1c-2.406-.462-5.354-.108-7.2,1.6-.072.066.023.166.1.143a33.9,33.9,0,0,1,7.091-1.435.154.154,0,0,0,.012-.3" transform="translate(-88.472 -179.2)" fill="#fff"/>
        <path id="Path_37935" data-name="Path 37935" d="M219.517,425.926c-2.406-.462-5.354-.108-7.2,1.6-.072.066.023.166.1.143a33.9,33.9,0,0,1,7.091-1.435.154.154,0,0,0,.012-.3" transform="translate(-89.74 -179.973)" fill="#fff"/>
        <path id="Path_37936" data-name="Path 37936" d="M222.518,427.754c-2.405-.462-5.354-.108-7.2,1.6-.072.066.023.166.1.143a33.9,33.9,0,0,1,7.091-1.435.154.154,0,0,0,.012-.3" transform="translate(-91.009 -180.746)" fill="#fff"/>
        <path id="Path_37937" data-name="Path 37937" d="M144.015,364.49l-28.033.236S97.728,321.08,95.94,318.708c-.895-1.186-42.2-7.3-49.425-13.422-9.381-7.948-2.457-22.754-2.457-22.754l26.494-.1s-1.182,5.693-.192,6.49c.652.533,38.909,9.466,45.622,17.812,9.632,11.977,28.033,57.759,28.033,57.759" transform="translate(-17.584 -119.391)" fill="#0e1740"/>
        <path id="Path_37938" data-name="Path 37938" d="M196.273,416.642c-1.486-.083-2.991-.023-4.48-.026s-2.987-.005-4.481,0c-2.987.005-5.974.032-8.961.058-1.693.014-3.381.118-5.071.186a.049.049,0,1,0,0,.1c2.99.137,5.969.218,8.963.2s5.974-.069,8.96-.164c1.684-.054,3.394-.042,5.07-.2a.074.074,0,1,0,0-.148" transform="translate(-73.229 -176.108)" fill="#263238"/>
        <path id="Path_37939" data-name="Path 37939" d="M118.689,353.291c-.72-1.869-1.506-3.715-2.314-5.547-1.589-3.6-3.267-7.159-4.949-10.715q-2.633-5.567-5.276-11.13-1.3-2.732-2.605-5.464a9.939,9.939,0,0,0-1.182-2.015,4.837,4.837,0,0,0-2.053-1.45,27.07,27.07,0,0,0-2.616-.789q-1.444-.4-2.893-.791-2.9-.777-5.808-1.5c-3.882-.956-30.1-6.164-34.431-8.042a10.822,10.822,0,0,1-5.693-5.983c-1.338-3.629-1.232-7.507-.791-11.294.114-.977.267-1.951.414-2.924.01-.062-.086-.087-.1-.024-.58,3.825-1.247,7.732-.615,11.6a11.994,11.994,0,0,0,5.038,8.208c5.556,3.428,35.644,8.793,43.411,10.9.953.259,1.906.517,2.855.79a5.781,5.781,0,0,1,2.5,1.22,7.087,7.087,0,0,1,1.37,2.09c.427.882.838,1.772,1.257,2.658q2.627,5.565,5.269,11.123c3.459,7.272,6.976,14.537,9.946,22.027.357.9.71,1.8,1.081,2.691.047.112.221.066.185-.055-.571-1.893-1.289-3.739-2-5.583" transform="translate(-20.09 -120.727)" fill="#263238"/>
        <path id="Path_37940" data-name="Path 37940" d="M163.67,430.822c-1.23.414-36.4-.082-37.743-.939-1.466-1.395-2.087-34.58-2.087-34.58l22.628-.187,1.411,23.826s4.884,2.034,9.136,4.055c.005.005.01.005.01.01a50.357,50.357,0,0,1,5.426,2.786c1.361,1.089,2.448,4.624,1.219,5.027" transform="translate(-52.35 -167.027)" fill="#ad6359"/>
        <path id="Path_37941" data-name="Path 37941" d="M164.846,447.5c-1.271.421-37.579.246-38.956-.638-.529-.327-.812-5.612-.97-12.007l0-.2,23.426-.148-.011.4s13.868,6.274,15.281,7.406,2.5,4.776,1.234,5.191" transform="translate(-52.806 -183.677)" fill="#2c3341"/>
        <path id="Path_37942" data-name="Path 37942" d="M166.349,454.426c-6.12-.179-30.82-.327-36.884-.04-.049,0-.05.036,0,.039,6.062.31,30.763.258,36.883.1.129,0,.13-.1,0-.1" transform="translate(-54.713 -192.014)" fill="#263238"/>
        <path id="Path_37943" data-name="Path 37943" d="M164.721,434.5c-2.407-.461-5.354-.1-7.2,1.6-.072.066.024.166.1.143a33.913,33.913,0,0,1,7.09-1.439.154.154,0,0,0,.012-.3" transform="translate(-66.576 -183.6)" fill="#fff"/>
        <path id="Path_37944" data-name="Path 37944" d="M167.723,436.332c-2.406-.461-5.354-.106-7.2,1.6-.072.066.024.167.1.143a33.911,33.911,0,0,1,7.09-1.438.154.154,0,0,0,.011-.3" transform="translate(-67.846 -184.372)" fill="#fff"/>
        <path id="Path_37945" data-name="Path 37945" d="M170.726,438.159c-2.407-.461-5.354-.105-7.2,1.6-.072.066.024.166.1.143a33.9,33.9,0,0,1,7.09-1.439.154.154,0,0,0,.011-.3" transform="translate(-69.115 -185.144)" fill="#fff"/>
        <path id="Path_37946" data-name="Path 37946" d="M110.269,370.446l-25.633.136S85.07,324.45,83.07,321.9c-2.666-3.4-39.98-3.327-47.983-14.434-7.188-9.975,0-25.033,0-25.033H62.254a59.743,59.743,0,0,1-2.65,8.99s35.415,7.842,43.575,16.7c6.461,7.014,7.089,62.327,7.089,62.327" transform="translate(-13.482 -119.39)" fill="#0e1740"/>
        <path id="Path_37947" data-name="Path 37947" d="M81.714,294.651a13.557,13.557,0,0,0-2.395.767c-.811.309-1.61.66-2.39,1.04a47.294,47.294,0,0,0-4.47,2.526c-.045.028,0,.091.044.067,1.528-.793,3.107-1.506,4.689-2.187l2.283-.982a24.508,24.508,0,0,0,2.309-1.019c.1-.054.043-.231-.07-.211" transform="translate(-30.622 -124.557)" fill="#263238"/>
        <path id="Path_37948" data-name="Path 37948" d="M82.7,282.519c-.323,1.288-.607,2.586-.976,3.863-.169.586-.336,1.182-.558,1.75-.187.48-.47,1.027-1.026,1.134-.64.124-.823-.424-.771-.952.058-.589.209-1.181.326-1.761a40.594,40.594,0,0,0,.761-4.033.049.049,0,0,0-.059,0,5.864,5.864,0,0,0-.476,1.339c-.178.615-.353,1.231-.509,1.852s-.309,1.242-.462,1.863A2.906,2.906,0,0,0,78.822,289a1.092,1.092,0,0,0,1.013.824c-.022.042-.048.082-.068.125-.056.127-.1.262-.145.392s-.094.266-.132.4a1.165,1.165,0,0,0-.037.2c-.009.075.006.147,0,.222a.107.107,0,0,0,.2.072c.034-.066.083-.117.121-.18a1.141,1.141,0,0,0,.092-.215c.044-.129.081-.257.114-.39s.073-.261.1-.393c.014-.079.017-.158.024-.238a1.476,1.476,0,0,0,.744-.283,2.48,2.48,0,0,0,.771-1.176c.195-.536.345-1.092.5-1.641a24.172,24.172,0,0,0,.822-4.151.119.119,0,0,0-.233-.051" transform="translate(-33.299 -119.39)" fill="#263238"/>
        <path id="Path_37949" data-name="Path 37949" d="M49.653,288.012c-.117.639-.191,1.285-.338,1.919s-.313,1.24-.517,1.843a6.576,6.576,0,0,1-.787,1.66,6.216,6.216,0,0,1-1.252,1.273,10.725,10.725,0,0,1-3.03,1.685,14.188,14.188,0,0,1-1.683.492c-.3.067-.6.119-.9.158a1.916,1.916,0,0,0-.724.167.146.146,0,0,0,.014.251,2.622,2.622,0,0,0,1.34.043,9.862,9.862,0,0,0,1.432-.251,10.4,10.4,0,0,0,2.705-1.139,8.536,8.536,0,0,0,2.262-1.848,6.4,6.4,0,0,0,1.209-2.647,13.028,13.028,0,0,0,.394-3.6.063.063,0,0,0-.124-.01" transform="translate(-17.06 -121.731)" fill="#263238"/>
        <path id="Path_37950" data-name="Path 37950" d="M90.439,340.332q-.378-6.009-1-12c-.1-.985-.2-1.971-.323-2.954a9.265,9.265,0,0,0-.5-2.244,4.454,4.454,0,0,0-3.351-2.642c-1.786-.451-3.632-.72-5.449-1.014-1.857-.3-3.719-.569-5.582-.828-3.773-.525-7.552-1.01-11.309-1.642a90.212,90.212,0,0,1-11.1-2.495c-3.338-1.006-6.762-2.251-9.433-4.564-5.751-4.978-5.961-13.321-5.258-20.3.1-.985.221-1.968.339-2.952.006-.051-.073-.069-.079-.017a55.494,55.494,0,0,0-.593,11.845,19.319,19.319,0,0,0,3.144,9.175,17.2,17.2,0,0,0,7.943,5.847,62.467,62.467,0,0,0,10.585,3.047c7.458,1.559,15.066,2.22,22.57,3.5q1.389.237,2.771.506a11.461,11.461,0,0,1,2.5.668c1.7.761,2.174,2.419,2.385,4.131.49,3.975.823,7.977,1.111,11.971.581,8.051.889,16.146.874,24.219,0,1-.026,2.932-.035,3.929,0,.089.134.08.137-.007.244-8.085.154-17.105-.353-25.179" transform="translate(-15.502 -121.173)" fill="#263238"/>
        <path id="Path_37951" data-name="Path 37951" d="M130.416,350.109q-.779-10.613-2.317-21.154c-.5-3.4-.966-6.826-1.682-10.184a8.8,8.8,0,0,0-1.672-3.79,17.4,17.4,0,0,0-4-3.466c-12.462-7.721-38.765-13.174-39.568-13.364a.049.049,0,0,0-.024.1c6.383,1.578,28.573,7.66,37.554,12.849,1.361.786,5.044,2.73,6.4,5.526a21.033,21.033,0,0,1,1.272,5.134q.449,2.644.848,5.294,1.565,10.369,2.393,20.83c.552,6.964,1.093,18.191,1.106,19.072a.175.175,0,0,0,.35-.009,154.63,154.63,0,0,0-.659-16.833" transform="translate(-34.288 -126.036)" fill="#263238"/>
        <path id="Path_37952" data-name="Path 37952" d="M148.885,425.959c-1.376-.117-2.773-.093-4.153-.13s-2.769-.074-4.153-.107c-2.77-.064-5.539-.107-8.309-.151-1.57-.025-3.138.039-4.706.067a.049.049,0,0,0,0,.1c2.768.207,5.528.357,8.3.408s5.541.07,8.311.044c1.563-.014,3.148.038,4.707-.082a.074.074,0,0,0,0-.148" transform="translate(-53.904 -179.899)" fill="#263238"/>
        <path id="Path_37953" data-name="Path 37953" d="M125.645,204.283,118.3,219.2a.577.577,0,0,0,.34.95l8.137,1.737a1.346,1.346,0,0,0,1.308-.6l7.34-14.922a.576.576,0,0,0-.339-.949l-8.137-1.737a1.346,1.346,0,0,0-1.308.6" transform="translate(-49.955 -86.095)" fill="#37474f"/>
        <path id="Path_37954" data-name="Path 37954" d="M127.321,204.626l-7.34,14.921a.577.577,0,0,0,.34.95l8.137,1.737a1.346,1.346,0,0,0,1.308-.6l7.34-14.921a.576.576,0,0,0-.339-.95l-8.138-1.737a1.346,1.346,0,0,0-1.308.6" transform="translate(-50.664 -86.24)" fill="#263238"/>
        <path id="Path_37955" data-name="Path 37955" d="M135.369,206.514a.707.707,0,1,1-.525-.851.707.707,0,0,1,.525.851" transform="translate(-56.635 -86.932)" fill="#455a64"/>
        <path id="Path_37956" data-name="Path 37956" d="M76.534,230.679c2.416,10.812,9.9,25.821,14.161,26.828,2.025.479,5.545,1.773,8.73.032,6.951-3.8,13.983-12.456,16.217-17.812.794-1.9-7.9-8.351-9.683-7.054-4.179,3.039-9.711,9.6-10.292,9.42-2.148-.653-9.109-9.672-13.957-16.011-5.886-7.7-6.139.288-5.176,4.6" transform="translate(-32.173 -94.213)" fill="#ad6359"/>
        <path id="Path_37957" data-name="Path 37957" d="M144.879,225.515c-.124-4.254-.809-5.328.993-8.974,1.182-2.393.162-4.174-2.084-2.543-3.674,2.668-4.666,8.19-4.459,10.2Z" transform="translate(-58.887 -90.197)" fill="#ad6359"/>
        <path id="Path_37958" data-name="Path 37958" d="M134.26,235.769s3.048-5.211,3.364-9.758c.219-3.144-.068-10.038-7.82-15.369-1.839-1.264-5.355-1.762-3.1,1.394,1.6,2.242,3.292,3.18,3.985,4.653,0,0-4.548-.1-5.743,1.789a41.24,41.24,0,0,0-2.77,5.165,8.724,8.724,0,0,0,.92.6,6.693,6.693,0,0,0-.235,4.888Z" transform="translate(-51.646 -88.631)" fill="#ad6359"/>
        <path id="Path_37959" data-name="Path 37959" d="M134.846,226.185a24.743,24.743,0,0,0-5.71-5.712c-2.834-1.821-8.784-4.565-10.107-2.459-.97,1.544,1.21,2.792,1.21,2.792s-2.7-.616-3.269.971c-.521,1.445,1.224,2.31,1.224,2.31s-1.7-.092-1.934,1.4c-.28,1.791,3.331,1.69,4.615,3.749.289.462,13.972-3.048,13.972-3.048" transform="translate(-49.14 -91.839)" fill="#ad6359"/>
        <path id="Path_37960" data-name="Path 37960" d="M130.626,226.365a13.422,13.422,0,0,0-7.411-3.016c-.069,0-.109.047-.046.064a33.078,33.078,0,0,1,7.439,2.979c.016.009.03-.014.017-.027" transform="translate(-52.054 -94.416)" fill="#263238"/>
        <path id="Path_37961" data-name="Path 37961" d="M127.178,231.557a15.063,15.063,0,0,0-7.578-2.569c-.069,0-.105.053-.042.066a35.426,35.426,0,0,1,7.6,2.53c.017.008.029-.017.016-.028" transform="translate(-50.527 -96.8)" fill="#263238"/>
        <path id="Path_37962" data-name="Path 37962" d="M91.964,236.708,80.62,247.876s-5.09-16.75-5.2-22.1c-.12-6.019,2.984-4.764,7.144-.835s9.4,11.766,9.4,11.766" transform="translate(-31.882 -93.688)" fill="#5f2d79"/>
        <path id="Path_37963" data-name="Path 37963" d="M83.6,253.948c.332-.447,3.812-3.983,4.586-4.735s3.9-3.857,4.766-4.567a.039.039,0,0,1,.058.054c-.71.855-3.859,4-4.63,4.778s-4.294,4.2-4.733,4.528c-.037.027-.069-.027-.047-.057" transform="translate(-35.335 -103.415)" fill="#263238"/>
        <path id="Path_37964" data-name="Path 37964" d="M67.261,259.511c-.8.773-34.9,4.3-35.071,4.073-.453-.62,5.94-32.616,19.6-43.634,2.408-1.942,6.421-1.123,8.238.046.908.585,3.838,5.4,4.557,9.491s3.175,29.532,2.673,30.024" transform="translate(-13.598 -92.486)" fill="#5f2d79"/>
        <path id="Path_37965" data-name="Path 37965" d="M46.45,247.84l25.038.214c-.067-.618-.129-1.207-.193-1.773l-24.02-.2c-.285.582-.558,1.17-.825,1.765" transform="translate(-19.636 -104.023)" fill="#fff"/>
        <path id="Path_37966" data-name="Path 37966" d="M43.8,253.968l26.941.221c-.068-.6-.124-1.195-.187-1.773L44.538,252.2c-.256.584-.5,1.174-.739,1.765" transform="translate(-18.515 -106.613)" fill="#fff"/>
        <path id="Path_37967" data-name="Path 37967" d="M76.8,220.265c1.34,1.377,1.564,5.645-1.239,6.28s-6.285-4.1-6.56-6.56,4.831-2.77,7.8.28" transform="translate(-29.163 -92.18)" fill="#5f2d79"/>
        <path id="Path_37968" data-name="Path 37968" d="M75.951,220.919c-1.992.29-5.081-2.982-6.192-5.512-.075-.174,1.194-6.732,1.31-8.058.023-.272,8.149,2.75,8.149,2.75a21.2,21.2,0,0,0-1.251,5.02c-.013.194-.091,5.519-2.016,5.8" transform="translate(-29.488 -87.645)" fill="#ad6359"/>
        <path id="Path_37969" data-name="Path 37969" d="M72.483,207.39c.233,2.175,1.271,7.862,5.79,8.368a5.315,5.315,0,0,0,.82.023c.02-.363.025-.6.028-.64a21.216,21.216,0,0,1,1.247-5.016c-.005-.006-.011-.006-.023-.008a1.2,1.2,0,0,0-.136-.05c-.005-.006-.017-.007-.022-.008-.062-.028-.135-.05-.225-.085-.028-.014-.057-.021-.09-.035l-.181-.065c-.073-.028-.147-.057-.226-.085-.118-.043-.242-.087-.378-.137a1.059,1.059,0,0,0-.141-.05c-.1-.036-.192-.072-.293-.108-.356-.129-.739-.272-1.145-.417-.147-.051-.293-.107-.44-.158-.186-.066-.373-.131-.559-.2l-.559-.2c-.023-.008-.045-.015-.073-.022-.322-.115-.644-.225-.948-.334l-.316-.109c-.209-.073-.413-.139-.6-.2q-.212-.068-.407-.133l-.8-.248c-.063-.016-.119-.031-.176-.047s-.1-.024-.143-.033" transform="translate(-30.641 -87.67)" fill="#263238"/>
        <path id="Path_37970" data-name="Path 37970" d="M72.746,187.187c-1.5,2.71-1.725,11.4-.055,13.7,2.421,3.333,7.263,4.621,10.32,1.515,2.963-3.011,3.062-14.339,1.115-16.519-2.868-3.211-9.172-2.7-11.38,1.305" transform="translate(-30.237 -77.692)" fill="#ad6359"/>
        <path id="Path_37971" data-name="Path 37971" d="M85.141,201.468c0-.023-.048.026-.048.05,0,.591-.109,1.266-.649,1.441-.016.006-.016.035,0,.033.655-.066.784-.965.694-1.525" transform="translate(-35.692 -85.164)" fill="#263238"/>
        <path id="Path_37972" data-name="Path 37972" d="M84.2,200.367c-.946-.109-1.094,1.791-.218,1.891s1.01-1.8.218-1.891" transform="translate(-35.257 -84.699)" fill="#263238"/>
        <path id="Path_37973" data-name="Path 37973" d="M91.488,201.843c.006-.022.044.032.041.056-.069.587-.048,1.269.468,1.51.016.008.012.037-.007.032-.642-.146-.66-1.053-.5-1.6" transform="translate(-38.639 -85.323)" fill="#263238"/>
        <path id="Path_37974" data-name="Path 37974" d="M92.085,200.86c.952.008.866,1.911-.016,1.9s-.782-1.911.016-1.9" transform="translate(-38.659 -84.909)" fill="#263238"/>
        <path id="Path_37975" data-name="Path 37975" d="M84.8,198.373a7.473,7.473,0,0,1-.758.193,1.263,1.263,0,0,1-.81.05.4.4,0,0,1-.217-.442,1,1,0,0,1,.78-.645,1.468,1.468,0,0,1,1.056.059.43.43,0,0,1-.051.785" transform="translate(-35.088 -83.471)" fill="#263238"/>
        <path id="Path_37976" data-name="Path 37976" d="M93,197.193a7.4,7.4,0,0,1-.739-.255,1.264,1.264,0,0,1-.7-.4.4.4,0,0,1,.061-.488,1,1,0,0,1,1.006-.11,1.47,1.47,0,0,1,.85.629.43.43,0,0,1-.473.628" transform="translate(-38.68 -82.793)" fill="#263238"/>
        <path id="Path_37977" data-name="Path 37977" d="M84.7,204.289a4.988,4.988,0,0,1,2.321.04c.069-.005.14-.135.156-.2v0c0-.021.051-1.246.051-1.246.158.093.965.528.969.293a29.855,29.855,0,0,0-.342-6.047.054.054,0,0,0-.107.007c-.1,1.868.139,3.74.073,5.618a3.478,3.478,0,0,0-.914-.35c-.065.014.014,1.322-.022,1.521a2.89,2.89,0,0,0-2.175.108c-.263.142-.375.372-.009.257" transform="translate(-35.709 -83.312)" fill="#263238"/>
        <path id="Path_37978" data-name="Path 37978" d="M82.162,211.688c.13.145.258.343.468.375a1.539,1.539,0,0,0,.637-.106.021.021,0,0,1,.023.032.787.787,0,0,1-.761.268.622.622,0,0,1-.425-.546c-.007-.034.039-.044.058-.023" transform="translate(-34.708 -89.482)" fill="#263238"/>
        <path id="Path_37979" data-name="Path 37979" d="M85.686,208.656c-.55-.047-2.395.152-2.2,1.039.083.389.709.349,1.262-.024a3.753,3.753,0,0,0,.942-1.015" transform="translate(-35.284 -88.202)" fill="#263238"/>
        <path id="Path_37980" data-name="Path 37980" d="M84.47,210.17c-.47.219-.918.193-.988-.131a.557.557,0,0,1,.23-.578c.333.036,1.026.176.758.709" transform="translate(-35.284 -88.545)" fill="#ff9abb"/>
        <path id="Path_37981" data-name="Path 37981" d="M70.084,192.378c-.129-.814-1.174-9.547-.842-10.448.3-.819,1.185-.367,1.2-.413s.137-.812.647-1.044a1.3,1.3,0,0,1,1.028.139s.24-.794.775-.954a1.036,1.036,0,0,1,.971.331,1.366,1.366,0,0,1,.927-.872.887.887,0,0,1,.94.489s.307-.748.856-.835.942.537.942.537a1.175,1.175,0,0,1,1.021-.6c.66.067.815.8.815.8a1.4,1.4,0,0,1,1.071-.583c.608.053.731.834.731.834s.326-.646.891-.535.608.925.608.925.406-.7,1.052-.409c.992.454.547,5.4.533,7.565,0,0-.169-1.057-.6-1.146s-.84.589-1.678.655c-2.1.166-3.27-1.421-4.912-1.265-1.6.151-2.426,1.6-3.271,3.983-.954,2.682-3.4,4.782-3.707,2.849" transform="translate(-29.243 -75.542)" fill="#263238"/>
        <path id="Path_37982" data-name="Path 37982" d="M71.694,200.181s-1.387-3.077-2.75-2.633-.679,4.652.667,5.466a1.5,1.5,0,0,0,2.125-.417Z" transform="translate(-28.831 -83.49)" fill="#ad6359"/>
        <path id="Path_37983" data-name="Path 37983" d="M69.862,199.66c-.023-.006-.033.025-.015.038a3.784,3.784,0,0,1,1.484,2.692.829.829,0,0,0-1.175-.453c-.03.014-.012.06.017.059a.923.923,0,0,1,.938.505,4.466,4.466,0,0,1,.325.9c.03.1.2.083.189-.029l0-.025c.271-1.288-.393-3.29-1.759-3.684" transform="translate(-29.522 -84.402)" fill="#263238"/>
        <path id="Path_37984" data-name="Path 37984" d="M59.13,228.261c-1.368,6.71-1.981,30.588,2.539,34.288,4.579,3.748,8.853,2.34,9.4-2.309.449-3.837-4.215-27.077-5.859-32.6-1.566-5.255-4.478-7.225-6.076.618" transform="translate(-24.573 -94.28)" fill="#ad6359"/>
        <path id="Path_37985" data-name="Path 37985" d="M67.7,242.486l-14.925,5.538S55,230.659,57.094,225.736c2.357-5.539,4.674-3.123,6.859,2.167S67.7,242.486,67.7,242.486" transform="translate(-22.311 -94.092)" fill="#5f2d79"/>
        <path id="Path_37986" data-name="Path 37986" d="M54.6,257.133c.487-.272,5.11-2.071,6.124-2.44s5.142-1.919,6.22-2.213a.04.04,0,0,1,.031.073c-1,.489-5.158,2.063-6.183,2.46s-5.639,2.076-6.172,2.191c-.046.009-.053-.053-.02-.072" transform="translate(-23.074 -106.73)" fill="#263238"/>
        <path id="Path_37987" data-name="Path 37987" d="M75.034,247.648c.437-.2,1.13-.483,1.13-.483-.628-2.134-1.038-4.35-1.572-6.509-.544-2.2-1.02-4.406-1.537-6.61a.027.027,0,0,1,.053-.013q.558,1.843,1.093,3.684c-.017-.161-.033-.322-.051-.483-.063-.573-.11-1.148-.193-1.719-.007-.047.063-.066.074-.017a13.434,13.434,0,0,1,.309,1.716c.04.408.052.815.059,1.223.2.707.4,1.411.585,2.125.557,2.187,1.342,4.571,1.727,6.8,0,0-1.089.3-1.652.4a.055.055,0,0,1-.025-.106" transform="translate(-30.882 -98.925)" fill="#263238"/>
        <path id="Path_37988" data-name="Path 37988" d="M55.793,253.97q-1.538.713-3.1,1.351l-.276.113.024-.309c.21-2.652.55-5.288.978-7.913.218-1.311.458-2.62.749-3.918s.6-2.594,1-3.862l-.628,3.931-.574,3.935c-.382,2.623-.75,5.249-1.155,7.87l-.252-.2q1.6-.539,3.234-1" transform="translate(-22.157 -101.214)" fill="#263238"/>
        <path id="Path_37989" data-name="Path 37989" d="M55.015,243.013c.068.545.077,1.078.093,1.611s.02,1.057.04,1.6a3,3,0,0,1-.247-.784,5.221,5.221,0,0,1-.082-.814,5.518,5.518,0,0,1,.2-1.617" transform="translate(-23.174 -102.729)" fill="#263238"/>
        <path id="Path_37990" data-name="Path 37990" d="M65.18,269.573c-1.046,5.019,3.716,6.993,6.842,5.246,7.336-4.1,13.8-13.648,17.166-21.186,1-2.233-12.515-6.865-14.017-4.725-2.1,2.989-7.869,10.482-9.991,20.665" transform="translate(-27.491 -104.987)" fill="#ad6359"/>
        <path id="Path_37991" data-name="Path 37991" d="M86.727,230.736c-.579.7-.952.4-.914-1.215.034-1.637,1.559-7.989-.709-8.332s-4.285,8.677-4.141,11.376a42.952,42.952,0,0,0,1.323,7.014c.745-1.677,2.938-5.572,4.441-8.843" transform="translate(-34.223 -93.499)" fill="#ad6359"/>
        <path id="Path_37992" data-name="Path 37992" d="M96.134,240.254c2.56-4.966,4.612-10.658,3.736-16.427a2.887,2.887,0,0,0-.838-1.7c-.347-2.593-1.675-3.207-1.675-3.207a4.8,4.8,0,0,0-2.507-2.758s-.44-3.039-2.322-3.077c-2.109-.05-1.078,4.227-1.949,6.927-2,6.184-6.566,14.417-7.319,16.143Z" transform="translate(-35.196 -90.079)" fill="#ad6359"/>
        <path id="Path_37993" data-name="Path 37993" d="M100.2,230.221a41.863,41.863,0,0,0,1.441-5.514,42,42,0,0,0,.318-6.235.051.051,0,0,1,.1-.007,22.1,22.1,0,0,1-1.778,11.782c-.038.084-.11.066-.083-.027" transform="translate(-42.354 -92.332)" fill="#263238"/>
        <path id="Path_37994" data-name="Path 37994" d="M106.361,233.978a30.791,30.791,0,0,0,.7-10.786c0-.019.03-.028.035-.007A19.831,19.831,0,0,1,106.447,234c-.036.111-.115.1-.086-.021" transform="translate(-44.959 -94.342)" fill="#263238"/>
        <path id="Path_37995" data-name="Path 37995" d="M109.705,237.239a31.134,31.134,0,0,0,.492-8.474c0-.018.032-.025.035,0a18.568,18.568,0,0,1-.423,8.515c-.026.114-.128.085-.1-.036" transform="translate(-46.374 -96.698)" fill="#263238"/>
        <path id="Path_37996" data-name="Path 37996" d="M95.341,220.883a11.367,11.367,0,0,0,.577-3.17,20.4,20.4,0,0,1,.216-3.272,3.819,3.819,0,0,1,.264-.809,1.6,1.6,0,0,1,.573-.689,1.7,1.7,0,0,1,.867-.214,1.408,1.408,0,0,1,.835.292,3,3,0,0,1,.918,1.4,8.349,8.349,0,0,1,.366,1.6,10.36,10.36,0,0,0-.526-1.531,2.812,2.812,0,0,0-.914-1.24,1.238,1.238,0,0,0-.683-.208,1.409,1.409,0,0,0-.692.181,2.008,2.008,0,0,0-.662,1.3,24.341,24.341,0,0,0-.292,3.213,8.966,8.966,0,0,1-.847,3.155" transform="translate(-40.303 -89.927)" fill="#263238"/>
        <path id="Path_37997" data-name="Path 37997" d="M82.981,225.622a12.912,12.912,0,0,1,1.064-3.163,3.6,3.6,0,0,1,1.082-1.334,1.34,1.34,0,0,1,.9-.219,1.176,1.176,0,0,1,.8.516,3.67,3.67,0,0,1,.528,1.661,10.292,10.292,0,0,1,.048,1.7c-.077,1.131-.246,2.221-.392,3.317a9.059,9.059,0,0,0-.115,1.612,4.931,4.931,0,0,0,.1.787.822.822,0,0,0,.117.29c.024.022.006.006,0,.011a.19.19,0,0,0,.077-.045,4.517,4.517,0,0,0,.775-1.347c.23-.5.449-1.008.663-1.518.431-1.019.83-2.052,1.221-3.087a17.339,17.339,0,0,0,.939-3.178,15.5,15.5,0,0,1-.745,3.244c-.335,1.06-.715,2.1-1.107,3.143-.2.52-.4,1.037-.615,1.552-.107.258-.222.513-.346.767a4.059,4.059,0,0,1-.214.389,1.707,1.707,0,0,1-.31.359.567.567,0,0,1-.29.137.428.428,0,0,1-.364-.147,1.144,1.144,0,0,1-.216-.465,5.358,5.358,0,0,1-.126-.858,9.411,9.411,0,0,1,.1-1.7c.118-1.1.334-2.2.412-3.285a9.846,9.846,0,0,0-.023-1.625,3.581,3.581,0,0,0-.428-1.492.81.81,0,0,0-.538-.39,1.01,1.01,0,0,0-.685.141,3.365,3.365,0,0,0-1.034,1.188,14.508,14.508,0,0,0-1.275,3.046" transform="translate(-35.078 -93.379)" fill="#263238"/>
        <path id="Path_37998" data-name="Path 37998" d="M67.081,270.24c.264-1.047.606-2.069.97-3.083s.775-2.01,1.209-3,.917-1.952,1.441-2.895a25.993,25.993,0,0,1,1.725-2.735c-.225.492-.485.96-.7,1.452-.244.477-.47.963-.7,1.448-.444.975-.9,1.942-1.334,2.923Z" transform="translate(-28.357 -109.288)" fill="#263238"/>
        <path id="Path_37999" data-name="Path 37999" d="M95.023,267.973c.676-1.061,1.348-2.119,2-3.188s1.312-2.135,1.924-3.226c.646-1.073,1.243-2.173,1.84-3.274s1.16-2.22,1.746-3.334a34.5,34.5,0,0,1-1.449,3.485c-.538,1.139-1.142,2.245-1.762,3.34-.648,1.08-1.3,2.156-2.02,3.19a36.023,36.023,0,0,1-2.28,3.007" transform="translate(-40.169 -107.775)" fill="#263238"/>
      </g>
    </g>
  </g>
</svg>
