<svg id="Group_15322" data-name="Group 15322" xmlns="http://www.w3.org/2000/svg" xmlns:xlink="http://www.w3.org/1999/xlink" width="181.999" height="113" viewBox="0 0 181.999 113">
  <defs>
    <linearGradient id="linear-gradient" x1="0.5" x2="0.5" y2="1.066" gradientUnits="objectBoundingBox">
      <stop offset="0" stop-color="#d0c5d7"/>
      <stop offset="1" stop-color="#583275" stop-opacity="0"/>
    </linearGradient>
  </defs>
  <path id="Line_1" d="M-.76,2.849S12.812,31.1,26.029,31.1C38.512,31.1,38.512,19,51.73,19c12.483,0,12.483,19.867,25.7,19.867C89.913,38.871,89.913,0,103.13,0c12.483,0,12.483,59.6,25.7,59.6,12.483,0,12.483-24.186,25.7-24.186,12.483,0,26.707,21,26.707,21V111.8H-.76Z" transform="translate(0.76 1.195)" opacity="0.3" fill="url(#linear-gradient)"/>
  <path id="Line_1-2" data-name="Line_1" d="M103.891,0c5.965,0,8.582,6.679,13.238,27.2l.936,4.135c4.287,18.686,7.129,25.712,11.526,25.712,4.307,0,6.739-2.473,10.867-9.8l.655-1.176c4.958-8.933,8.022-12.171,14.178-12.171a13.915,13.915,0,0,1,2.174.175c5.267.832,10.744,4.509,16.233,10.106a77.6,77.6,0,0,1,6,6.921c.477.619.915,1.205,1.311,1.751L182,54.264l-2.014,1.153-.573-.825c-.474-.667-1.024-1.411-1.643-2.214a75.4,75.4,0,0,0-5.822-6.721c-5.163-5.266-10.265-8.69-14.879-9.419a11.37,11.37,0,0,0-1.776-.144c-4.61,0-7.215,2.475-11.311,9.628l-1.817,3.232c-4.325,7.556-7.174,10.291-12.573,10.291-6.4,0-9.226-7.107-14.056-28.39l-1.143-5.034c-3.979-17.186-6.61-23.627-10.5-23.627-4.6,0-7.335,4.481-11.716,17.029l-1.111,3.2C86.615,35.043,83.865,39.4,78.191,39.4c-5.709,0-8.783-2.368-13.246-8.74l-2.005-2.925c-3.846-5.5-6.234-7.352-10.449-7.352-4.93,0-7.526,1.263-11.741,4.979l-.835.747c-4.771,4.3-7.665,5.85-13.124,5.85-6.327,0-12.626-5.32-18.8-14.143a96.072,96.072,0,0,1-5.8-9.486l-.7-1.317q-.166-.319-.323-.626L.221,4.476,0,4.006l2.179-.857.549,1.145L3.308,5.45c.307.6.64,1.237,1,1.9a93.956,93.956,0,0,0,5.671,9.272c5.759,8.23,11.575,13.142,16.814,13.142,4.5,0,6.9-1.188,10.938-4.751l.812-.726c4.954-4.462,8.049-6.1,13.95-6.1,5.461,0,8.341,2.387,12.86,8.966l.718,1.057c4.548,6.73,7.155,8.994,12.123,8.994,4.067,0,6.593-4.057,10.626-15.477L90.2,17.75C94.83,4.627,97.789,0,103.891,0Z" fill="#efeaf1"/>
</svg>
